<?xml version="1.0" encoding="utf-8"?>
<svg version="1.1" xmlns:xlink="http://www.w3.org/1999/xlink" width="21px" height="21px" xmlns="http://www.w3.org/2000/svg">
  <g transform="matrix(1 0 0 1 -331 -235 )">
    <path d="M 19.8515625 6.39545454545455  C 20.6171875 6.84090909090909  21 7.38181818181818  21 8.01818181818182  L 21 12.9818181818182  C 21 13.3  20.80859375 13.5704545454545  20.42578125 13.7931818181818  C 20.04296875 14.0159090909091  19.578125 14.1272727272727  19.03125 14.1272727272727  C 18.484375 14.1272727272727  18.01953125 14.0159090909091  17.63671875 13.7931818181818  C 17.25390625 13.5704545454545  17.0625 13.3  17.0625 12.9818181818182  L 17.0625 8.78181818181818  L 15.75 8.78181818181818  L 15.75 19.6636363636364  C 15.75 20.0295454545455  15.5244140625 20.34375  15.0732421875 20.60625  C 14.6220703125 20.86875  14.08203125 21  13.453125 21  C 12.82421875 21  12.2841796875 20.86875  11.8330078125 20.60625  C 11.3818359375 20.34375  11.15625 20.0295454545455  11.15625 19.6636363636364  L 11.15625 14.1272727272727  L 9.84375 14.1272727272727  L 9.84375 19.6636363636364  C 9.84375 20.0295454545455  9.6181640625 20.34375  9.1669921875 20.60625  C 8.7158203125 20.86875  8.17578125 21  7.546875 21  C 6.91796875 21  6.3779296875 20.86875  5.9267578125 20.60625  C 5.4755859375 20.34375  5.25 20.0295454545455  5.25 19.6636363636364  L 5.25 8.78181818181818  L 3.9375 8.78181818181818  L 3.9375 12.9818181818182  C 3.9375 13.3  3.74609375 13.5704545454545  3.36328125 13.7931818181818  C 2.98046875 14.0159090909091  2.515625 14.1272727272727  1.96875 14.1272727272727  C 1.421875 14.1272727272727  0.95703125 14.0159090909091  0.57421875 13.7931818181818  C 0.19140625 13.5704545454545  0 13.3  0 12.9818181818182  L 0 8.01818181818182  C 0 7.38181818181818  0.3828125 6.84090909090909  1.1484375 6.39545454545455  C 1.9140625 5.95  2.84375 5.72727272727273  3.9375 6  L 17.0625 6  C 18.15625 5.72727272727273  19.0859375 5.95  19.8515625 6.39545454545455  Z M 13.75048828125 0.781534090909091  C 14.64599609375 1.30255681818182  15.09375 1.93295454545455  15.09375 2.67272727272727  C 15.09375 3.4125  14.64599609375 4.04289772727273  13.75048828125 4.56392045454545  C 12.85498046875 5.08494318181818  11.771484375 5.34545454545454  10.5 5.34545454545454  C 9.228515625 5.34545454545454  8.14501953125 5.08494318181818  7.24951171875 4.56392045454545  C 6.35400390625 4.04289772727273  5.90625 3.4125  5.90625 2.67272727272727  C 5.90625 1.93295454545455  6.35400390625 1.30255681818182  7.24951171875 0.781534090909091  C 8.14501953125 0.260511363636362  9.228515625 0  10.5 0  C 11.771484375 0  12.85498046875 0.260511363636362  13.75048828125 0.781534090909091  Z " fill-rule="nonzero" fill="#aaaaaa" stroke="none" transform="matrix(1 0 0 1 331 235 )" />
  </g>
</svg>