<?xml version="1.0" encoding="utf-8"?>
<svg version="1.1" xmlns:xlink="http://www.w3.org/1999/xlink" width="19px" height="15px" xmlns="http://www.w3.org/2000/svg">
  <g transform="matrix(1 0 0 1 -351 -33 )">
    <path d="M 18.7985491071429 4.978125  C 18.932849702381 5.096875  19 5.2375  19 5.4  C 19 5.5625  18.932849702381 5.703125  18.7985491071429 5.821875  L 13.3699776785714 10.621875  C 13.2356770833333 10.740625  13.0766369047619 10.8  12.8928571428571 10.8  C 12.7090773809524 10.8  12.550037202381 10.740625  12.4157366071429 10.621875  C 12.2814360119048 10.503125  12.2142857142857 10.3625  12.2142857142857 10.2  L 12.2142857142857 7.8  L 9.83928571428572 7.8  C 9.14657738095238 7.8  8.52632068452381 7.81875  7.978515625 7.85625  C 7.43071056547619 7.89375  6.88643973214286 7.9609375  6.345703125 8.0578125  C 5.80496651785714 8.1546875  5.33491443452381 8.2875  4.935546875 8.45625  C 4.53617931547619 8.625  4.16331845238095 8.8421875  3.81696428571429 9.1078125  C 3.47061011904762 9.3734375  3.18787202380952 9.6890625  2.96875 10.0546875  C 2.74962797619048 10.4203125  2.57821800595238 10.853125  2.45452008928571 11.353125  C 2.33082217261905 11.853125  2.26897321428571 12.41875  2.26897321428571 13.05  C 2.26897321428571 13.39375  2.2866443452381 13.778125  2.32198660714286 14.203125  C 2.32198660714286 14.240625  2.33082217261905 14.3140625  2.34849330357143 14.4234375  C 2.36616443452381 14.5328125  2.375 14.615625  2.375 14.671875  C 2.375 14.765625  2.34495907738095 14.84375  2.28487723214286 14.90625  C 2.22479538690476 14.96875  2.14174107142857 15  2.03571428571429 15  C 1.92261904761905 15  1.82366071428571 14.946875  1.73883928571429 14.840625  C 1.68936011904762 14.784375  1.64341517857143 14.715625  1.60100446428571 14.634375  C 1.55859375 14.553125  1.51088169642857 14.459375  1.45786830357143 14.353125  C 1.40485491071429 14.246875  1.36774553571429 14.171875  1.34654017857143 14.128125  C 0.448846726190476 12.346875  0 10.9375  0 9.9  C 0 8.65625  0.187313988095238 7.615625  0.561941964285714 6.778125  C 1.70703125 4.259375  4.79947916666667 3  9.83928571428572 3  L 12.2142857142857 3  L 12.2142857142857 0.600000000000001  C 12.2142857142857 0.437499999999998  12.2814360119048 0.296874999999998  12.4157366071429 0.178125  C 12.550037202381 0.0593749999999993  12.7090773809524 0  12.8928571428571 0  C 13.0766369047619 0  13.2356770833333 0.0593749999999993  13.3699776785714 0.178125  L 18.7985491071429 4.978125  Z " fill-rule="nonzero" fill="#7f7f7f" stroke="none" transform="matrix(1 0 0 1 351 33 )" />
  </g>
</svg>