<?xml version="1.0" encoding="utf-8"?>
<svg version="1.1" xmlns:xlink="http://www.w3.org/1999/xlink" width="9px" height="22px" xmlns="http://www.w3.org/2000/svg">
  <g transform="matrix(1 0 0 1 -8 -38 )">
    <path d="M 8.84536082474227 1.32264529058116  C 8.94845360824742 1.46960587842351  9 1.63861055444221  9 1.82965931863728  C 9 2.02070808283233  8.94845360824742 2.18971275885103  8.84536082474227 2.33667334669339  L 2.7680412371134 11  L 8.84536082474227 19.6633266533066  C 8.94845360824742 19.810287241149  9 19.9792919171677  9 20.1703406813627  C 9 20.3613894455578  8.94845360824742 20.5303941215765  8.84536082474227 20.6773547094188  L 8.07216494845361 21.7795591182365  C 7.96907216494845 21.9265197060788  7.85051546391753 22  7.71649484536082 22  C 7.58247422680413 22  7.4639175257732 21.9265197060788  7.36082474226804 21.7795591182365  L 0.154639175257732 11.5070140280561  C 0.0515463917525774 11.3600534402138  0 11.1910487641951  0 11  C 0 10.8089512358049  0.0515463917525774 10.6399465597862  0.154639175257732 10.4929859719439  L 7.36082474226804 0.220440881763527  C 7.4639175257732 0.0734802939211749  7.58247422680413 0  7.71649484536082 0  C 7.85051546391753 0  7.96907216494845 0.0734802939211749  8.07216494845361 0.220440881763527  L 8.84536082474227 1.32264529058116  Z " fill-rule="nonzero" fill="#555555" stroke="none" transform="matrix(1 0 0 1 8 38 )" />
  </g>
</svg>