<?xml version="1.0" encoding="utf-8"?>
<svg version="1.1" xmlns:xlink="http://www.w3.org/1999/xlink" width="30px" height="30px" xmlns="http://www.w3.org/2000/svg">
  <g transform="matrix(1 0 0 1 -19 -295 )">
    <path d="M 19.853515625 3.49609375  C 18.310546875 2.83203125  16.6927083333333 2.5  15 2.5  C 13.3072916666667 2.5  11.689453125 2.83203125  10.146484375 3.49609375  C 8.603515625 4.16015625  7.275390625 5.048828125  6.162109375 6.162109375  C 5.048828125 7.275390625  4.16015625 8.603515625  3.49609375 10.146484375  C 2.83203125 11.689453125  2.5 13.3072916666667  2.5 15  C 2.5 16.6927083333333  2.83203125 18.310546875  3.49609375 19.853515625  C 4.16015625 21.396484375  5.048828125 22.724609375  6.162109375 23.837890625  C 7.275390625 24.951171875  8.603515625 25.83984375  10.146484375 26.50390625  C 11.689453125 27.16796875  13.3072916666667 27.5  15 27.5  C 16.6927083333333 27.5  18.310546875 27.16796875  19.853515625 26.50390625  C 21.396484375 25.83984375  22.724609375 24.951171875  23.837890625 23.837890625  C 24.951171875 22.724609375  25.83984375 21.396484375  26.50390625 19.853515625  C 27.16796875 18.310546875  27.5 16.6927083333333  27.5 15  C 27.5 13.3072916666667  27.16796875 11.689453125  26.50390625 10.146484375  C 25.83984375 8.603515625  24.951171875 7.275390625  23.837890625 6.162109375  C 22.724609375 5.048828125  21.396484375 4.16015625  19.853515625 3.49609375  Z M 27.98828125 7.470703125  C 29.3294270833333 9.76888020833333  30 12.2786458333333  30 15  C 30 17.7213541666667  29.3294270833333 20.2311197916667  27.98828125 22.529296875  C 26.6471354166667 24.8274739583333  24.8274739583333 26.6471354166667  22.529296875 27.98828125  C 20.2311197916667 29.3294270833333  17.7213541666667 30  15 30  C 12.2786458333333 30  9.76888020833333 29.3294270833333  7.470703125 27.98828125  C 5.17252604166667 26.6471354166667  3.35286458333333 24.8274739583333  2.01171875 22.529296875  C 0.670572916666667 20.2311197916667  0 17.7213541666667  0 15  C 0 12.2786458333333  0.670572916666667 9.76888020833333  2.01171875 7.470703125  C 3.35286458333333 5.17252604166667  5.17252604166667 3.35286458333333  7.470703125 2.01171875  C 9.76888020833333 0.670572916666664  12.2786458333333 0  15 0  C 17.7213541666667 0  20.2311197916667 0.670572916666664  22.529296875 2.01171875  C 24.8274739583333 3.35286458333333  26.6471354166667 5.17252604166667  27.98828125 7.470703125  Z " fill-rule="nonzero" fill="#aaaaaa" stroke="none" transform="matrix(1 0 0 1 19 295 )" />
  </g>
</svg>