<?xml version="1.0" encoding="utf-8"?>
<svg version="1.1" xmlns:xlink="http://www.w3.org/1999/xlink" width="11px" height="12px" xmlns="http://www.w3.org/2000/svg">
  <g transform="matrix(1 0 0 1 -298 -223 )">
    <path d="M 8.09244791666667 8.125  C 8.18315972222222 8.02604166666667  8.228515625 7.90625  8.228515625 7.765625  C 8.228515625 7.63020833333333  8.18315972222222 7.51302083333333  8.09244791666667 7.4140625  L 6.79622395833333 6  L 8.09244791666667 4.5859375  C 8.18315972222222 4.48697916666667  8.228515625 4.36979166666667  8.228515625 4.234375  C 8.228515625 4.09375  8.18315972222222 3.97395833333333  8.09244791666667 3.875  L 7.44791666666667 3.171875  C 7.35720486111111 3.07291666666667  7.24739583333333 3.0234375  7.11848958333333 3.0234375  C 6.99435763888889 3.0234375  6.88693576388889 3.07291666666667  6.79622395833333 3.171875  L 5.5 4.5859375  L 4.20377604166667 3.171875  C 4.11306423611111 3.07291666666667  4.00564236111111 3.0234375  3.88151041666667 3.0234375  C 3.75260416666667 3.0234375  3.64279513888889 3.07291666666667  3.55208333333333 3.171875  L 2.90755208333333 3.875  C 2.81684027777778 3.97395833333333  2.771484375 4.09375  2.771484375 4.234375  C 2.771484375 4.36979166666667  2.81684027777778 4.48697916666667  2.90755208333333 4.5859375  L 4.20377604166667 6  L 2.90755208333333 7.4140625  C 2.81684027777778 7.51302083333333  2.771484375 7.63020833333333  2.771484375 7.765625  C 2.771484375 7.90625  2.81684027777778 8.02604166666667  2.90755208333333 8.125  L 3.55208333333333 8.828125  C 3.64279513888889 8.92708333333333  3.75260416666667 8.9765625  3.88151041666667 8.9765625  C 4.00564236111111 8.9765625  4.11306423611111 8.92708333333333  4.20377604166667 8.828125  L 5.5 7.4140625  L 6.79622395833333 8.828125  C 6.88693576388889 8.92708333333333  6.99435763888889 8.9765625  7.11848958333333 8.9765625  C 7.24739583333333 8.9765625  7.35720486111111 8.92708333333333  7.44791666666667 8.828125  L 8.09244791666667 8.125  Z M 10.2623697916667 2.98828125  C 10.7541232638889 3.90755208333333  11 4.91145833333333  11 6  C 11 7.08854166666667  10.7541232638889 8.09244791666667  10.2623697916667 9.01171875  C 9.77061631944445 9.93098958333333  9.10340711805556 10.6588541666667  8.2607421875 11.1953125  C 7.41807725694445 11.7317708333333  6.49782986111111 12  5.5 12  C 4.50217013888889 12  3.58192274305556 11.7317708333333  2.7392578125 11.1953125  C 1.89659288194444 10.6588541666667  1.22938368055556 9.93098958333333  0.737630208333333 9.01171875  C 0.245876736111111 8.09244791666667  0 7.08854166666667  0 6  C 0 4.91145833333333  0.245876736111111 3.90755208333333  0.737630208333333 2.98828125  C 1.22938368055556 2.06901041666667  1.89659288194444 1.34114583333333  2.7392578125 0.8046875  C 3.58192274305556 0.268229166666666  4.50217013888889 0  5.5 0  C 6.49782986111111 0  7.41807725694445 0.268229166666666  8.2607421875 0.8046875  C 9.10340711805556 1.34114583333333  9.77061631944445 2.06901041666667  10.2623697916667 2.98828125  Z " fill-rule="nonzero" fill="#333333" stroke="none" transform="matrix(1 0 0 1 298 223 )" />
  </g>
</svg>