<?xml version="1.0" encoding="utf-8"?>
<svg version="1.1" xmlns:xlink="http://www.w3.org/1999/xlink" width="15px" height="20px" xmlns="http://www.w3.org/2000/svg">
  <g transform="matrix(1 0 0 1 -11 -39 )">
    <path d="M 14.7422680412371 1.20240480961924  C 14.914089347079 1.33600534402137  15 1.48964595858383  15 1.66332665330661  C 15 1.83700734802939  14.914089347079 1.99064796259185  14.7422680412371 2.12424849699399  L 4.61340206185567 10  L 14.7422680412371 17.875751503006  C 14.914089347079 18.0093520374081  15 18.1629926519706  15 18.3366733466934  C 15 18.5103540414162  14.914089347079 18.6639946559786  14.7422680412371 18.7975951903808  L 13.4536082474227 19.7995991983968  C 13.2817869415808 19.9331997327989  13.0841924398625 20  12.860824742268 20  C 12.6374570446735 20  12.4398625429553 19.9331997327989  12.2680412371134 19.7995991983968  L 0.257731958762887 10.4609218436874  C 0.0859106529209623 10.3273213092852  0 10.1736806947228  0 10  C 0 9.82631930527722  0.0859106529209623 9.67267869071476  0.257731958762887 9.53907815631263  L 12.2680412371134 0.200400801603207  C 12.4398625429553 0.0668002672010681  12.6374570446735 0  12.860824742268 0  C 13.0841924398625 0  13.2817869415808 0.0668002672010681  13.4536082474227 0.200400801603207  L 14.7422680412371 1.20240480961924  Z " fill-rule="nonzero" fill="#7f7f7f" stroke="none" transform="matrix(1 0 0 1 11 39 )" />
  </g>
</svg>