<?xml version="1.0" encoding="utf-8"?>
<svg version="1.1" xmlns:xlink="http://www.w3.org/1999/xlink" width="19px" height="22px" xmlns="http://www.w3.org/2000/svg">
  <g transform="matrix(1 0 0 1 -334 -132 )">
    <path d="M 0.925465355347785 20.2579185349265  C 0.925523907038183 20.2579185349265  0.925582458727762 20.2579185416667  0.925641010416666 20  L 18.0743589895833 20  C 18.0744175412763 20.2579185416667  18.0744760929454 20.2579185349265  18.0745346446399 20.2579185349265  C 18.5050335332859 20.2579185349265  18.8540218363066 20.6144700519446  18.8540218363066 21.0542986378677  C 18.8540218363066 21.4941272237908  18.5050335332859 21.8506787408088  18.0745346446399 21.8506787408088  L 0.925641010416671 21.8506787205882  C 0.494966466701853 21.8506787408088  0.14597816368112 21.4941272237908  0.14597816368112 21.0542986378677  C 0.14597816368112 20.6144700519446  0.494966466701853 20.2579185349265  0.925465355347785 20.2579185349265  Z M 15.5082871916667 6.81661539705882  L 12.6179487270833 3.86523075367647  L 13.7217025458333 2.73755657352941  L 16.6104820604167 5.69053395220588  L 15.5082871916667 6.81661539705882  Z M 6.79985640416667 15.4398189889706  L 3.26410254583333 11.8290316617647  L 4.36785640416667 10.7013574816176  L 7.90205127291667 14.3137375441177  L 6.79985640416667 15.4398189889706  Z M 2.59062565625 16.8653393602941  L 5.11928206041667 16.5340452426471  L 17.3244923229167 4.06432577941177  L 15.1201025458333 1.81216288970588  L 2.91333333333333 14.2818823529412  L 2.59062565625 16.8653393602941  Z M 0.788451272916667 18.7049773786765  L 1.43542565625 13.5396560992647  L 14.0163487270833 0.686081444852941  C 14.3087628289099 0.386997641134382  14.7055568747232 0.218946125770065  15.119323090625 0.218946125770065  C 15.5330893065268 0.218946125770065  15.9298833523401 0.386997641134384  16.2222974541667 0.686081444852941  L 18.4266871916667 2.93824433455882  C 19.0352826280796 3.56021694442202  19.0352826280796 4.56843461440151  18.4266871916667 5.19040722426471  L 5.84576412083333 18.0439819191176  L 0.788451272916667 18.7049773786765  Z " fill-rule="nonzero" fill="#000000" stroke="none" transform="matrix(1 0 0 1 334 132 )" />
  </g>
</svg>