<?xml version="1.0" encoding="utf-8"?>
<svg version="1.1" xmlns:xlink="http://www.w3.org/1999/xlink" width="60px" height="60px" xmlns="http://www.w3.org/2000/svg">
  <g transform="matrix(1 0 0 1 -12 -73 )">
    <path d="M 42 73  C 58.8 73  72 86.2  72 103  C 72 119.8  58.8 133  42 133  C 25.2 133  12 119.8  12 103  C 12 86.2  25.2 73  42 73  Z " fill-rule="nonzero" fill="#ffffff" stroke="none" />
    <path d="M 42 73.5  C 58.52 73.5  71.5 86.48  71.5 103  C 71.5 119.52  58.52 132.5  42 132.5  C 25.48 132.5  12.5 119.52  12.5 103  C 12.5 86.48  25.48 73.5  42 73.5  Z " stroke-width="1" stroke="#797979" fill="none" />
  </g>
</svg>