<?xml version="1.0" encoding="utf-8"?>
<svg version="1.1" xmlns:xlink="http://www.w3.org/1999/xlink" width="21px" height="20px" xmlns="http://www.w3.org/2000/svg">
  <g transform="matrix(1 0 0 1 -345 -30 )">
    <path d="M 12.974609375 12.3567708333333  C 13.658203125 11.7057291666667  14 10.9201388888889  14 10  C 14 9.07986111111111  13.658203125 8.29427083333333  12.974609375 7.64322916666667  C 12.291015625 6.9921875  11.4661458333333 6.66666666666667  10.5 6.66666666666667  C 9.53385416666667 6.66666666666667  8.708984375 6.9921875  8.025390625 7.64322916666667  C 7.341796875 8.29427083333333  7 9.07986111111111  7 10  C 7 10.9201388888889  7.341796875 11.7057291666667  8.025390625 12.3567708333333  C 8.708984375 13.0078125  9.53385416666667 13.3333333333333  10.5 13.3333333333333  C 11.4661458333333 13.3333333333333  12.291015625 13.0078125  12.974609375 12.3567708333333  Z M 20.890625 8.27473958333333  C 20.9635416666667 8.36588541666667  21 8.46788194444444  21 8.58072916666667  L 21 11.4713541666667  C 21 11.5755208333333  20.9635416666667 11.6753472222222  20.890625 11.7708333333333  C 20.8177083333333 11.8663194444444  20.7265625 11.9227430555556  20.6171875 11.9401041666667  L 18.087890625 12.3046875  C 17.9147135416667 12.7734375  17.7369791666667 13.1684027777778  17.5546875 13.4895833333333  C 17.8736979166667 13.9236111111111  18.361328125 14.5225694444444  19.017578125 15.2864583333333  C 19.1087239583333 15.390625  19.154296875 15.4991319444444  19.154296875 15.6119791666667  C 19.154296875 15.7248263888889  19.11328125 15.8246527777778  19.03125 15.9114583333333  C 18.78515625 16.2326388888889  18.333984375 16.7013888888889  17.677734375 17.3177083333333  C 17.021484375 17.9340277777778  16.5930989583333 18.2421875  16.392578125 18.2421875  C 16.283203125 18.2421875  16.1647135416667 18.203125  16.037109375 18.125  L 14.150390625 16.71875  C 13.7493489583333 16.9184027777778  13.3346354166667 17.0833333333333  12.90625 17.2135416666667  C 12.7604166666667 18.3940972222222  12.6282552083333 19.2013888888889  12.509765625 19.6354166666667  C 12.4459635416667 19.8784722222222  12.2819010416667 20  12.017578125 20  L 8.982421875 20  C 8.85481770833333 20  8.7431640625 19.9631076388889  8.6474609375 19.8893229166667  C 8.5517578125 19.8155381944444  8.49934895833333 19.7222222222222  8.490234375 19.609375  L 8.107421875 17.2135416666667  C 7.66080729166667 17.0746527777778  7.25065104166667 16.9140625  6.876953125 16.7317708333333  L 4.94921875 18.125  C 4.85807291666667 18.203125  4.744140625 18.2421875  4.607421875 18.2421875  C 4.47981770833333 18.2421875  4.36588541666667 18.1944444444444  4.265625 18.0989583333333  C 3.1171875 17.109375  2.365234375 16.3802083333333  2.009765625 15.9114583333333  C 1.94596354166667 15.8246527777778  1.9140625 15.7248263888889  1.9140625 15.6119791666667  C 1.9140625 15.5078125  1.95052083333333 15.4079861111111  2.0234375 15.3125  C 2.16015625 15.1302083333333  2.392578125 14.8415798611111  2.720703125 14.4466145833333  C 3.048828125 14.0516493055556  3.294921875 13.7456597222222  3.458984375 13.5286458333333  C 3.212890625 13.0946180555556  3.02604166666667 12.6649305555556  2.8984375 12.2395833333333  L 0.396484375 11.8880208333333  C 0.277994791666667 11.8706597222222  0.182291666666667 11.81640625  0.109375 11.7252604166667  C 0.0364583333333333 11.6341145833333  0 11.5321180555556  0 11.4192708333333  L 0 8.52864583333333  C 0 8.42447916666667  0.0364583333333333 8.32465277777778  0.109375 8.22916666666667  C 0.182291666666667 8.13368055555556  0.268880208333333 8.07725694444444  0.369140625 8.05989583333333  L 2.912109375 7.6953125  C 3.03971354166667 7.29600694444444  3.21744791666667 6.89670138888889  3.4453125 6.49739583333333  C 3.08072916666667 6.00260416666667  2.59309895833333 5.40364583333333  1.982421875 4.70052083333333  C 1.89127604166667 4.59635416666667  1.845703125 4.4921875  1.845703125 4.38802083333333  C 1.845703125 4.30121527777778  1.88671875 4.20138888888889  1.96875 4.08854166666667  C 2.20572916666667 3.77604166666667  2.65462239583333 3.30946180555555  3.3154296875 2.68880208333333  C 3.97623697916667 2.06814236111111  4.40690104166667 1.7578125  4.607421875 1.7578125  C 4.72591145833333 1.7578125  4.84440104166667 1.80121527777778  4.962890625 1.88802083333333  L 6.849609375 3.28125  C 7.25065104166667 3.08159722222222  7.66536458333333 2.91666666666667  8.09375 2.78645833333333  C 8.23958333333333 1.60590277777778  8.37174479166667 0.798611111111109  8.490234375 0.364583333333333  C 8.55403645833333 0.121527777777777  8.71809895833333 0  8.982421875 0  L 12.017578125 0  C 12.1451822916667 0  12.2568359375 0.0368923611111094  12.3525390625 0.110677083333333  C 12.4482421875 0.184461805555554  12.5006510416667 0.277777777777777  12.509765625 0.390625  L 12.892578125 2.78645833333333  C 13.3391927083333 2.92534722222222  13.7493489583333 3.0859375  14.123046875 3.26822916666667  L 16.064453125 1.875  C 16.146484375 1.796875  16.255859375 1.7578125  16.392578125 1.7578125  C 16.5110677083333 1.7578125  16.625 1.80121527777778  16.734375 1.88802083333333  C 17.91015625 2.92100694444444  18.662109375 3.65885416666667  18.990234375 4.1015625  C 19.0540364583333 4.17100694444444  19.0859375 4.26649305555555  19.0859375 4.38802083333333  C 19.0859375 4.4921875  19.0494791666667 4.59201388888889  18.9765625 4.6875  C 18.83984375 4.86979166666667  18.607421875 5.15842013888889  18.279296875 5.55338541666667  C 17.951171875 5.94835069444444  17.705078125 6.25434027777778  17.541015625 6.47135416666667  C 17.7779947916667 6.90538194444444  17.96484375 7.33072916666667  18.1015625 7.74739583333333  L 20.603515625 8.11197916666667  C 20.7220052083333 8.12934027777778  20.8177083333333 8.18359375  20.890625 8.27473958333333  Z " fill-rule="nonzero" fill="#000000" stroke="none" transform="matrix(1 0 0 1 345 30 )" />
  </g>
</svg>