<?xml version="1.0" encoding="utf-8"?>
<svg version="1.1" xmlns:xlink="http://www.w3.org/1999/xlink" width="21px" height="20px" xmlns="http://www.w3.org/2000/svg">
  <g transform="matrix(1 0 0 1 -295 -82 )">
    <path d="M 20.685955786736 8.2444733420026  L 18.8016905071521 10  L 20.685955786736 11.7555266579974  C 20.9590377113134 11.9982661465106  21.0500650195059 12.3016905071521  20.9590377113134 12.665799739922  C 20.8498049414824 13.0212397052449  20.6131339401821 13.2423060251409  20.2490247074122 13.3289986996099  L 17.6820546163849 13.9531859557867  L 18.405721716515 16.371911573472  C 18.5149544863459 16.727351538795  18.4284785435631 17.0307758994365  18.1462938881665 17.2821846553966  C 17.8823146944083 17.5509319462505  17.5637191157347 17.6332899869961  17.1905071521456 17.5292587776333  L 14.6508452535761 16.8400520156047  L 13.9954486345904 19.2847854356307  C 13.9044213263979 19.6315561335067  13.6723016905072 19.8569570871261  13.2990897269181 19.9609882964889  C 13.1898569570871 19.9783268313827  13.1033810143043 19.9869960988297  13.0396618985696 19.9869960988297  C 12.757477243173 19.9869960988297  12.5253576072822 19.8916341569137  12.3433029908973 19.7009102730819  L 10.5 17.9063719115735  L 8.65669700910273 19.7009102730819  C 8.40182054616385 19.9609882964889  8.08322496749025 20.047680970958  7.70091027308192 19.9609882964889  C 7.32769830949285 19.865626354573  7.09557867360208 19.6402254009536  7.00455136540962 19.2847854356307  L 6.34915474642393 16.8400520156047  L 3.80949284785436 17.5292587776333  C 3.43628088426528 17.6332899869961  3.11768530559168 17.5509319462505  2.85370611183355 17.2821846553966  C 2.57152145643693 17.0307758994365  2.4850455136541 16.727351538795  2.59427828348505 16.371911573472  L 3.31794538361508 13.9531859557867  L 0.750975292587776 13.3289986996099  C 0.386866059817945 13.2423060251409  0.150195058517555 13.0212397052449  0.040962288686606 12.665799739922  C -0.0500650195058518 12.3016905071521  0.040962288686606 11.9982661465106  0.314044213263979 11.7555266579974  L 2.19830949284785 10  L 0.314044213263979 8.2444733420026  C 0.040962288686606 8.00173385348938  -0.0500650195058518 7.69830949284786  0.040962288686606 7.33420026007802  C 0.150195058517555 6.97876029475509  0.386866059817945 6.75769397485912  0.750975292587776 6.67100130039012  L 3.31794538361508 6.04681404421326  L 2.59427828348505 3.62808842652796  C 2.4850455136541 3.27264846120503  2.57152145643693 2.9692241005635  2.85370611183355 2.71781534460338  C 3.11768530559168 2.44906805374946  3.43628088426528 2.3667100130039  3.80949284785436 2.47074122236671  L 6.34915474642393 3.15994798439532  L 7.00455136540962 0.715214564369311  C 7.09557867360208 0.359774599046379  7.32769830949285 0.13870827915041  7.70091027308192 0.0520156046814035  C 8.074122236671 -0.0520156046814035  8.39271781534461 0.0303424360641524  8.65669700910273 0.299089726918076  L 10.5 2.10663198959688  L 12.3433029908973 0.299089726918076  C 12.6072821846554 0.0390117035110538  12.925877763329 -0.0433463372345066  13.2990897269181 0.0520156046814035  C 13.6723016905072 0.13870827915041  13.9044213263979 0.359774599046379  13.9954486345904 0.715214564369311  L 14.6508452535761 3.15994798439532  L 17.1905071521456 2.47074122236671  C 17.5637191157347 2.3667100130039  17.8823146944083 2.44906805374946  18.1462938881665 2.71781534460338  C 18.4284785435631 2.9692241005635  18.5149544863459 3.27264846120503  18.405721716515 3.62808842652796  L 17.6820546163849 6.04681404421326  L 20.2490247074122 6.67100130039012  C 20.6131339401821 6.75769397485912  20.8498049414824 6.97876029475509  20.9590377113134 7.33420026007802  C 21.0500650195059 7.69830949284786  20.9590377113134 8.00173385348938  20.685955786736 8.2444733420026  Z " fill-rule="nonzero" fill="#7f7f7f" stroke="none" transform="matrix(1 0 0 1 295 82 )" />
  </g>
</svg>