<?xml version="1.0" encoding="utf-8"?>
<svg version="1.1" xmlns:xlink="http://www.w3.org/1999/xlink" width="5px" height="1px" xmlns="http://www.w3.org/2000/svg">
  <g transform="matrix(1 0 0 1 -354 -135 )">
    <path d="M 4.91408934707904 0.476953907815631  C 4.97136311569301 0.483633934535738  5 0.491315965263861  5 0.5  C 5 0.508684034736139  4.97136311569301 0.516366065464262  4.91408934707904 0.523046092184369  L 0.910652920962199 0.98997995991984  C 0.853379152348225 0.996659986639947  0.787514318442153 1  0.713058419243986 1  C 0.638602520045819 1  0.572737686139748 0.996659986639947  0.515463917525773 0.98997995991984  L 0.0859106529209622 0.939879759519038  C 0.0286368843069874 0.933199732798931  0 0.925517702070808  0 0.916833667334669  C 0 0.90814963259853  0.0286368843069874 0.900467601870407  0.0859106529209622 0.893787575150301  L 3.46219931271478 0.5  L 0.0859106529209622 0.106212424849699  C 0.0286368843069874 0.0995323981295925  0 0.0918503674014696  0 0.0831663326653307  C 0 0.0744822979291916  0.0286368843069874 0.0668002672010687  0.0859106529209622 0.0601202404809619  L 0.515463917525773 0.0100200400801603  C 0.572737686139748 0.00334001336005341  0.638602520045819 0  0.713058419243986 0  C 0.787514318442153 0  0.853379152348225 0.00334001336005341  0.910652920962199 0.0100200400801603  L 4.91408934707904 0.476953907815631  Z " fill-rule="nonzero" fill="#cccccc" stroke="none" transform="matrix(1 0 0 1 354 135 )" />
  </g>
</svg>