<?xml version="1.0" encoding="utf-8"?>
<svg version="1.1" xmlns:xlink="http://www.w3.org/1999/xlink" width="12px" height="18px" xmlns="http://www.w3.org/2000/svg">
  <g transform="matrix(1 0 0 1 -21 -236 )">
    <path d="M 11.88687125 6.15003628125  C 11.8868945 2.7715908515625  9.23099629545454 0.0326958281250003  5.95490475 0.0326958281250003  C 2.67883647727273 0.0326958281250003  0.0229382499999996 2.7715908515625  0.0229382499999996 6.15003628125  C 0.0229382499999996 9.5284816875  5.95490475 17.828630203125  5.95490475 17.828630203125  C 5.95490475 17.828630203125  11.88687125 9.5285056875  11.88687125 6.15003628125  Z M 8.86502477272727 6.15003628125  C 8.86502477272727 7.807600453125  7.56226297727273 9.1510975546875  5.95490475 9.1510975546875  C 4.34754654545455 9.1510975546875  3.04478472727273 7.8076244296875  3.04478472727273 6.15003628125  C 3.04478472727273 4.4924481328125  4.34754654545455 3.148998984375  5.95490475 3.148998984375  C 7.56226295454545 3.148998984375  8.86502477272727 4.492472109375  8.86502477272727 6.15003628125  Z " fill-rule="nonzero" fill="#000000" stroke="none" transform="matrix(1 0 0 1 21 236 )" />
  </g>
</svg>