<?xml version="1.0" encoding="utf-8"?>
<svg version="1.1" xmlns:xlink="http://www.w3.org/1999/xlink" width="15px" height="15px" xmlns="http://www.w3.org/2000/svg">
  <g transform="matrix(1 0 0 1 -327 -29 )">
    <path d="M 14.8409598214286 4.978125  C 14.9469866071429 5.096875  15 5.2375  15 5.4  C 15 5.5625  14.9469866071429 5.703125  14.8409598214286 5.821875  L 10.5552455357143 10.621875  C 10.44921875 10.740625  10.3236607142857 10.8  10.1785714285714 10.8  C 10.0334821428571 10.8  9.90792410714286 10.740625  9.80189732142857 10.621875  C 9.69587053571429 10.503125  9.64285714285714 10.3625  9.64285714285714 10.2  L 9.64285714285714 7.8  L 7.76785714285714 7.8  C 7.22098214285714 7.8  6.73130580357143 7.81875  6.298828125 7.85625  C 5.86635044642857 7.89375  5.43666294642857 7.9609375  5.009765625 8.0578125  C 4.58286830357143 8.1546875  4.21177455357143 8.2875  3.896484375 8.45625  C 3.58119419642857 8.625  3.28683035714286 8.8421875  3.01339285714286 9.1078125  C 2.73995535714286 9.3734375  2.51674107142857 9.6890625  2.34375 10.0546875  C 2.17075892857143 10.4203125  2.03543526785714 10.853125  1.93777901785714 11.353125  C 1.84012276785714 11.853125  1.79129464285714 12.41875  1.79129464285714 13.05  C 1.79129464285714 13.39375  1.80524553571429 13.778125  1.83314732142857 14.203125  C 1.83314732142857 14.240625  1.84012276785714 14.3140625  1.85407366071429 14.4234375  C 1.86802455357143 14.5328125  1.875 14.615625  1.875 14.671875  C 1.875 14.765625  1.85128348214286 14.84375  1.80385044642857 14.90625  C 1.75641741071429 14.96875  1.69084821428571 15  1.60714285714286 15  C 1.51785714285714 15  1.43973214285714 14.946875  1.37276785714286 14.840625  C 1.33370535714286 14.784375  1.29743303571429 14.715625  1.26395089285714 14.634375  C 1.23046875 14.553125  1.19280133928571 14.459375  1.15094866071429 14.353125  C 1.10909598214286 14.246875  1.07979910714286 14.171875  1.06305803571429 14.128125  C 0.354352678571428 12.346875  0 10.9375  0 9.9  C 0 8.65625  0.147879464285714 7.615625  0.443638392857143 6.778125  C 1.34765625 4.259375  3.7890625 3  7.76785714285714 3  L 9.64285714285714 3  L 9.64285714285714 0.600000000000001  C 9.64285714285714 0.437499999999998  9.69587053571429 0.296874999999998  9.80189732142857 0.178125  C 9.90792410714286 0.0593749999999993  10.0334821428571 0  10.1785714285714 0  C 10.3236607142857 0  10.44921875 0.0593749999999993  10.5552455357143 0.178125  L 14.8409598214286 4.978125  Z " fill-rule="nonzero" fill="#555555" stroke="none" transform="matrix(1 0 0 1 327 29 )" />
  </g>
</svg>