<?xml version="1.0" encoding="utf-8"?>
<svg version="1.1" xmlns:xlink="http://www.w3.org/1999/xlink" width="25px" height="32px" xmlns="http://www.w3.org/2000/svg">
  <g transform="matrix(1 0 0 1 -337 -306 )">
    <path d="M 15.95093334375 8.93013334375  C 16.008 8.1216  15.9136 7.27253334375  15.61493334375 6.3488  C 15.2298666875 5.15733334375  14.5706666875 4.0512  13.7184 3.0368  C 13.2537370066552 2.48481120253967  12.7444650041318 1.97197161332146  12.19573334375 1.50346665625  C 11.9663877968913 1.30406502876129  11.7273414985717 1.11610309005443  11.47946665625 0.94026665625  C 10.8885333125 0.5349333125  10.1029333125 1.0512  10.24213334375 1.75466665625  C 10.2432 1.7616  10.248 1.7952  10.2544 1.8528  C 10.2976 2.2592  10.27573334375 2.7808  10.13653334375 3.37173334375  C 9.93173334375 4.2394666875  9.5056 5.096  8.80106665625 5.9072  C 8.6053333125 6.1328  8.3888 6.35306665625  8.15093334375 6.56746665625  C 7.9024 6.7925333125  7.62133334375 7.0256  7.28426665625 7.2896  C 6.9824 7.5264  5.58986665625 8.57066665625  5.21066665625 8.86826665625  C 1.69386665625 11.624  0 14.3488  0 18.85226665625  C 0 25.67253334375  5.528 31.2  12.3472 31.2  C 19.1664 31.2  24.6944 25.672  24.6944 18.8528  C 24.6944 15.936  23.44906665625 12.91306665625  21.3856 9.93386665625  C 20.6986936904131 8.94404540168903  19.9509415797543 7.99786646440104  19.14666665625 7.1008  C 18.9053279009589 6.83093286027685  18.6581585578094 6.56633718190111  18.40533334375 6.3072  C 18.3095077034443 6.20836906808857  18.2120724505666 6.11111162022724  18.11306665625 6.01546665625  C 17.5984 5.52586665625  16.7488 5.8992  16.76106665625 6.60906665625  C 16.76106665625 6.63306665625  16.76 6.68586665625  16.7552 6.76053334375  C 16.7458721628994 6.89705871147883  16.7298529130322 7.033044340209  16.7072 7.168  C 16.6408766362211 7.58252400612011  16.5111821948231 7.98437889058802  16.32266665625 8.35946665625  C 16.216 8.56746665625  16.0933333125 8.75786665625  15.95093334375 8.93013334375  Z M 12.49333334375 4.06613334375  C 13.2218666875 4.9328  13.7770666875 5.86453334375  14.09333334375 6.84106665625  C 14.43733334375 7.90666665625  14.4304 8.8197333125  14.21173334375 9.7072  C 14.176 9.85386665625  14.0624 10.248  14.0656 10.23466665625  C 14.02666665625 10.3813333125  14.00906665625 10.4741333125  14.01653334375 10.61173334375  C 14.0347241946267 11.0526564252961  14.3974690649252 11.4007443671573  14.8387672304502 11.4007443671573  C 14.9301229412755 11.4007443671573  15.0208410657297 11.3855326788447  15.1072 11.35573334375  C 16.33706665625 10.9450666875  17.20586665625 10.14453334375  17.7472 9.08906665625  C 17.87786665625 8.8325333125  17.98613334375 8.56906665625  18.07306665625 8.30186665625  C 18.7882269050041 9.10953356573858  19.4551611414251 9.95865037099804  20.0704 10.8448  C 21.96533334375 13.5808  23.0944 16.32213334375  23.0944 18.8528  C 23.0944 24.78826665625  18.28266665625 29.6  12.34773334375 29.6  C 6.41173334375 29.6  1.6 24.78826665625  1.6 18.8528  C 1.6 14.91253334375  3.03306665625 12.60746665625  6.19733334375 10.12746665625  C 6.55893334375 9.84426665625  7.9514666875 8.79946665625  8.27146665625 8.5488  C 8.59774248661138 8.2955822786324  8.91509080663489 8.03106605926912  9.22293334375 7.75573334375  C 9.50094145889686 7.50542650131818  9.76347044323185 7.23844484039407  10.00906665625 6.95626665625  C 11.0613333125 5.74506665625  11.6069333125 4.48746665625  11.7984 3.31093334375  C 12.03573334375 3.5466666875  12.2688 3.7984  12.49333334375 4.0656  Z " fill-rule="nonzero" fill="#ec808d" stroke="none" transform="matrix(1 0 0 1 337 306 )" />
  </g>
</svg>