<?xml version="1.0" encoding="utf-8"?>
<svg version="1.1" xmlns:xlink="http://www.w3.org/1999/xlink" width="6px" height="9px" xmlns="http://www.w3.org/2000/svg">
  <g transform="matrix(1 0 0 1 -64 -325 )">
    <path d="M 67 325  C 68.68 325  70 326.98  70 329.5  C 70 332.02  68.68 334  67 334  C 65.32 334  64 332.02  64 329.5  C 64 326.98  65.32 325  67 325  Z " fill-rule="nonzero" fill="#ffffff" stroke="none" />
    <path d="M 67 325.5  C 68.4 325.5  69.5 327.26  69.5 329.5  C 69.5 331.74  68.4 333.5  67 333.5  C 65.6 333.5  64.5 331.74  64.5 329.5  C 64.5 327.26  65.6 325.5  67 325.5  Z " stroke-width="1" stroke="#cccccc" fill="none" />
  </g>
</svg>