<?xml version="1.0" encoding="utf-8"?>
<svg version="1.1" xmlns:xlink="http://www.w3.org/1999/xlink" width="55px" height="20px" xmlns="http://www.w3.org/2000/svg">
  <defs>
    <mask fill="white" id="clip131">
      <path d="M 0 16  L 0 4  C 0 1.75999999999999  1.86153846153847 0  4.23076923076923 0  L 50.7692307692308 0  C 53.1384615384615 0  55 1.75999999999999  55 4  L 55 16  C 55 18.24  53.1384615384615 20  50.7692307692308 20  L 20.0961538461538 20  L 4.23076923076923 20  C 1.86153846153847 20  0 18.24  0 16  Z " fill-rule="evenodd" />
    </mask>
  </defs>
  <g transform="matrix(1 0 0 1 -137 -87 )">
    <path d="M 0 16  L 0 4  C 0 1.75999999999999  1.86153846153847 0  4.23076923076923 0  L 50.7692307692308 0  C 53.1384615384615 0  55 1.75999999999999  55 4  L 55 16  C 55 18.24  53.1384615384615 20  50.7692307692308 20  L 20.0961538461538 20  L 4.23076923076923 20  C 1.86153846153847 20  0 18.24  0 16  Z " fill-rule="nonzero" fill="#f6ffed" stroke="none" transform="matrix(1 0 0 1 137 87 )" />
    <path d="M 0 16  L 0 4  C 0 1.75999999999999  1.86153846153847 0  4.23076923076923 0  L 50.7692307692308 0  C 53.1384615384615 0  55 1.75999999999999  55 4  L 55 16  C 55 18.24  53.1384615384615 20  50.7692307692308 20  L 20.0961538461538 20  L 4.23076923076923 20  C 1.86153846153847 20  0 18.24  0 16  Z " stroke-width="2" stroke="#b7eb8f" fill="none" transform="matrix(1 0 0 1 137 87 )" mask="url(#clip131)" />
  </g>
</svg>