<?xml version="1.0" encoding="utf-8"?>
<svg version="1.1" xmlns:xlink="http://www.w3.org/1999/xlink" width="28px" height="33px" xmlns="http://www.w3.org/2000/svg">
  <g transform="matrix(1 0 0 1 -322 -71 )">
    <path d="M 23.3333333333333 9.42857142857143  C 23.3333333333333 11.2332589285714  22.8532986111111 12.9029017857143  21.8932291666667 14.4375  C 22.4644097222222 14.609375  23.0082465277778 14.8426339285714  23.5247395833333 15.1372767857143  C 24.0412326388889 15.4319196428571  24.58203125 15.8800223214286  25.1471354166667 16.4815848214286  C 25.7122395833333 17.0831473214286  26.1953125 17.7921316964286  26.5963541666667 18.6085379464286  C 26.9973958333333 19.4249441964286  27.3315972222222 20.4807477678571  27.5989583333333 21.7759486607143  C 27.8663194444444 23.0711495535714  28 24.5228794642857  28 26.1311383928571  C 28 28.0217633928571  27.3923611111111 29.6392299107143  26.1770833333333 30.9835379464286  C 24.9618055555556 32.3278459821429  23.4973958333333 33  21.7838541666667 33  L 6.21614583333333 33  C 4.50260416666667 33  3.03819444444445 32.3278459821429  1.82291666666667 30.9835379464286  C 0.607638888888889 29.6392299107143  0 28.0217633928571  0 26.1311383928571  C 0 24.5228794642857  0.133680555555556 23.0711495535714  0.401041666666667 21.7759486607143  C 0.668402777777778 20.4807477678571  1.00260416666667 19.4249441964286  1.40364583333333 18.6085379464286  C 1.8046875 17.7921316964286  2.28776041666667 17.0831473214286  2.85286458333333 16.4815848214286  C 3.41796875 15.8800223214286  3.95876736111111 15.4319196428571  4.47526041666667 15.1372767857143  C 4.99175347222222 14.8426339285714  5.53559027777778 14.609375  6.10677083333333 14.4375  C 5.14670138888889 12.9029017857143  4.66666666666667 11.2332589285714  4.66666666666667 9.42857142857143  C 4.66666666666667 8.15178571428571  4.91276041666667 6.93331473214286  5.40494791666667 5.77315848214286  C 5.89713541666667 4.61300223214286  6.5625 3.609375  7.40104166666667 2.76227678571428  C 8.23958333333333 1.91517857142857  9.23307291666667 1.24302455357143  10.3815104166667 0.745814732142856  C 11.5299479166667 0.248604910714284  12.7361111111111 0  14 0  C 15.2638888888889 0  16.4700520833333 0.248604910714284  17.6184895833333 0.745814732142856  C 18.7669270833333 1.24302455357143  19.7604166666667 1.91517857142857  20.5989583333333 2.76227678571428  C 21.4375 3.609375  22.1028645833333 4.61300223214286  22.5950520833333 5.77315848214286  C 23.0872395833333 6.93331473214286  23.3333333333333 8.15178571428571  23.3333333333333 9.42857142857143  Z M 18.94921875 4.42885044642857  C 17.58203125 3.04771205357143  15.9322916666667 2.35714285714286  14 2.35714285714286  C 12.0677083333333 2.35714285714286  10.41796875 3.04771205357143  9.05078125 4.42885044642857  C 7.68359375 5.80998883928572  7 7.4765625  7 9.42857142857143  C 7 11.3805803571429  7.68359375 13.0471540178571  9.05078125 14.4282924107143  C 10.41796875 15.8094308035714  12.0677083333333 16.5  14 16.5  C 15.9322916666667 16.5  17.58203125 15.8094308035714  18.94921875 14.4282924107143  C 20.31640625 13.0471540178571  21 11.3805803571429  21 9.42857142857143  C 21 7.4765625  20.31640625 5.80998883928572  18.94921875 4.42885044642857  Z M 6.21614583333333 30  L 21.7838541666667 30  C 22.8532986111111 30.6428571428571  23.7677951388889 30.2039620535714  24.52734375 29.326171875  C 25.2868923611111 28.4483816964286  25.6666666666667 27.3833705357143  25.6666666666667 26.1311383928571  C 25.6666666666667 23.1969866071429  25.1896701388889 20.8828125  24.2356770833333 19.1886160714286  C 23.2816840277778 17.4944196428571  21.9114583333333 16.6043526785714  20.125 16.5184151785714  C 18.3628472222222 18.0775669642857  16.3211805555556 18.8571428571429  14 18.8571428571429  C 11.6788194444444 18.8571428571429  9.63715277777778 18.0775669642857  7.875 16.5184151785714  C 6.08854166666667 16.6043526785714  4.71831597222222 17.4944196428571  3.76432291666667 19.1886160714286  C 2.81032986111111 20.8828125  2.33333333333333 23.1969866071429  2.33333333333333 26.1311383928571  C 2.33333333333333 27.3833705357143  2.71310763888889 28.4483816964286  3.47265625 29.326171875  C 4.23220486111111 30.2039620535714  5.14670138888889 30.6428571428571  6.21614583333333 30  Z " fill-rule="nonzero" fill="#aaaaaa" stroke="none" transform="matrix(1 0 0 1 322 71 )" />
  </g>
</svg>