<?xml version="1.0" encoding="utf-8"?>
<svg version="1.1" xmlns:xlink="http://www.w3.org/1999/xlink" width="80px" height="20px" xmlns="http://www.w3.org/2000/svg">
  <defs>
    <mask fill="white" id="clip133">
      <path d="M 0 16  L 0 4  C 0 1.75999999999999  1.75999999999999 0  4 0  L 32 0  L 76 0  C 78.24 0  80 1.75999999999999  80 4  L 80 16  C 80 18.24  78.24 20  76 20  L 4 20  C 1.75999999999999 20  0 18.24  0 16  Z " fill-rule="evenodd" />
    </mask>
  </defs>
  <g transform="matrix(1 0 0 1 -279 -428 )">
    <path d="M 0 16  L 0 4  C 0 1.75999999999999  1.75999999999999 0  4 0  L 32 0  L 76 0  C 78.24 0  80 1.75999999999999  80 4  L 80 16  C 80 18.24  78.24 20  76 20  L 4 20  C 1.75999999999999 20  0 18.24  0 16  Z " fill-rule="nonzero" fill="#7f7f7f" stroke="none" transform="matrix(1 0 0 1 279 428 )" />
    <path d="M 0 16  L 0 4  C 0 1.75999999999999  1.75999999999999 0  4 0  L 32 0  L 76 0  C 78.24 0  80 1.75999999999999  80 4  L 80 16  C 80 18.24  78.24 20  76 20  L 4 20  C 1.75999999999999 20  0 18.24  0 16  Z " stroke-width="2" stroke="#d9d9d9" fill="none" transform="matrix(1 0 0 1 279 428 )" mask="url(#clip133)" />
  </g>
</svg>