<?xml version="1.0" encoding="utf-8"?>
<svg version="1.1" xmlns:xlink="http://www.w3.org/1999/xlink" width="20px" height="20px" xmlns="http://www.w3.org/2000/svg">
  <g transform="matrix(1 0 0 1 -15 -68 )">
    <path d="M 11.3195991091314 16.8088942307692  C 11.3901262063846 16.7327724358974  11.4253897550111 16.6386217948718  11.4253897550111 16.5264423076923  L 11.4253897550111 14.2427884615385  C 11.4253897550111 14.130608974359  11.3901262063846 14.0364583333333  11.3195991091314 13.9603365384615  C 11.2490720118782 13.8842147435897  11.1655530809206 13.8461538461538  11.0690423162584 13.8461538461538  L 8.93095768374165 13.8461538461538  C 8.83444691907944 13.8461538461538  8.75092798812175 13.8842147435897  8.6804008908686 13.9603365384615  C 8.60987379361544 14.0364583333333  8.57461024498886 14.130608974359  8.57461024498886 14.2427884615385  L 8.57461024498886 16.5264423076923  C 8.57461024498886 16.6386217948718  8.60987379361544 16.7327724358974  8.6804008908686 16.8088942307692  C 8.75092798812175 16.885016025641  8.83444691907944 16.9230769230769  8.93095768374165 16.9230769230769  L 11.0690423162584 16.9230769230769  C 11.1655530809206 16.9230769230769  11.2490720118782 16.885016025641  11.3195991091314 16.8088942307692  Z M 11.2861915367483 12.2295673076923  C 11.3567186340015 12.177483974359  11.3956941351151 12.1113782051282  11.4031180400891 12.03125  L 11.6035634743875 6.51442307692308  C 11.6035634743875 6.41826923076923  11.5664439495174 6.34214743589743  11.4922048997773 6.28605769230769  C 11.3956941351151 6.19791666666667  11.3066072754269 6.15384615384615  11.2249443207127 6.15384615384615  L 8.77505567928731 6.15384615384615  C 8.69339272457313 6.15384615384615  8.60430586488493 6.19791666666667  8.50779510022272 6.28605769230769  C 8.43355605048255 6.34214743589743  8.39643652561247 6.42628205128205  8.39643652561247 6.53846153846154  L 8.58574610244989 12.03125  C 8.58574610244989 12.1113782051282  8.62286562731997 12.177483974359  8.69710467706013 12.2295673076923  C 8.7713437268003 12.2816506410256  8.86043058648849 12.3076923076923  8.96436525612472 12.3076923076923  L 11.0244988864143 12.3076923076923  C 11.1284335560505 12.3076923076923  11.2156644394952 12.2816506410256  11.2861915367483 12.2295673076923  Z M 10.7238307349666 0.216346153846154  C 10.9465478841871 0.360576923076923  11.1210096510765 0.556891025641024  11.2472160356347 0.805288461538463  L 19.7995545657016 17.7283653846154  C 20.0593912397921 18.2331730769231  20.0519673348181 18.7379807692308  19.7772828507795 19.2427884615385  C 19.6510764662212 19.4751602564103  19.4784706755754 19.6594551282051  19.2594654788419 19.7956730769231  C 19.0404602821084 19.931891025641  18.8047512991834 20  18.5523385300668 20  L 1.44766146993318 20  C 1.19524870081663 20  0.959539717891611 19.931891025641  0.740534521158129 19.7956730769231  C 0.521529324424647 19.6594551282051  0.348923533778768 19.4751602564103  0.22271714922049 19.2427884615385  C -0.0519673348181143 18.7379807692308  -0.0593912397921307 18.2331730769231  0.200445434298441 17.7283653846154  L 8.75278396436526 0.805288461538463  C 8.87899034892354 0.556891025641024  9.05345211581292 0.360576923076923  9.27616926503341 0.216346153846154  C 9.4988864142539 0.0721153846153855  9.74016332590943 0  10 0  C 10.2598366740906 0  10.5011135857461 0.0721153846153855  10.7238307349666 0.216346153846154  Z " fill-rule="nonzero" fill="#000000" stroke="none" transform="matrix(1 0 0 1 15 68 )" />
  </g>
</svg>