<?xml version="1.0" encoding="utf-8"?>
<svg version="1.1" xmlns:xlink="http://www.w3.org/1999/xlink" width="110px" height="70px" xmlns="http://www.w3.org/2000/svg">
  <g transform="matrix(1 0 0 1 -216 -393 )">
    <path d="M 226.5 462.5  L 325.5 462.5  L 325.5 403.5  L 320.5 403.5  L 320.5 398.5  L 315.5 398.5  L 315.5 393.5  L 216.5 393.5  L 216.5 452.5  L 221.5 452.5  L 221.5 457.5  L 226.5 457.5  L 226.5 462.5  Z " fill-rule="nonzero" fill="#ffffff" stroke="none" />
    <path d="M 226.5 462.5  L 325.5 462.5  L 325.5 403.5  L 320.5 403.5  L 320.5 398.5  L 315.5 398.5  L 315.5 393.5  L 216.5 393.5  L 216.5 452.5  L 221.5 452.5  L 221.5 457.5  L 226.5 457.5  L 226.5 462.5  Z " stroke-width="1" stroke="#797979" fill="none" />
    <path d="M 320.5 404  L 320.5 457.5  L 227 457.5  M 315.5 399  L 315.5 452.5  L 222 452.5  " stroke-width="1" stroke="#797979" fill="none" />
  </g>
</svg>