<?xml version="1.0" encoding="utf-8"?>
<svg version="1.1" xmlns:xlink="http://www.w3.org/1999/xlink" width="46px" height="50px" xmlns="http://www.w3.org/2000/svg">
  <g transform="matrix(1 0 0 1 -26 -192 )">
    <path d="M 36.2692307692308 26.2555803571429  C 36.2692307692308 26.4973958333333  36.1862980769231 26.7113095238095  36.0204326923077 26.8973214285714  L 21.8665865384615 41.1830357142857  C 21.6822916666667 41.3504464285714  21.4703525641026 41.4341517857143  21.2307692307692 41.4341517857143  C 20.9911858974359 41.4341517857143  20.7792467948718 41.3504464285714  20.5949519230769 41.1830357142857  L 12.6334134615385 33.1473214285714  C 12.4675480769231 32.9613095238095  12.3846153846154 32.7473958333333  12.3846153846154 32.5055803571429  C 12.3846153846154 32.2637648809524  12.4675480769231 32.0591517857143  12.6334134615385 31.8917410714286  L 13.9050480769231 30.6082589285714  C 14.0709134615385 30.4408482142857  14.2736378205128 30.3571428571429  14.5132211538462 30.3571428571429  C 14.7528044871795 30.3571428571429  14.9647435897436 30.4408482142857  15.1490384615385 30.6082589285714  L 21.2307692307692 36.7466517857143  L 33.5048076923077 24.3582589285714  C 33.6891025641026 24.1908482142857  33.9010416666667 24.1071428571429  34.140625 24.1071428571429  C 34.3802083333333 24.1071428571429  34.5829326923077 24.1908482142857  34.7487980769231 24.3582589285714  L 36.0204326923077 25.6417410714286  C 36.1862980769231 25.8091517857143  36.2692307692308 26.0137648809524  36.2692307692308 26.2555803571429  Z M 4 18  L 4 46  L 42 46  L 42 18  L 4 18  Z M 13.9050480769231 13.1417410714286  C 14.0709134615385 12.9743303571429  14.1538461538462 12.7604166666667  14.1538461538462 12.5  L 14.1538461538462 4.46428571428572  C 14.1538461538462 4.20386904761904  14.0709134615385 3.98995535714286  13.9050480769231 3.82254464285715  C 13.7391826923077 3.65513392857143  13.5272435897436 3.57142857142857  13.2692307692308 3.57142857142857  L 11.5 3.57142857142857  C 11.2419871794872 3.57142857142857  11.0300480769231 3.65513392857143  10.8641826923077 3.82254464285715  C 10.6983173076923 3.98995535714286  10.6153846153846 4.20386904761904  10.6153846153846 4.46428571428572  L 10.6153846153846 12.5  C 10.6153846153846 12.7604166666667  10.6983173076923 12.9743303571429  10.8641826923077 13.1417410714286  C 11.0300480769231 13.3091517857143  11.2419871794872 13.3928571428571  11.5 13.3928571428571  L 13.2692307692308 13.3928571428571  C 13.5272435897436 13.3928571428571  13.7391826923077 13.3091517857143  13.9050480769231 13.1417410714286  Z M 35.1358173076923 13.1417410714286  C 35.3016826923077 12.9743303571429  35.3846153846154 12.7604166666667  35.3846153846154 12.5  L 35.3846153846154 4.46428571428572  C 35.3846153846154 4.20386904761904  35.3016826923077 3.98995535714286  35.1358173076923 3.82254464285715  C 34.9699519230769 3.65513392857143  34.7580128205128 3.57142857142857  34.5 3.57142857142857  L 32.7307692307692 3.57142857142857  C 32.4727564102564 3.57142857142857  32.2608173076923 3.65513392857143  32.0949519230769 3.82254464285715  C 31.9290865384615 3.98995535714286  31.8461538461538 4.20386904761904  31.8461538461538 4.46428571428572  L 31.8461538461538 12.5  C 31.8461538461538 12.7604166666667  31.9290865384615 12.9743303571429  32.0949519230769 13.1417410714286  C 32.2608173076923 13.3091517857143  32.4727564102564 13.3928571428571  32.7307692307692 13.3928571428571  L 34.5 13.3928571428571  C 34.7580128205128 13.3928571428571  34.9699519230769 13.3091517857143  35.1358173076923 13.1417410714286  Z M 44.9495192307692 8.203125  C 45.6498397435897 8.90997023809524  46 9.74702380952381  46 10.7142857142857  L 46 46.4285714285714  C 46 47.3958333333333  45.6498397435897 48.2328869047619  44.9495192307692 48.9397321428571  C 44.2491987179487 49.6465773809524  43.4198717948718 50  42.4615384615385 50  L 3.53846153846154 50  C 2.58012820512821 50  1.75080128205128 49.6465773809524  1.05048076923077 48.9397321428571  C 0.350160256410256 48.2328869047619  0 47.3958333333333  0 46.4285714285714  L 0 10.7142857142857  C 0 9.74702380952381  0.350160256410256 8.90997023809524  1.05048076923077 8.203125  C 1.75080128205128 7.49627976190476  2.58012820512821 7.14285714285715  3.53846153846154 7.14285714285715  L 7.07692307692308 7.14285714285715  L 7.07692307692308 4.46428571428572  C 7.07692307692308 3.23660714285715  7.51001602564103 2.18563988095238  8.37620192307692 1.31138392857143  C 9.24238782051282 0.437127976190477  10.2836538461538 0  11.5 0  L 13.2692307692308 0  C 14.4855769230769 0  15.526842948718 0.437127976190477  16.3930288461538 1.31138392857143  C 17.2592147435897 2.18563988095238  17.6923076923077 3.23660714285715  17.6923076923077 4.46428571428572  L 17.6923076923077 8  L 28.3076923076923 8  L 28.3076923076923 4.46428571428572  C 28.3076923076923 3.23660714285715  28.7407852564103 2.18563988095238  29.6069711538462 1.31138392857143  C 30.4731570512821 0.437127976190477  31.5144230769231 0  32.7307692307692 0  L 34.5 0  C 35.7163461538462 0  36.7576121794872 0.437127976190477  37.6237980769231 1.31138392857143  C 38.489983974359 2.18563988095238  38.9230769230769 3.23660714285715  38.9230769230769 4.46428571428572  L 38.9230769230769 7.14285714285715  L 42.4615384615385 7.14285714285715  C 43.4198717948718 7.14285714285715  44.2491987179487 7.49627976190476  44.9495192307692 8.203125  Z " fill-rule="nonzero" fill="#aaaaaa" stroke="none" transform="matrix(1 0 0 1 26 192 )" />
  </g>
</svg>