<?xml version="1.0" encoding="utf-8"?>
<svg version="1.1" xmlns:xlink="http://www.w3.org/1999/xlink" width="15px" height="18px" xmlns="http://www.w3.org/2000/svg">
  <g transform="matrix(1 0 0 1 -15 -33 )">
    <path d="M 14.7422680412371 1.08216432865731  C 14.914089347079 1.20240480961924  15 1.34068136272545  15 1.49699398797595  C 15 1.65330661322645  14.914089347079 1.79158316633266  14.7422680412371 1.91182364729459  L 4.61340206185567 9  L 14.7422680412371 16.0881763527054  C 14.914089347079 16.2084168336673  15 16.3466933867735  15 16.503006012024  C 15 16.6593186372745  14.914089347079 16.7975951903808  14.7422680412371 16.9178356713427  L 13.4536082474227 17.8196392785571  C 13.2817869415808 17.939879759519  13.0841924398625 18  12.860824742268 18  C 12.6374570446735 18  12.4398625429553 17.939879759519  12.2680412371134 17.8196392785571  L 0.257731958762887 9.41482965931864  C 0.0859106529209623 9.29458917835671  0 9.1563126252505  0 9  C 0 8.8436873747495  0.0859106529209623 8.70541082164329  0.257731958762887 8.58517034068136  L 12.2680412371134 0.180360721442886  C 12.4398625429553 0.0601202404809613  12.6374570446735 0  12.860824742268 0  C 13.0841924398625 0  13.2817869415808 0.0601202404809613  13.4536082474227 0.180360721442886  L 14.7422680412371 1.08216432865731  Z " fill-rule="nonzero" fill="#f2f2f2" stroke="none" transform="matrix(1 0 0 1 15 33 )" />
  </g>
</svg>