<?xml version="1.0" encoding="utf-8"?>
<svg version="1.1" xmlns:xlink="http://www.w3.org/1999/xlink" width="24px" height="23px" xmlns="http://www.w3.org/2000/svg">
  <g transform="matrix(1 0 0 1 -341 -131 )">
    <path d="M 23.2469443909091 10.7119667040094  C 23.8196161090909 10.1501603502358  24.0141133363636 9.33644153301887  23.7515131909091 8.58531729716981  C 23.4899541545455 7.84753379363208  22.8311426454545 7.31651245165094  22.0320099272727 7.1995304375  L 16.3952589272727 6.37811399764151  L 13.9473040909091 1.39934785495283  C 13.5933967636364 0.678493680424529  12.8288278636364 0.212630985849057  11.9992521545455 0.212630985849057  C 11.1717477545455 0.212630985849057  10.4082090545455 0.678493680424529  10.0532660727273 1.39934785495283  L 7.60427558181818 6.37862897523585  L 1.96804240909091 7.20106994575472  C 1.16839183636364 7.31548246933962  0.509067954545455 7.84598883372642  0.247508918181819 8.58788133608491  C -0.0135377181818176 9.33695648349056  0.180959481818182 10.1506753007075  0.754639636363637 10.7114516992925  L 4.8916602 14.7595224351415  L 3.9320817 20.3688476273585  C 3.79742934545455 21.150756875  4.14721039090909 21.952674495283  4.82562316363636 22.4128886556604  C 5.48907335454545 22.8566884646226  6.37848850909091 22.9054273632075  7.09301315454545 22.5319197582547  L 12.0002769272727 19.9414621698113  L 16.9106367818182 22.5324293113208  C 17.2284322363636 22.699174754717  17.5849232454545 22.7874262429245  17.9424390272727 22.7874262429245  C 18.3830203090909 22.7874262429245  18.8096746909091 22.6581334787736  19.1785391454545 22.411354571934  C 19.8538558363636 21.9531840754717  20.2031190272727 21.151781432783  20.0684721272727 20.3698721851415  L 19.109406 14.7600374398585  L 23.2469443909091 10.7119667040094  Z M 22.7785201090909 8.92394716509434  C 22.9069857818182 9.29487985495283  22.8089631545455 9.69917789622641  22.5221230909091 9.97982088561321  L 18.0007522090909 14.4039687169811  L 19.0500952909091 20.5422607382075  C 19.1181927545455 20.9362916933962  18.9438200727273 21.3272490294811  18.5986777090909 21.5617171863208  C 18.2452827545455 21.7977302759434  17.7685896 21.8228667806604  17.3924973272727 21.625851303066  L 11.9997699545455 18.7798872299528  L 6.61065103636364 21.6248213478774  C 6.23043245454546 21.8238913384434  5.75322147272728 21.7972099009434  5.40447065454546 21.5632567216981  C 5.05571983636364 21.3267340518868  4.88134715454546 20.9352671627359  4.94944461818182 20.5412362075472  L 5.99930552727273 14.4039741686321  L 1.47845247272727 9.97982633726415  C 1.19161240909091 9.69969292806604  1.09358978181818 9.29488530660377  1.22204994545455 8.92599625353774  C 1.35566661818182 8.54837962264151  1.6977129 8.27645881367924  2.11713943636364 8.21642827122641  L 8.29300674545455 7.31497836792453  L 10.9808589272727 1.84982618042453  C 11.1634896545455 1.47836766391509  11.5638273 1.23825639740566  12.0002823 1.23825639740566  C 12.4382853272727 1.23825639740566  12.838623 1.47785811084906  13.0212537272727 1.84931662735849  L 15.7085880818182 7.31446881485849  L 21.8829127909091 8.21386962971698  C 22.3018269545455 8.27543968042453  22.6454158090909 8.54838504716981  22.7785201090909 8.92394716509434  Z M 12.4465434 7.87318524882075  C 12.4465488818182 7.58997279599057  12.2159397818182 7.35960824056604  11.9311601181818 7.35960824056604  C 10.8745946454545 7.35960824056604  10.0233517909091 7.68027337264151  9.40220566363636 8.31185152830189  C 8.36524145454545 9.36619658962264  8.3874264 10.8976905377358  8.38897445454545 10.9628492122641  C 8.39516661818181 11.2419580908019  8.62474006363636 11.4636004929245  8.90436319090909 11.4636004929245  C 8.90745927272727 11.4636004929245  8.91106772727272 11.4636004929245  8.91416380909091 11.4636004929245  C 9.19842561818182 11.4584723608491  9.42439060909091 11.2245137841981  9.4202643 10.9418162818396  C 9.4202643 10.9300150849057  9.41097605454545 9.76485152122642  10.1445895636364 9.02449852712264  C 10.5640161 8.60070709080189  11.1655609909091 8.38624730660377  11.9306422636364 8.38624730660377  C 12.2154219 8.38624730660377  12.4465434 8.15639772877359  12.4465434 7.87318524882075  Z " fill-rule="nonzero" fill="#333333" stroke="none" transform="matrix(1 0 0 1 341 131 )" />
  </g>
</svg>