<?xml version="1.0" encoding="utf-8"?>
<svg version="1.1" xmlns:xlink="http://www.w3.org/1999/xlink" width="18px" height="18px" xmlns="http://www.w3.org/2000/svg">
  <g transform="matrix(1 0 0 1 -20 -554 )">
    <path d="M 16.6270069227273 7.214931421875  L 11.76076035 7.214931421875  C 13.6463741181818 0.375248732142858  10.4615568409091 0.025915299107143  10.4615568409091 0.025915299107143  C 9.111699675 0.025915299107143  9.39152974090909 1.07422396875  9.28944797727273 1.24898319642857  C 9.28944797727273 4.5938925  5.67206521363636 7.214931421875  5.67206521363636 7.214931421875  L 5.67206521363636 16.7005276071429  C 5.67206521363636 17.6368390714286  6.97126872272727 17.9740641495536  7.48092403636364 17.9740641495536  L 14.7924444886364 17.9740641495536  C 15.4805597590909 17.9740641495536  16.0409106204545 16.2017000959821  16.0409106204545 16.2017000959821  C 17.8497903886364 10.1607375736607  17.8497903886364 8.36331394419643  17.8497903886364 8.36331394419643  C 17.8498113136364 7.11520704241071  16.6270069227273 7.214931421875  16.6270069227273 7.214931421875  Z M 3.675097125 7.21807672098214  L 0.761214109090909 7.21807672098214  C 0.159440297727273 7.21807672098214  0.150167740909091 7.79857913169643  0.150167740909091 7.79857913169643  L 0.751941552272727 17.3651512901786  C 0.751941552272727 17.9740435982143  1.37297213181818 17.9740435982143  1.37297213181818 17.9740435982143  L 3.89495910681818 17.9740435982143  C 4.42035474545455 17.9740435982143  4.41570800454546 17.5712606919643  4.41570800454546 17.5712606919643  L 4.41570800454545 7.94352999776786  C 4.41570800454545 7.20878472321429  3.675097125 7.21807672098214  3.675097125 7.21807672098214  Z " fill-rule="nonzero" fill="#d9001b" stroke="none" transform="matrix(1 0 0 1 20 554 )" />
  </g>
</svg>