<?xml version="1.0" encoding="utf-8"?>
<svg version="1.1" xmlns:xlink="http://www.w3.org/1999/xlink" width="15px" height="15px" xmlns="http://www.w3.org/2000/svg">
  <g transform="matrix(1 0 0 1 -170 -66 )">
    <path d="M 2.74553571428571 11.5056818181818  C 3.05803571428571 11.9034090909091  3.21428571428571 12.3863636363636  3.21428571428571 12.9545454545455  C 3.21428571428571 13.5227272727273  3.05803571428571 14.0056818181818  2.74553571428571 14.4034090909091  C 2.43303571428571 14.8011363636364  2.05357142857143 15  1.60714285714286 15  C 1.16071428571429 15  0.78125 14.8011363636364  0.46875 14.4034090909091  C 0.15625 14.0056818181818  0 13.5227272727273  0 12.9545454545455  C 0 12.3863636363636  0.15625 11.9034090909091  0.46875 11.5056818181818  C 0.78125 11.1079545454545  1.16071428571429 10.9090909090909  1.60714285714286 10.9090909090909  C 2.05357142857143 10.9090909090909  2.43303571428571 11.1079545454545  2.74553571428571 11.5056818181818  Z M 2.74553571428571 6.05113636363636  C 3.05803571428571 6.44886363636363  3.21428571428571 6.93181818181818  3.21428571428571 7.5  C 3.21428571428571 8.06818181818182  3.05803571428571 8.55113636363636  2.74553571428571 8.94886363636364  C 2.43303571428571 9.34659090909091  2.05357142857143 9.54545454545455  1.60714285714286 9.54545454545455  C 1.16071428571429 9.54545454545455  0.78125 9.34659090909091  0.46875 8.94886363636364  C 0.15625 8.55113636363636  0 8.06818181818182  0 7.5  C 0 6.93181818181818  0.15625 6.44886363636363  0.46875 6.05113636363636  C 0.78125 5.65340909090909  1.16071428571429 5.45454545454546  1.60714285714286 5.45454545454546  C 2.05357142857143 5.45454545454546  2.43303571428571 5.65340909090909  2.74553571428571 6.05113636363636  Z M 14.9204799107143 11.6921164772727  C 14.9734933035714 11.7595880681818  15 11.8394886363636  15 11.9318181818182  L 15 13.9772727272727  C 15 14.0696022727273  14.9734933035714 14.1495028409091  14.9204799107143 14.2169744318182  C 14.8674665178571 14.2844460227273  14.8046875 14.3181818181818  14.7321428571429 14.3181818181818  L 4.55357142857143 14.3181818181818  C 4.48102678571429 14.3181818181818  4.41824776785714 14.2844460227273  4.365234375 14.2169744318182  C 4.31222098214286 14.1495028409091  4.28571428571429 14.0696022727273  4.28571428571429 13.9772727272727  L 4.28571428571429 11.9318181818182  C 4.28571428571429 11.8394886363636  4.31222098214286 11.7595880681818  4.365234375 11.6921164772727  C 4.41824776785714 11.6246448863636  4.48102678571429 11.5909090909091  4.55357142857143 11.5909090909091  L 14.7321428571429 11.5909090909091  C 14.8046875 11.5909090909091  14.8674665178571 11.6246448863636  14.9204799107143 11.6921164772727  Z M 2.74553571428571 0.596590909090909  C 3.05803571428571 0.994318181818182  3.21428571428571 1.47727272727273  3.21428571428571 2.04545454545455  C 3.21428571428571 2.61363636363636  3.05803571428571 3.09659090909091  2.74553571428571 3.49431818181818  C 2.43303571428571 3.89204545454545  2.05357142857143 4.09090909090909  1.60714285714286 4.09090909090909  C 1.16071428571429 4.09090909090909  0.78125 3.89204545454545  0.46875 3.49431818181818  C 0.15625 3.09659090909091  0 2.61363636363636  0 2.04545454545455  C 0 1.47727272727273  0.15625 0.994318181818182  0.46875 0.596590909090909  C 0.78125 0.198863636363635  1.16071428571429 0  1.60714285714286 0  C 2.05357142857143 0  2.43303571428571 0.198863636363635  2.74553571428571 0.596590909090909  Z M 14.9204799107143 6.23757102272727  C 14.9734933035714 6.30504261363636  15 6.38494318181818  15 6.47727272727273  L 15 8.52272727272727  C 15 8.61505681818182  14.9734933035714 8.69495738636363  14.9204799107143 8.76242897727273  C 14.8674665178571 8.82990056818182  14.8046875 8.86363636363636  14.7321428571429 8.86363636363636  L 4.55357142857143 8.86363636363636  C 4.48102678571429 8.86363636363636  4.41824776785714 8.82990056818182  4.365234375 8.76242897727273  C 4.31222098214286 8.69495738636363  4.28571428571429 8.61505681818182  4.28571428571429 8.52272727272727  L 4.28571428571429 6.47727272727273  C 4.28571428571429 6.38494318181818  4.31222098214286 6.30504261363636  4.365234375 6.23757102272727  C 4.41824776785714 6.17009943181818  4.48102678571429 6.13636363636364  4.55357142857143 6.13636363636364  L 14.7321428571429 6.13636363636364  C 14.8046875 6.13636363636364  14.8674665178571 6.17009943181818  14.9204799107143 6.23757102272727  Z M 14.9204799107143 0.783025568181819  C 14.9734933035714 0.850497159090908  15 0.930397727272727  15 1.02272727272727  L 15 3.06818181818182  C 15 3.16051136363636  14.9734933035714 3.24041193181818  14.9204799107143 3.30788352272727  C 14.8674665178571 3.37535511363636  14.8046875 3.40909090909091  14.7321428571429 3.40909090909091  L 4.55357142857143 3.40909090909091  C 4.48102678571429 3.40909090909091  4.41824776785714 3.37535511363636  4.365234375 3.30788352272727  C 4.31222098214286 3.24041193181818  4.28571428571429 3.16051136363636  4.28571428571429 3.06818181818182  L 4.28571428571429 1.02272727272727  C 4.28571428571429 0.930397727272727  4.31222098214286 0.850497159090908  4.365234375 0.783025568181819  C 4.41824776785714 0.715553977272726  4.48102678571429 0.681818181818181  4.55357142857143 0.681818181818181  L 14.7321428571429 0.681818181818181  C 14.8046875 0.681818181818181  14.8674665178571 0.715553977272726  14.9204799107143 0.783025568181819  Z " fill-rule="nonzero" fill="#aaaaaa" stroke="none" transform="matrix(1 0 0 1 170 66 )" />
  </g>
</svg>