<?xml version="1.0" encoding="utf-8"?>
<svg version="1.1" xmlns:xlink="http://www.w3.org/1999/xlink" width="30px" height="20px" xmlns="http://www.w3.org/2000/svg">
  <g transform="matrix(1 0 0 1 -323 -434 )">
    <path d="M 323 434  L 353 434  L 353 454  L 323 454  L 323 434  " fill-rule="nonzero" fill="#cccccc" stroke="none" />
    <path d="M 324 435  L 352 435  L 352 453  L 324 453  L 324 435  " fill-rule="nonzero" fill="#ffffff" stroke="none" />
    <path d="M 340.1 440  C 339.26 440  338.6 439.34  338.6 438.5  C 338.6 437.66  339.26 437  340.1 437  C 340.94 437  341.6 437.66  341.6 438.5  C 341.6 439.34  340.94 440  340.1 440  " fill-rule="nonzero" fill="#cccccc" stroke="none" />
    <path d="M 325 453  L 325 443.65  L 331.75 439.4  L 341.2 446.2  L 346.6 441.95  L 352 446.2  L 352 453  L 325 453  " fill-rule="nonzero" fill="#169bd5" stroke="none" />
  </g>
</svg>