<?xml version="1.0" encoding="utf-8"?>
<svg version="1.1" xmlns:xlink="http://www.w3.org/1999/xlink" width="19px" height="18px" xmlns="http://www.w3.org/2000/svg">
  <g transform="matrix(1 0 0 1 -65 -250 )">
    <path d="M 16.8619925721154 13.593112425  L 14.9037596274038 13.593112425  C 14.6324715528846 13.593112425  14.4126415300481 13.375808235  14.4126415300481 13.1106823875  C 14.4126415300481 12.8433922425  14.6324481911058 12.6260880525  14.9037596274038 12.6260880525  L 16.8619925721154 12.6260880525  C 17.4023954134615 12.6260880525  17.8434809615385 12.19258485  17.8434809615385 11.6590637025  L 17.8434809615385 1.988820135  C 17.8434809615385 1.4552989875  17.4023954134615 1.021795785  16.8619925721154 1  L 2.13966661658654 1  C 1.59816545192308 1.021795785  1.15817822716346 1.4552989875  1.15817822716346 1.988820135  L 1.15817822716346 11.6590637025  C 1.15817822716346 12.19258485  1.59816545192308 12.6260880525  2.13966661658654 12.6260880525  L 10.4801213257212 12.6260880525  C 10.6101217920673 12.6260880525  10.7353550396635 12.6782613225  10.8266334603365 12.767826195  L 15.244803484375 17.1194357925  C 15.4364975216346 17.30901861  15.4364975216346 17.6151739275  15.244803484375 17.8029838575  C 15.1502300709135 17.89759107  15.0238985 17.9458041375  14.8990157704327 17.9458041375  C 14.7730347175481 17.9458041375  14.6467031466346 17.89759107  14.5521297331731 17.8029838575  L 10.2771168076923 13.593112425  L 2.13966661658654 13.593112425  C 1.05593984375 13.593112425  0.175591491586538 12.72610602  0.175591491586538 11.6590637025  L 0.175591491586538 1.988820135  C 0.175591491586538 0.922859977499999  1.05593984375 0.0547714124999994  2.13966661658654 0  L 16.8619925721154 0  C 17.9449949014423 0.0547714124999994  18.8249693737981 0.922859977499999  18.8249693737981 1.988820135  L 18.8249693737981 11.6590637025  C 18.8249693737981 12.72610602  17.9449949014423 13.593112425  16.8619925721154 13.593112425  Z M 5.08413180769231 7.79096628  C 4.541532296875 7.79096628  4.10264341826923 7.358545215  4.10264341826923 6.82394193  C 4.10264341826923 6.289338645  4.54153231971154 5.85691758  5.08413180769231 5.85691758  C 5.62563297235577 5.85691758  6.06562019711538 6.289338645  6.06562019711538 6.82394193  C 6.06562019711538 7.358545215  5.62563297235577 7.79096628  5.08413180769231 7.79096628  Z M 9.50010516225961 7.79096628  C 8.95787955408654 7.79096628  8.51861677283654 7.358545215  8.51861677283654 6.82394193  C 8.51861677283654 6.289338645  8.95787957692308 5.85691758  9.50010516225961 5.85691758  C 10.0427046730769 5.85691758  10.4815935516827 6.289338645  10.4815935516827 6.82394193  C 10.4815935516827 7.358545215  10.0426812884615 7.79096628  9.50010516225961 7.79096628  Z M 13.9175273810096 7.79096628  C 13.3749278701923 7.79096628  12.9360389915865 7.358545215  12.9360389915865 6.82394193  C 12.9360389915865 6.289338645  13.3749278930288 5.85691758  13.9175273810096 5.85691758  C 14.4590285456731 5.85691758  14.8990157704327 6.289338645  14.8990157704327 6.82394193  C 14.8990157704327 7.358545215  14.4590285456731 7.79096628  13.9175273810096 7.79096628  Z " fill-rule="nonzero" fill="#8080ff" stroke="none" transform="matrix(1 0 0 1 65 250 )" />
  </g>
</svg>