<?xml version="1.0" encoding="utf-8"?>
<svg version="1.1" xmlns:xlink="http://www.w3.org/1999/xlink" width="51px" height="20px" xmlns="http://www.w3.org/2000/svg">
  <defs>
    <mask fill="white" id="clip132">
      <path d="M 0 16  L 0 4  C 0 1.75999999999999  1.72615384615385 0  3.92307692307692 0  L 47.0769230769231 0  C 49.2738461538462 0  51 1.75999999999999  51 4  L 51 16  C 51 18.24  49.2738461538462 20  47.0769230769231 20  L 18.6346153846154 20  L 3.92307692307692 20  C 1.72615384615385 20  0 18.24  0 16  Z " fill-rule="evenodd" />
    </mask>
  </defs>
  <g transform="matrix(1 0 0 1 -123 -281 )">
    <path d="M 0 16  L 0 4  C 0 1.75999999999999  1.72615384615385 0  3.92307692307692 0  L 47.0769230769231 0  C 49.2738461538462 0  51 1.75999999999999  51 4  L 51 16  C 51 18.24  49.2738461538462 20  47.0769230769231 20  L 18.6346153846154 20  L 3.92307692307692 20  C 1.72615384615385 20  0 18.24  0 16  Z " fill-rule="nonzero" fill="#f6ffed" stroke="none" transform="matrix(1 0 0 1 123 281 )" />
    <path d="M 0 16  L 0 4  C 0 1.75999999999999  1.72615384615385 0  3.92307692307692 0  L 47.0769230769231 0  C 49.2738461538462 0  51 1.75999999999999  51 4  L 51 16  C 51 18.24  49.2738461538462 20  47.0769230769231 20  L 18.6346153846154 20  L 3.92307692307692 20  C 1.72615384615385 20  0 18.24  0 16  Z " stroke-width="2" stroke="#b7eb8f" fill="none" transform="matrix(1 0 0 1 123 281 )" mask="url(#clip132)" />
  </g>
</svg>