<?xml version="1.0" encoding="utf-8"?>
<svg version="1.1" xmlns:xlink="http://www.w3.org/1999/xlink" width="40px" height="40px" xmlns="http://www.w3.org/2000/svg">
  <defs>
    <filter x="332px" y="159px" width="40px" height="40px" filterUnits="userSpaceOnUse" id="filter60">
      <feOffset dx="1" dy="1" in="SourceAlpha" result="shadowOffsetInner" />
      <feGaussianBlur stdDeviation="2.5" in="shadowOffsetInner" result="shadowGaussian" />
      <feComposite in2="shadowGaussian" operator="atop" in="SourceAlpha" result="shadowComposite" />
      <feColorMatrix type="matrix" values="0 0 0 0 0  0 0 0 0 0  0 0 0 0 0  0 0 0 0.698039215686274 0  " in="shadowComposite" />
    </filter>
    <g id="widget61">
      <path d="M 351 163  C 359.4 163  366 169.6  366 178  C 366 186.4  359.4 193  351 193  C 342.6 193  336 186.4  336 178  C 336 169.6  342.6 163  351 163  Z " fill-rule="nonzero" fill="#009dd9" stroke="none" />
      <path d="M 351 163.5  C 359.12 163.5  365.5 169.88  365.5 178  C 365.5 186.12  359.12 192.5  351 192.5  C 342.88 192.5  336.5 186.12  336.5 178  C 336.5 169.88  342.88 163.5  351 163.5  Z " stroke-width="1" stroke="#ffffff" fill="none" />
    </g>
  </defs>
  <g transform="matrix(1 0 0 1 -332 -159 )">
    <use xlink:href="#widget61" filter="url(#filter60)" />
    <use xlink:href="#widget61" />
  </g>
</svg>