<?xml version="1.0" encoding="utf-8"?>
<svg version="1.1" xmlns:xlink="http://www.w3.org/1999/xlink" width="42px" height="42px" xmlns="http://www.w3.org/2000/svg">
  <g transform="matrix(1 0 0 1 -10 -92 )">
    <path d="M 31 93  C 42.2 93  51 101.8  51 113  C 51 124.2  42.2 133  31 133  C 19.8 133  11 124.2  11 113  C 11 101.8  19.8 93  31 93  Z " fill-rule="nonzero" fill="#ffffff" stroke="none" fill-opacity="0" />
    <path d="M 31 93  C 42.2 93  51 101.8  51 113  C 51 124.2  42.2 133  31 133  C 19.8 133  11 124.2  11 113  C 11 101.8  19.8 93  31 93  Z " stroke-width="2" stroke="#666666" fill="none" />
  </g>
</svg>