<?xml version="1.0" encoding="utf-8"?>
<svg version="1.1" xmlns:xlink="http://www.w3.org/1999/xlink" width="60px" height="26px" xmlns="http://www.w3.org/2000/svg">
  <g transform="matrix(1 0 0 1 -272 -92 )">
    <path d="M 282.4 92  C 282.4 92  279.8 92.5633333333333  279.8 92.5633333333333  C 279.8 92.5633333333333  272 105  272 105  C 272 105  279.8 117.436666666667  279.8 117.436666666667  C 279.8 117.436666666667  282.4 118  282.4 118  C 282.4 118  328 118  328 118  C 330.24 118  332 116.24  332 114  C 332 114  332 96  332 96  C 332 93.76  330.24 92  328 92  C 328 92  282.4 92  282.4 92  Z " fill-rule="nonzero" fill="#333333" stroke="none" />
  </g>
</svg>