<?xml version="1.0" encoding="utf-8"?>
<svg version="1.1" xmlns:xlink="http://www.w3.org/1999/xlink" width="18px" height="19px" xmlns="http://www.w3.org/2000/svg">
  <defs>
    <mask fill="white" id="clip130">
      <path d="M 17.8277916272727 11.162649282839  C 17.9514535295455 10.7428162256356  17.9764663909091 10.293530592161  17.9001928636364 9.86362600529661  C 17.8202982272727 9.41335176800848  17.6372334 8.99823523940678  17.3562312068182 8.62989270550847  C 17.0752917886364 8.26165314194915  16.7210720181818 7.97307971292373  16.3034305363636 7.77222552012712  C 15.9051504681818 7.58066021398305  15.4598378318182 7.47940927436441  15.0157182886364 7.47940927436441  L 12.1027143886364 7.47940927436441  C 12.5582833227273 5.96468195550847  12.7714891704545 4.64108741101695  12.7366595590909 3.54238284427966  C 12.7069581068182 2.60607934851695  12.4981896681818 1.82733683474576  12.1161941181818 1.2278842786017  C 11.474316 0.220626852754237  10.5745647272727 0.0747439470338983  10.5365535545455 0.0690181843220339  L 10.5226552022727 0.066917376059322  L 10.5086312590909 0.066917376059322  C 9.92766311590909 0.066917376059322  9.52410837272727 0.228371023305085  9.30916521818182 0.546767770127119  C 9.12769116136363 0.815589451271187  9.12421656818182 1.13124687711864  9.12189319772727 1.34013360169492  C 9.12124433863636 1.39893576377119  9.12061638409091 1.45450432309322  9.11588592272727 1.48747886334746  L 9.11402304545454 1.50018672351695  L 9.11402304545454 1.51303875423729  C 9.11402304545454 4.30089989830508  6.16790589545454 6.61226785169492  4.89643631590909 7.47940927436441  L 0.926905990909091 7.47940927436441  C 0.446993979545454 7.47940927436441  0.0566050090909092 7.86356969067797  0.0566050090909092 8.3357788845339  L 0.0566050090909092 18.0766511832627  C 0.0566050090909092 18.5488809872881  0.446994 18.9330414036017  0.926905990909091 18.9330414036017  L 13.8184081772727 18.9330414237288  C 14.1578923295455 18.9330414237288  14.481301275 18.8268885847458  14.7538263272727 18.6259520116525  C 15.0239233431818 18.4262306133475  15.2165537590909 18.1525688230932  15.3113095840909 17.8342132764831  L 17.8235425840909 11.1753571430085  L 17.8277916272727 11.162649282839  Z M 0.926905990909091 18.1915986271186  C 0.863588925 18.1915986271186  0.810130479545455 18.1389341292373  0.810130479545455 18.0766717934322  L 0.810130479545455 8.33579949470339  C 0.810130479545455 8.27351656885593  0.86360985 8.22089327118644  0.926905990909091 8.22089327118644  L 4.14799715454545 8.22089327118644  L 4.14799715454545 18.1915986271186  L 0.926905990909091 18.1915986271186  Z M 17.1579284386364 9.99115772881356  C 17.2134381272727 10.3042406144068  17.1966512454545 10.6311229947034  17.1094097454545 10.937821095339  L 14.6049213272727 17.5761840180085  C 14.5987466113636 17.5925579925847  14.5931370340909 17.6091585381356  14.5881553909091 17.6258826641949  C 14.5387785477273 17.7918674894068  14.4422435454545 17.9288528400424  14.3013133636364 18.0331108315678  C 14.1583528431818 18.1382338665254  13.9958843727273 18.1915780370763  13.8184291227273 18.1915780370763  L 4.9015017 18.1915780169492  L 4.9015017 8.22070790042373  C 5.05312776818182 8.21969868644068  5.20100713636364 8.17389272563559  5.32569467045454 8.08883038983051  C 6.68647795909091 7.16076538665254  9.84508928181818 4.66996330508475  9.86742294545455 1.54632220550848  C 9.87391163863636 1.48113521822034  9.87462329318182 1.41629836228814  9.87537681818182 1.34816611334746  C 9.87680014772727 1.21941923516949  9.87876769090909 1.0430745190678  9.93685193181818 0.95708536970339  C 9.99466408636364 0.871466941737289  10.1894713568182 0.816145543432204  10.4518028659091 0.809184015889831  C 10.5913515886364 0.845144997881357  11.0888458568182 1.01137696398305  11.4778324636364 1.6218072934322  C 11.7878872704545 2.1083926440678  11.9580165613636 2.76236334533898  11.9835108409091 3.56551238559322  C 12.0158077704545 4.58446845762712  11.8128163909091 5.83051826588983  11.3801671840909 7.26901903389831  C 11.3127266454545 7.49329110911017  11.3567660386364 7.73574964618644  11.4990149045455 7.92313392584746  C 11.6412846954545 8.11051820550848  11.8650189681818 8.22089327118644  12.1027562590909 8.22089327118644  L 15.0157601590909 8.22089327118644  C 15.3458671090909 8.22089327118644  15.6767485090909 8.29609001800848  15.9726119318182 8.43840979978814  C 16.2821853204545 8.58729977754238  16.5449982477273 8.8015003029661  16.7536620204545 9.07503851271187  C 16.96263975 9.34900923411017  17.0986720295455 9.65725205084746  17.1579284386364 9.99115772881356  Z " fill-rule="evenodd" />
    </mask>
  </defs>
  <g transform="matrix(1 0 0 1 -20 -441 )">
    <path d="M 17.8277916272727 11.162649282839  C 17.9514535295455 10.7428162256356  17.9764663909091 10.293530592161  17.9001928636364 9.86362600529661  C 17.8202982272727 9.41335176800848  17.6372334 8.99823523940678  17.3562312068182 8.62989270550847  C 17.0752917886364 8.26165314194915  16.7210720181818 7.97307971292373  16.3034305363636 7.77222552012712  C 15.9051504681818 7.58066021398305  15.4598378318182 7.47940927436441  15.0157182886364 7.47940927436441  L 12.1027143886364 7.47940927436441  C 12.5582833227273 5.96468195550847  12.7714891704545 4.64108741101695  12.7366595590909 3.54238284427966  C 12.7069581068182 2.60607934851695  12.4981896681818 1.82733683474576  12.1161941181818 1.2278842786017  C 11.474316 0.220626852754237  10.5745647272727 0.0747439470338983  10.5365535545455 0.0690181843220339  L 10.5226552022727 0.066917376059322  L 10.5086312590909 0.066917376059322  C 9.92766311590909 0.066917376059322  9.52410837272727 0.228371023305085  9.30916521818182 0.546767770127119  C 9.12769116136363 0.815589451271187  9.12421656818182 1.13124687711864  9.12189319772727 1.34013360169492  C 9.12124433863636 1.39893576377119  9.12061638409091 1.45450432309322  9.11588592272727 1.48747886334746  L 9.11402304545454 1.50018672351695  L 9.11402304545454 1.51303875423729  C 9.11402304545454 4.30089989830508  6.16790589545454 6.61226785169492  4.89643631590909 7.47940927436441  L 0.926905990909091 7.47940927436441  C 0.446993979545454 7.47940927436441  0.0566050090909092 7.86356969067797  0.0566050090909092 8.3357788845339  L 0.0566050090909092 18.0766511832627  C 0.0566050090909092 18.5488809872881  0.446994 18.9330414036017  0.926905990909091 18.9330414036017  L 13.8184081772727 18.9330414237288  C 14.1578923295455 18.9330414237288  14.481301275 18.8268885847458  14.7538263272727 18.6259520116525  C 15.0239233431818 18.4262306133475  15.2165537590909 18.1525688230932  15.3113095840909 17.8342132764831  L 17.8235425840909 11.1753571430085  L 17.8277916272727 11.162649282839  Z M 0.926905990909091 18.1915986271186  C 0.863588925 18.1915986271186  0.810130479545455 18.1389341292373  0.810130479545455 18.0766717934322  L 0.810130479545455 8.33579949470339  C 0.810130479545455 8.27351656885593  0.86360985 8.22089327118644  0.926905990909091 8.22089327118644  L 4.14799715454545 8.22089327118644  L 4.14799715454545 18.1915986271186  L 0.926905990909091 18.1915986271186  Z M 17.1579284386364 9.99115772881356  C 17.2134381272727 10.3042406144068  17.1966512454545 10.6311229947034  17.1094097454545 10.937821095339  L 14.6049213272727 17.5761840180085  C 14.5987466113636 17.5925579925847  14.5931370340909 17.6091585381356  14.5881553909091 17.6258826641949  C 14.5387785477273 17.7918674894068  14.4422435454545 17.9288528400424  14.3013133636364 18.0331108315678  C 14.1583528431818 18.1382338665254  13.9958843727273 18.1915780370763  13.8184291227273 18.1915780370763  L 4.9015017 18.1915780169492  L 4.9015017 8.22070790042373  C 5.05312776818182 8.21969868644068  5.20100713636364 8.17389272563559  5.32569467045454 8.08883038983051  C 6.68647795909091 7.16076538665254  9.84508928181818 4.66996330508475  9.86742294545455 1.54632220550848  C 9.87391163863636 1.48113521822034  9.87462329318182 1.41629836228814  9.87537681818182 1.34816611334746  C 9.87680014772727 1.21941923516949  9.87876769090909 1.0430745190678  9.93685193181818 0.95708536970339  C 9.99466408636364 0.871466941737289  10.1894713568182 0.816145543432204  10.4518028659091 0.809184015889831  C 10.5913515886364 0.845144997881357  11.0888458568182 1.01137696398305  11.4778324636364 1.6218072934322  C 11.7878872704545 2.1083926440678  11.9580165613636 2.76236334533898  11.9835108409091 3.56551238559322  C 12.0158077704545 4.58446845762712  11.8128163909091 5.83051826588983  11.3801671840909 7.26901903389831  C 11.3127266454545 7.49329110911017  11.3567660386364 7.73574964618644  11.4990149045455 7.92313392584746  C 11.6412846954545 8.11051820550848  11.8650189681818 8.22089327118644  12.1027562590909 8.22089327118644  L 15.0157601590909 8.22089327118644  C 15.3458671090909 8.22089327118644  15.6767485090909 8.29609001800848  15.9726119318182 8.43840979978814  C 16.2821853204545 8.58729977754238  16.5449982477273 8.8015003029661  16.7536620204545 9.07503851271187  C 16.96263975 9.34900923411017  17.0986720295455 9.65725205084746  17.1579284386364 9.99115772881356  Z " fill-rule="nonzero" fill="#000000" stroke="none" transform="matrix(1 0 0 1 20 441 )" />
    <path d="M 17.8277916272727 11.162649282839  C 17.9514535295455 10.7428162256356  17.9764663909091 10.293530592161  17.9001928636364 9.86362600529661  C 17.8202982272727 9.41335176800848  17.6372334 8.99823523940678  17.3562312068182 8.62989270550847  C 17.0752917886364 8.26165314194915  16.7210720181818 7.97307971292373  16.3034305363636 7.77222552012712  C 15.9051504681818 7.58066021398305  15.4598378318182 7.47940927436441  15.0157182886364 7.47940927436441  L 12.1027143886364 7.47940927436441  C 12.5582833227273 5.96468195550847  12.7714891704545 4.64108741101695  12.7366595590909 3.54238284427966  C 12.7069581068182 2.60607934851695  12.4981896681818 1.82733683474576  12.1161941181818 1.2278842786017  C 11.474316 0.220626852754237  10.5745647272727 0.0747439470338983  10.5365535545455 0.0690181843220339  L 10.5226552022727 0.066917376059322  L 10.5086312590909 0.066917376059322  C 9.92766311590909 0.066917376059322  9.52410837272727 0.228371023305085  9.30916521818182 0.546767770127119  C 9.12769116136363 0.815589451271187  9.12421656818182 1.13124687711864  9.12189319772727 1.34013360169492  C 9.12124433863636 1.39893576377119  9.12061638409091 1.45450432309322  9.11588592272727 1.48747886334746  L 9.11402304545454 1.50018672351695  L 9.11402304545454 1.51303875423729  C 9.11402304545454 4.30089989830508  6.16790589545454 6.61226785169492  4.89643631590909 7.47940927436441  L 0.926905990909091 7.47940927436441  C 0.446993979545454 7.47940927436441  0.0566050090909092 7.86356969067797  0.0566050090909092 8.3357788845339  L 0.0566050090909092 18.0766511832627  C 0.0566050090909092 18.5488809872881  0.446994 18.9330414036017  0.926905990909091 18.9330414036017  L 13.8184081772727 18.9330414237288  C 14.1578923295455 18.9330414237288  14.481301275 18.8268885847458  14.7538263272727 18.6259520116525  C 15.0239233431818 18.4262306133475  15.2165537590909 18.1525688230932  15.3113095840909 17.8342132764831  L 17.8235425840909 11.1753571430085  L 17.8277916272727 11.162649282839  Z " stroke-width="2" stroke="#333333" fill="none" transform="matrix(1 0 0 1 20 441 )" mask="url(#clip130)" />
    <path d="M 0.926905990909091 18.1915986271186  C 0.863588925 18.1915986271186  0.810130479545455 18.1389341292373  0.810130479545455 18.0766717934322  L 0.810130479545455 8.33579949470339  C 0.810130479545455 8.27351656885593  0.86360985 8.22089327118644  0.926905990909091 8.22089327118644  L 4.14799715454545 8.22089327118644  L 4.14799715454545 18.1915986271186  L 0.926905990909091 18.1915986271186  Z " stroke-width="2" stroke="#333333" fill="none" transform="matrix(1 0 0 1 20 441 )" mask="url(#clip130)" />
    <path d="M 17.1579284386364 9.99115772881356  C 17.2134381272727 10.3042406144068  17.1966512454545 10.6311229947034  17.1094097454545 10.937821095339  L 14.6049213272727 17.5761840180085  C 14.5987466113636 17.5925579925847  14.5931370340909 17.6091585381356  14.5881553909091 17.6258826641949  C 14.5387785477273 17.7918674894068  14.4422435454545 17.9288528400424  14.3013133636364 18.0331108315678  C 14.1583528431818 18.1382338665254  13.9958843727273 18.1915780370763  13.8184291227273 18.1915780370763  L 4.9015017 18.1915780169492  L 4.9015017 8.22070790042373  C 5.05312776818182 8.21969868644068  5.20100713636364 8.17389272563559  5.32569467045454 8.08883038983051  C 6.68647795909091 7.16076538665254  9.84508928181818 4.66996330508475  9.86742294545455 1.54632220550848  C 9.87391163863636 1.48113521822034  9.87462329318182 1.41629836228814  9.87537681818182 1.34816611334746  C 9.87680014772727 1.21941923516949  9.87876769090909 1.0430745190678  9.93685193181818 0.95708536970339  C 9.99466408636364 0.871466941737289  10.1894713568182 0.816145543432204  10.4518028659091 0.809184015889831  C 10.5913515886364 0.845144997881357  11.0888458568182 1.01137696398305  11.4778324636364 1.6218072934322  C 11.7878872704545 2.1083926440678  11.9580165613636 2.76236334533898  11.9835108409091 3.56551238559322  C 12.0158077704545 4.58446845762712  11.8128163909091 5.83051826588983  11.3801671840909 7.26901903389831  C 11.3127266454545 7.49329110911017  11.3567660386364 7.73574964618644  11.4990149045455 7.92313392584746  C 11.6412846954545 8.11051820550848  11.8650189681818 8.22089327118644  12.1027562590909 8.22089327118644  L 15.0157601590909 8.22089327118644  C 15.3458671090909 8.22089327118644  15.6767485090909 8.29609001800848  15.9726119318182 8.43840979978814  C 16.2821853204545 8.58729977754238  16.5449982477273 8.8015003029661  16.7536620204545 9.07503851271187  C 16.96263975 9.34900923411017  17.0986720295455 9.65725205084746  17.1579284386364 9.99115772881356  Z " stroke-width="2" stroke="#333333" fill="none" transform="matrix(1 0 0 1 20 441 )" mask="url(#clip130)" />
  </g>
</svg>