<?xml version="1.0" encoding="utf-8"?>
<svg version="1.1" xmlns:xlink="http://www.w3.org/1999/xlink" width="21px" height="23px" xmlns="http://www.w3.org/2000/svg">
  <defs>
    <mask fill="white" id="clip129">
      <path d="M 18.793118556701 18.6049467592593  C 18.793118556701 19.8049652777778  17.8084536082474 20.7777777777778  16.5938144329897 20.7777777777778  C 15.379175257732 20.7777777777778  14.3945103092784 19.8049652777778  14.3945103092784 18.6049467592593  C 14.3945103092784 17.4049282407407  15.379175257732 16.4321157407407  16.5938144329897 16.4321157407407  C 17.8084536082474 16.4321157407407  18.793118556701 17.4049282407407  18.793118556701 18.6049467592593  Z M 14.3945103092784 3.39505324074074  C 14.3945103092784 2.19503472222222  15.379175257732 1.22222222222222  16.5938144329897 1.22222222222222  C 17.8084536082474 1.22222222222222  18.793118556701 2.19503472222222  18.793118556701 3.39505324074074  C 18.793118556701 4.59507175925926  17.8084536082474 5.56788425925926  16.5938144329897 5.56788425925926  C 15.379175257732 5.56788425925926  14.3945103092784 4.59507175925926  14.3945103092784 3.39505324074074  Z M 19.8927835051546 18.6049467592593  C 19.8927835051546 16.8049189814815  18.4157731958763 15.3456875  16.5938144329897 15.3456875  C 16.5932731958763 15.3456875  16.5926030927835 15.3456875  16.5919587628866 15.3456875  C 15.5826804123711 15.3456875  14.6795103092784 15.7944976851852  14.0757731958763 16.5011458333333  L 6.60451030927835 12.2472268518519  C 6.73162371134021 11.9136365740741  6.80520618556701 11.528025462963  6.80520618556701 11.1254560185185  C 6.80520618556701 11.1227824074074  6.80520618556701 11.1201342592593  6.80520618556701 11.1174606481482  C 6.80520618556701 11.1156273148148  6.80520618556701 11.1129537037037  6.80520618556701 11.1103055555556  C 6.80520618556701 10.7077361111111  6.73162371134021 10.322150462963  6.59703608247423 9.96594907407408  L 14.2141494845361 5.6482962962963  C 14.8137628865979 6.26865046296297  15.6574742268041 6.65431250000001  16.5923711340206 6.65431250000001  C 16.5928865979381 6.65431250000001  16.5933762886598 6.65431250000001  16.5938917525773 6.65431250000001  C 18.4157731958763 6.65431250000001  19.8927835051546 5.19508101851852  19.8927835051546 3.39505324074075  C 19.8927835051546 1.59502546296297  18.4157731958763 0.135793981481487  16.5938144329897 0.135793981481487  C 14.7718556701031 0.135793981481487  13.2948453608247 1.59502546296297  13.2948453608247 3.39505324074075  C 13.2948453608247 3.87795833333334  13.4037113402062 4.33481481481482  13.5945103092783 4.74711111111112  L 6.06131443298969 9.04390972222223  C 5.45170103092783 8.30973611111112  4.53335051546391 7.84501157407408  3.50512886597938 7.84501157407408  C 1.68317010309278 7.84501157407408  0.206159793814429 9.30424305555556  0.206159793814429 11.1042708333333  C 0.206159793814429 11.1090578703704  0.206159793814429 11.1138449074074  0.206185567010306 11.1186319444445  C 0.206159793814429 11.1217638888889  0.206159793814429 11.1263726851852  0.206159793814429 11.1309560185185  C 0.206159793814429 12.9309837962963  1.68317010309278 14.3902152777778  3.50512886597938 14.3902152777778  C 4.53335051546391 14.3902152777778  5.45167525773195 13.9254907407407  6.05670103092783 13.1970208333333  L 13.5147680412371 17.4430208333333  C 13.3756701030928 17.7885023148148  13.2949484536082 18.1888310185185  13.2948453608247 18.6077731481482  C 13.2948453608247 20.405  14.7718556701031 21.8642060185185  16.5938144329897 21.8642060185185  C 18.4157731958763 21.8642060185185  19.8927835051546 20.404974537037  19.8927835051546 18.6049467592593  Z " fill-rule="evenodd" />
    </mask>
  </defs>
  <g transform="matrix(1 0 0 1 -335 -440 )">
    <path d="M 18.793118556701 18.6049467592593  C 18.793118556701 19.8049652777778  17.8084536082474 20.7777777777778  16.5938144329897 20.7777777777778  C 15.379175257732 20.7777777777778  14.3945103092784 19.8049652777778  14.3945103092784 18.6049467592593  C 14.3945103092784 17.4049282407407  15.379175257732 16.4321157407407  16.5938144329897 16.4321157407407  C 17.8084536082474 16.4321157407407  18.793118556701 17.4049282407407  18.793118556701 18.6049467592593  Z M 5.40463917525773 12.2036342592593  L 5.41030927835052 12.1928888888889  C 5.0264175257732 12.8608078703704  4.31131443298969 13.3040416666667  3.4914175257732 13.3040416666667  C 2.27677835051546 13.3040416666667  1.29211340206186 12.3312291666667  1.29211340206186 11.1312106481481  C 1.29211340206186 10.7213333333333  1.40698453608247 10.3379884259259  1.60664948453608 10.0108402777778  C 1.99157216494845 9.38014814814815  2.69164948453608 8.95837962962963  3.49144329896907 8.95837962962963  C 4.7060824742268 8.95837962962963  5.69074742268041 9.93119212962963  5.69074742268041 11.1312106481481  C 5.69074742268041 11.5212268518519  5.58675257731959 11.8872314814815  5.40463917525773 12.2036342592593  Z M 14.3945103092784 3.39505324074074  C 14.3945103092784 2.19503472222222  15.379175257732 1.22222222222222  16.5938144329897 1.22222222222222  C 17.8084536082474 1.22222222222222  18.793118556701 2.19503472222222  18.793118556701 3.39505324074074  C 18.793118556701 4.59507175925926  17.8084536082474 5.56788425925926  16.5938144329897 5.56788425925926  C 15.379175257732 5.56788425925926  14.3945103092784 4.59507175925926  14.3945103092784 3.39505324074074  Z M 19.8927835051546 18.6049467592593  C 19.8927835051546 16.8049189814815  18.4157731958763 15.3456875  16.5938144329897 15.3456875  C 16.5932731958763 15.3456875  16.5926030927835 15.3456875  16.5919587628866 15.3456875  C 15.5826804123711 15.3456875  14.6795103092784 15.7944976851852  14.0757731958763 16.5011458333333  L 6.60451030927835 12.2472268518519  C 6.73162371134021 11.9136365740741  6.80520618556701 11.528025462963  6.80520618556701 11.1254560185185  C 6.80520618556701 11.1227824074074  6.80520618556701 11.1201342592593  6.80520618556701 11.1174606481482  C 6.80520618556701 11.1156273148148  6.80520618556701 11.1129537037037  6.80520618556701 11.1103055555556  C 6.80520618556701 10.7077361111111  6.73162371134021 10.322150462963  6.59703608247423 9.96594907407408  L 14.2141494845361 5.6482962962963  C 14.8137628865979 6.26865046296297  15.6574742268041 6.65431250000001  16.5923711340206 6.65431250000001  C 16.5928865979381 6.65431250000001  16.5933762886598 6.65431250000001  16.5938917525773 6.65431250000001  C 18.4157731958763 6.65431250000001  19.8927835051546 5.19508101851852  19.8927835051546 3.39505324074075  C 19.8927835051546 1.59502546296297  18.4157731958763 0.135793981481487  16.5938144329897 0.135793981481487  C 14.7718556701031 0.135793981481487  13.2948453608247 1.59502546296297  13.2948453608247 3.39505324074075  C 13.2948453608247 3.87795833333334  13.4037113402062 4.33481481481482  13.5945103092783 4.74711111111112  L 6.06131443298969 9.04390972222223  C 5.45170103092783 8.30973611111112  4.53335051546391 7.84501157407408  3.50512886597938 7.84501157407408  C 1.68317010309278 7.84501157407408  0.206159793814429 9.30424305555556  0.206159793814429 11.1042708333333  C 0.206159793814429 11.1090578703704  0.206159793814429 11.1138449074074  0.206185567010306 11.1186319444445  C 0.206159793814429 11.1217638888889  0.206159793814429 11.1263726851852  0.206159793814429 11.1309560185185  C 0.206159793814429 12.9309837962963  1.68317010309278 14.3902152777778  3.50512886597938 14.3902152777778  C 4.53335051546391 14.3902152777778  5.45167525773195 13.9254907407407  6.05670103092783 13.1970208333333  L 13.5147680412371 17.4430208333333  C 13.3756701030928 17.7885023148148  13.2949484536082 18.1888310185185  13.2948453608247 18.6077731481482  C 13.2948453608247 20.405  14.7718556701031 21.8642060185185  16.5938144329897 21.8642060185185  C 18.4157731958763 21.8642060185185  19.8927835051546 20.404974537037  19.8927835051546 18.6049467592593  Z " fill-rule="nonzero" fill="#333333" stroke="none" transform="matrix(1 0 0 1 335 440 )" />
    <path d="M 18.793118556701 18.6049467592593  C 18.793118556701 19.8049652777778  17.8084536082474 20.7777777777778  16.5938144329897 20.7777777777778  C 15.379175257732 20.7777777777778  14.3945103092784 19.8049652777778  14.3945103092784 18.6049467592593  C 14.3945103092784 17.4049282407407  15.379175257732 16.4321157407407  16.5938144329897 16.4321157407407  C 17.8084536082474 16.4321157407407  18.793118556701 17.4049282407407  18.793118556701 18.6049467592593  Z " stroke-width="2" stroke="#333333" fill="none" transform="matrix(1 0 0 1 335 440 )" mask="url(#clip129)" />
    <path d="M 14.3945103092784 3.39505324074074  C 14.3945103092784 2.19503472222222  15.379175257732 1.22222222222222  16.5938144329897 1.22222222222222  C 17.8084536082474 1.22222222222222  18.793118556701 2.19503472222222  18.793118556701 3.39505324074074  C 18.793118556701 4.59507175925926  17.8084536082474 5.56788425925926  16.5938144329897 5.56788425925926  C 15.379175257732 5.56788425925926  14.3945103092784 4.59507175925926  14.3945103092784 3.39505324074074  Z " stroke-width="2" stroke="#333333" fill="none" transform="matrix(1 0 0 1 335 440 )" mask="url(#clip129)" />
    <path d="M 19.8927835051546 18.6049467592593  C 19.8927835051546 16.8049189814815  18.4157731958763 15.3456875  16.5938144329897 15.3456875  C 16.5932731958763 15.3456875  16.5926030927835 15.3456875  16.5919587628866 15.3456875  C 15.5826804123711 15.3456875  14.6795103092784 15.7944976851852  14.0757731958763 16.5011458333333  L 6.60451030927835 12.2472268518519  C 6.73162371134021 11.9136365740741  6.80520618556701 11.528025462963  6.80520618556701 11.1254560185185  C 6.80520618556701 11.1227824074074  6.80520618556701 11.1201342592593  6.80520618556701 11.1174606481482  C 6.80520618556701 11.1156273148148  6.80520618556701 11.1129537037037  6.80520618556701 11.1103055555556  C 6.80520618556701 10.7077361111111  6.73162371134021 10.322150462963  6.59703608247423 9.96594907407408  L 14.2141494845361 5.6482962962963  C 14.8137628865979 6.26865046296297  15.6574742268041 6.65431250000001  16.5923711340206 6.65431250000001  C 16.5928865979381 6.65431250000001  16.5933762886598 6.65431250000001  16.5938917525773 6.65431250000001  C 18.4157731958763 6.65431250000001  19.8927835051546 5.19508101851852  19.8927835051546 3.39505324074075  C 19.8927835051546 1.59502546296297  18.4157731958763 0.135793981481487  16.5938144329897 0.135793981481487  C 14.7718556701031 0.135793981481487  13.2948453608247 1.59502546296297  13.2948453608247 3.39505324074075  C 13.2948453608247 3.87795833333334  13.4037113402062 4.33481481481482  13.5945103092783 4.74711111111112  L 6.06131443298969 9.04390972222223  C 5.45170103092783 8.30973611111112  4.53335051546391 7.84501157407408  3.50512886597938 7.84501157407408  C 1.68317010309278 7.84501157407408  0.206159793814429 9.30424305555556  0.206159793814429 11.1042708333333  C 0.206159793814429 11.1090578703704  0.206159793814429 11.1138449074074  0.206185567010306 11.1186319444445  C 0.206159793814429 11.1217638888889  0.206159793814429 11.1263726851852  0.206159793814429 11.1309560185185  C 0.206159793814429 12.9309837962963  1.68317010309278 14.3902152777778  3.50512886597938 14.3902152777778  C 4.53335051546391 14.3902152777778  5.45167525773195 13.9254907407407  6.05670103092783 13.1970208333333  L 13.5147680412371 17.4430208333333  C 13.3756701030928 17.7885023148148  13.2949484536082 18.1888310185185  13.2948453608247 18.6077731481482  C 13.2948453608247 20.405  14.7718556701031 21.8642060185185  16.5938144329897 21.8642060185185  C 18.4157731958763 21.8642060185185  19.8927835051546 20.404974537037  19.8927835051546 18.6049467592593  Z " stroke-width="2" stroke="#333333" fill="none" transform="matrix(1 0 0 1 335 440 )" mask="url(#clip129)" />
    <path d="M 5.41030927835052 12.1928888888889  C 5.0264175257732 12.8608078703704  4.31131443298969 13.3040416666667  3.4914175257732 13.3040416666667  C 2.27677835051546 13.3040416666667  1.29211340206186 12.3312291666667  1.29211340206186 11.1312106481481  C 1.29211340206186 10.7213333333333  1.40698453608247 10.3379884259259  1.60664948453608 10.0108402777778  C 1.99157216494845 9.38014814814815  2.69164948453608 8.95837962962963  3.49144329896907 8.95837962962963  C 4.7060824742268 8.95837962962963  5.69074742268041 9.93119212962963  5.69074742268041 11.1312106481481  C 5.69074742268041 11.5212268518519  5.58675257731959 11.8872314814815  5.40463917525773 12.2036342592593  " stroke-width="1" stroke="#333333" fill="none" transform="matrix(1 0 0 1 335 440 )" mask="url(#clip129)" />
  </g>
</svg>