<?xml version="1.0" encoding="utf-8"?>
<svg version="1.1" xmlns:xlink="http://www.w3.org/1999/xlink" width="5px" height="5px" xmlns="http://www.w3.org/2000/svg">
  <g transform="matrix(1 0 0 1 -359 -30 )">
    <path d="M 4.73485294117648 2.68742647058824  C 4.73480729756739 2.64613590028295  4.73385118282824 2.60485135616172  4.73198529411765 2.56360294117647  C 4.75040441176471 2.23360294117647  4.663125 1.87121323529412  4.47841911764706 1.52485294117647  C 4.35316176470588 1.29003676470588  4.18356617647059 1.06257352941177  3.97143382352941 0.857830882352942  C 3.59180147058824 0.491286764705883  3.14433823529412 0.262426470588237  2.71676470588235 0.182904411764706  C 2.61673984311146 0.166050621581744  2.51571124657662 0.155820033092378  2.41433823529412 0.152279411764707  C 2.39716911764706 0.151544117647059  2.37992647058824 0.151691176470589  2.36264705882353 0.151544117647059  C 2.17562500000001 0.150514705882354  1.98558823529412 0.179852941176471  1.79286764705883 0.240000000000001  C 1.5820955882353 0.30591911764706  1.37852941176471 0.419117647058825  1.18176470588236 0.579963235294119  C 1.02727941176471 0.711470588235295  0.834080882352946 0.890735294117648  0.602352941176475 1.11735294117647  C 0.403361427360347 1.31234372303365  0.203161492272845 1.50609745550998  0.00176470588235719 1.69860294117647  L 3.17566176470589 4.92477941176471  C 3.27393382352942 4.83709558823529  3.37926470588236 4.73470588235294  3.49172794117648 4.61764705882353  C 3.60608592951897 4.49912511735474  3.72201530092419 4.38212947516908  3.83948529411765 4.26669117647059  C 3.97275735294118 4.13518382352941  4.12378676470588 3.98165441176471  4.29235294117647 3.80617647058824  C 4.446875 3.63069852941176  4.55922794117647 3.44779411764706  4.62952205882353 3.25775735294118  C 4.69970588235295 3.06768382352941  4.73485294117648 2.87757352941177  4.73485294117648 2.68742647058824  Z " fill-rule="nonzero" fill="#8a8a8a" stroke="none" transform="matrix(1 0 0 1 359 30 )" />
  </g>
</svg>