<?xml version="1.0" encoding="utf-8"?>
<svg version="1.1" xmlns:xlink="http://www.w3.org/1999/xlink" width="13px" height="13px" xmlns="http://www.w3.org/2000/svg">
  <g transform="matrix(1 0 0 1 -349 -32 )">
    <path d="M 9.61960277777778 0.199010638297877  L 6.17734722222222 3.63239361702128  L 4.83173888888889 4.97360638297872  L 3.61891111111111 6.18250265957447  C 3.25353888888889 6.54684840425532  2.23220833333333 7.53941223404255  1.98849444444445 7.78779521276596  C 1.74478055555556 8.03614361702128  1.58968333333334 8.19342287234043  1.52338333333333 8.25973670212766  C 1.36828611111111 8.41425  1.24919166666667 8.55500265957447  1.16613611111111 8.68199468085106  C 1.08308055555556 8.80902127659575  1.00818611111111 8.94967021276596  0.94185 9.1041835106383  C 0.886455555555556 9.20365425531915  0.814486111111111 9.38575797872341  0.725905555555555 9.65080585106383  C 0.637252777777777 9.91564627659574  0.545891666666665 10.2053803191489  0.451677777777777 10.5200771276596  C 0.357572222222222 10.834704787234  0.268955555555555 11.1383031914894  0.185936111111111 11.4308377659574  C 0.102808333333333 11.7233031914894  0.0502666666666665 11.9468271276596  0.0281305555555554 12.1015478723404  C -0.016177777777777 12.3884813829787  0.0114111111111102 12.5927473404255  0.111149999999999 12.7142074468085  C 0.210816666666665 12.8355638297872  0.410222222222221 12.87975  0.709186111111109 12.8466276595745  C 0.853233333333331 12.8245691489362  1.07203055555555 12.7748510638298  1.36554166666666 12.6975425531915  C 1.65905277777778 12.6203031914894  1.96910277777778 12.5292686170213  2.29576388888889 12.4244042553192  C 2.61113039817349 12.323402843214  2.92413327437064 12.2157579033258  3.23454444444444 12.1015478723404  C 3.53361666666666 11.9910478723404  3.76053888888889 11.8972473404255  3.9156 11.819835106383  C 4.07069722222222 11.7537287234043  4.22019722222222 11.6654255319149  4.36420833333333 11.554960106383  C 4.50821944444444 11.4445984042553  4.63554722222222 11.3397686170213  4.74633611111111 11.2403324468085  C 4.79064444444444 11.2073138297872  4.92905833333333 11.074789893617  5.16154166666667 10.8429680851064  C 5.39420555555556 10.6111117021277  5.687825 10.3157765957447  6.04218333333334 9.95696276595745  C 6.39650555555556 9.59828723404256  7.51212222222223 8.51735106382979  7.95506111111111 8.08676063829788  L 9.28409444444445 6.74540957446809  L 12.7530361111111 3.23426861702128  L 9.61960277777778 0.199010638297877  Z " fill-rule="nonzero" fill="#8a8a8a" stroke="none" transform="matrix(1 0 0 1 349 32 )" />
  </g>
</svg>