<?xml version="1.0" encoding="utf-8"?>
<svg version="1.1" xmlns:xlink="http://www.w3.org/1999/xlink" width="23px" height="24px" xmlns="http://www.w3.org/2000/svg">
  <g transform="matrix(1 0 0 1 -342 -29 )">
    <path d="M 20.8601522435897 9.3115125  L 20.8601522435897 18.03585  L 20.8601522435897 18.015825  L 20.8601522435897 18.725475  C 20.8601522435897 20.5642875  19.3891842948718 22.0600875  17.5826522435897 22  L 5.41734775641026 22  C 3.61077884615385 22.0600875  2.13984775641026 20.5642875  2.13984775641026 18.725475  L 2.13984775641026 5.915175  L 2.13984775641026 5.964225  L 2.13984775641026 5.2746  C 2.13984775641026 3.43575  3.61077884615385 1.9401  5.41734775641026 1.9401  L 13.4405144230769 1.9401  L 15.660125 0.0358499999999996  L 14.9285480769231 0.0358499999999996  L 14.9285480769231 0.0346125000000001  L 5.41738461538462 0.0346125000000001  C 2.6614391025641 0.0346125000000001  0.403384615384615 2.2490625  0.273161858974359 5.0215125  L 0.26700641025641 5.0215125  L 0.26700641025641 18.9785625  L 0.273161858974359 18.9785625  C 0.403421474358974 21.7510125  2.66147596153846 23.9654625  5.41738461538462 24  L 17.5826891025641 24  C 20.3385608974359 23.9654625  22.5966153846154 21.7510125  22.726875 18.9785625  L 22.733030448718 18.9785625  L 22.733030448718 7.439925  L 20.8601522435897 9.31155  Z M 20.1127996794872 0.755174999999999  C 20.2156362179487 0.758887499999999  20.3166298076923 0.769312499999999  20.4160384615385 0.786375  C 20.2953990384615 0.7635  20.1763814102564 0.752925  20.0609759615385 0.754575  C 20.0781891025641 0.754575  20.0954759615385 0.754575  20.1127996794872 0.755174999999999  Z " fill-rule="nonzero" fill="#8a8a8a" stroke="none" transform="matrix(1 0 0 1 342 29 )" />
  </g>
</svg>