<?xml version="1.0" encoding="utf-8"?>
<svg version="1.1" xmlns:xlink="http://www.w3.org/1999/xlink" width="15px" height="17px" xmlns="http://www.w3.org/2000/svg">
  <g transform="matrix(1 0 0 1 -10 -388 )">
    <path d="M 15 15.9375  C 15 16.5243025466952  14.5203050891044 17  13.9285714285714 17  C 13.3368377680384 17  12.8571428571429 16.5243025466952  12.8571428571429 15.9375  L 12.8571428571429 7.4375  C 12.8571428571429 6.85069745330478  13.3368377680384 6.375  13.9285714285714 6.375  C 14.5203050891044 6.375  15 6.85069745330478  15 7.4375  L 15 15.9375  Z M 10.7142857142857 15.9375  C 10.7142857142857 16.5243025466952  10.2345908033901 17  9.64285714285714 17  C 9.05112348232415 17  8.57142857142857 16.5243025466952  8.57142857142857 15.9375  L 8.57142857142857 1.0625  C 8.57142857142857 0.475697453304782  9.05112348232415 0  9.64285714285714 0  C 10.2345908033901 0  10.7142857142857 0.475697453304782  10.7142857142857 1.0625  L 10.7142857142857 15.9375  Z M 6.42857142857143 15.9375  C 6.42857142857143 16.5243025466952  5.94887651767585 17  5.35714285714286 17  C 4.76540919660986 17  4.28571428571429 16.5243025466952  4.28571428571429 15.9375  L 4.28571428571429 11.6875  C 4.28571428571429 11.1006974533048  4.76540919660986 10.625  5.35714285714286 10.625  C 5.94887651767585 10.625  6.42857142857143 11.1006974533048  6.42857142857143 11.6875  L 6.42857142857143 15.9375  Z M 2.14285714285714 15.9375  C 2.14285714285714 16.5243025466952  1.66316223196156 17  1.07142857142857 17  C 0.479694910895578 17  0 16.5243025466952  0 15.9375  L 0 5.3125  C 0 4.72569745330478  0.479694910895578 4.25  1.07142857142857 4.25  C 1.66316223196156 4.25  2.14285714285714 4.72569745330478  2.14285714285714 5.3125  L 2.14285714285714 15.9375  Z " fill-rule="nonzero" fill="#383b48" stroke="none" transform="matrix(1 0 0 1 10 388 )" />
  </g>
</svg>