<?xml version="1.0" encoding="utf-8"?>
<svg version="1.1" xmlns:xlink="http://www.w3.org/1999/xlink" width="25px" height="15px" xmlns="http://www.w3.org/2000/svg">
  <g transform="matrix(1 0 0 1 -318 -8 )">
    <path d="M 12.5 12  L 2.77777777777778 12  L 2.77777777777778 3  L 12.5 3  L 12.5 12  Z M 23.6111111111111 1.875  L 23.6111111111111 3.75  C 23.9945023148148 3.75  24.3218315972222 3.896484375  24.5930989583333 4.189453125  C 24.8643663194444 4.482421875  25 4.8359375  25 5.25  L 25 9.75  C 25 10.1640625  24.8643663194444 10.517578125  24.5930989583333 10.810546875  C 24.3218315972222 11.103515625  23.9945023148148 11.25  23.6111111111111 11.25  L 23.6111111111111 13.125  C 23.6111111111111 13.640625  23.4411168981482 14.08203125  23.1011284722222 14.44921875  C 22.7611400462963 14.81640625  22.3524305555556 15  21.875 15  L 1.73611111111111 15  C 1.25868055555556 15  0.849971064814815 14.81640625  0.509982638888889 14.44921875  C 0.169994212962963 14.08203125  0 13.640625  0 13.125  L 0 1.875  C 0 1.359375  0.169994212962963 0.917968749999999  0.509982638888889 0.55078125  C 0.849971064814815 0.183593749999998  1.25868055555556 0  1.73611111111111 0  L 21.875 0  C 22.3524305555556 0  22.7611400462963 0.183593749999998  23.1011284722222 0.55078125  C 23.4411168981482 0.917968749999999  23.6111111111111 1.359375  23.6111111111111 1.875  Z M 22.2222222222222 9.75  L 23.6111111111111 9.75  L 23.6111111111111 5.25  L 22.2222222222222 5.25  L 22.2222222222222 1.875  C 22.2222222222222 1.765625  22.1896701388889 1.67578125  22.1245659722222 1.60546875  C 22.0594618055556 1.53515625  21.9762731481482 1.5  21.875 1.5  L 1.73611111111111 1.5  C 1.63483796296296 1.5  1.55164930555556 1.53515625  1.48654513888889 1.60546875  C 1.42144097222222 1.67578125  1.38888888888889 1.765625  1.38888888888889 1.875  L 1.38888888888889 13.125  C 1.38888888888889 13.234375  1.42144097222222 13.32421875  1.48654513888889 13.39453125  C 1.55164930555556 13.46484375  1.63483796296296 13.5  1.73611111111111 13.5  L 21.875 13.5  C 21.9762731481482 13.5  22.0594618055556 13.46484375  22.1245659722222 13.39453125  C 22.1896701388889 13.32421875  22.2222222222222 13.234375  22.2222222222222 13.125  L 22.2222222222222 9.75  Z " fill-rule="nonzero" fill="#000000" stroke="none" transform="matrix(1 0 0 1 318 8 )" />
  </g>
</svg>