<?xml version="1.0" encoding="utf-8"?>
<svg version="1.1" xmlns:xlink="http://www.w3.org/1999/xlink" width="20px" height="20px" xmlns="http://www.w3.org/2000/svg">
  <g transform="matrix(1 0 0 1 -12 -5 )">
    <path d="M 2.75669642857143 16.7838541666667  C 2.82366071428571 16.8619791666667  2.85714285714286 16.9618055555556  2.85714285714286 17.0833333333333  L 2.85714285714286 19.5833333333333  C 2.85714285714286 19.7048611111111  2.82366071428571 19.8046875  2.75669642857143 19.8828125  C 2.68973214285714 19.9609375  2.60416666666667 20  2.5 20  L 0.357142857142857 20  C 0.25297619047619 20  0.167410714285714 19.9609375  0.100446428571429 19.8828125  C 0.0334821428571429 19.8046875  0 19.7048611111111  0 19.5833333333333  L 0 17.0833333333333  C 0 16.9618055555556  0.0334821428571429 16.8619791666667  0.100446428571429 16.7838541666667  C 0.167410714285714 16.7057291666667  0.25297619047619 16.6666666666667  0.357142857142857 16.6666666666667  L 2.5 16.6666666666667  C 2.60416666666667 16.6666666666667  2.68973214285714 16.7057291666667  2.75669642857143 16.7838541666667  Z M 7.04241071428571 15.1171875  C 7.109375 15.1953125  7.14285714285714 15.2951388888889  7.14285714285714 15.4166666666667  L 7.14285714285714 19.5833333333333  C 7.14285714285714 19.7048611111111  7.109375 19.8046875  7.04241071428571 19.8828125  C 6.97544642857143 19.9609375  6.88988095238095 20  6.78571428571429 20  L 4.64285714285714 20  C 4.53869047619048 20  4.453125 19.9609375  4.38616071428571 19.8828125  C 4.31919642857143 19.8046875  4.28571428571429 19.7048611111111  4.28571428571429 19.5833333333333  L 4.28571428571429 15.4166666666667  C 4.28571428571429 15.2951388888889  4.31919642857143 15.1953125  4.38616071428571 15.1171875  C 4.453125 15.0390625  4.53869047619048 15  4.64285714285714 15  L 6.78571428571429 15  C 6.88988095238095 15  6.97544642857143 15.0390625  7.04241071428571 15.1171875  Z M 11.328125 11.7838541666667  C 11.3950892857143 11.8619791666667  11.4285714285714 11.9618055555556  11.4285714285714 12.0833333333333  L 11.4285714285714 19.5833333333333  C 11.4285714285714 19.7048611111111  11.3950892857143 19.8046875  11.328125 19.8828125  C 11.2611607142857 19.9609375  11.1755952380952 20  11.0714285714286 20  L 8.92857142857143 20  C 8.82440476190476 20  8.73883928571429 19.9609375  8.671875 19.8828125  C 8.60491071428571 19.8046875  8.57142857142857 19.7048611111111  8.57142857142857 19.5833333333333  L 8.57142857142857 12.0833333333333  C 8.57142857142857 11.9618055555556  8.60491071428571 11.8619791666667  8.671875 11.7838541666667  C 8.73883928571429 11.7057291666667  8.82440476190476 11.6666666666667  8.92857142857143 11.6666666666667  L 11.0714285714286 11.6666666666667  C 11.1755952380952 11.6666666666667  11.2611607142857 11.7057291666667  11.328125 11.7838541666667  Z M 15.6138392857143 6.78385416666667  C 15.6808035714286 6.86197916666667  15.7142857142857 6.96180555555556  15.7142857142857 7.08333333333333  L 15.7142857142857 19.5833333333333  C 15.7142857142857 19.7048611111111  15.6808035714286 19.8046875  15.6138392857143 19.8828125  C 15.546875 19.9609375  15.4613095238095 20  15.3571428571429 20  L 13.2142857142857 20  C 13.110119047619 20  13.0245535714286 19.9609375  12.9575892857143 19.8828125  C 12.890625 19.8046875  12.8571428571429 19.7048611111111  12.8571428571429 19.5833333333333  L 12.8571428571429 7.08333333333333  C 12.8571428571429 6.96180555555556  12.890625 6.86197916666667  12.9575892857143 6.78385416666667  C 13.0245535714286 6.70572916666667  13.110119047619 6.66666666666667  13.2142857142857 6.66666666666667  L 15.3571428571429 6.66666666666667  C 15.4613095238095 6.66666666666667  15.546875 6.70572916666667  15.6138392857143 6.78385416666667  Z M 19.8995535714286 0.1171875  C 19.9665178571429 0.1953125  20 0.295138888888886  20 0.416666666666667  L 20 19.5833333333333  C 20 19.7048611111111  19.9665178571429 19.8046875  19.8995535714286 19.8828125  C 19.8325892857143 19.9609375  19.7470238095238 20  19.6428571428571 20  L 17.5 20  C 17.3958333333333 20  17.3102678571429 19.9609375  17.2433035714286 19.8828125  C 17.1763392857143 19.8046875  17.1428571428571 19.7048611111111  17 19.5833333333333  L 17 0.416666666666667  C 17.1428571428571 0.295138888888886  17.1763392857143 0.1953125  17.2433035714286 0.1171875  C 17.3102678571429 0.0390625  17.3958333333333 0  17.5 0  L 19.6428571428571 0  C 19.7470238095238 0  19.8325892857143 0.0390625  19.8995535714286 0.1171875  Z " fill-rule="nonzero" fill="#000000" stroke="none" transform="matrix(1 0 0 1 12 5 )" />
  </g>
</svg>