<?xml version="1.0" encoding="utf-8"?>
<svg version="1.1" xmlns:xlink="http://www.w3.org/1999/xlink" width="16px" height="15px" xmlns="http://www.w3.org/2000/svg">
  <g transform="matrix(1 0 0 1 -313 -34 )">
    <path d="M 15.6340425531915 6.36221590909091  C 15.8170212765957 6.18536931818182  15.8808510638298 5.92542613636364  15.8021276595745 5.68252840909091  C 15.7234042553191 5.43963068181818  15.5170212765957 5.26704545454545  15.2659574468085 5.23082386363636  L 10.6553191489362 4.55965909090909  L 8.59361702127659 0.377130681818182  C 8.48297872340425 0.149147727272727  8.2531914893617 0.00639204545454509  8 0.00639204545454509  C 7.7468085106383 0.00639204545454509  7.51914893617021 0.149147727272727  7.4063829787234 0.377130681818182  L 5.34468085106383 4.55965909090909  L 0.734042553191489 5.23082386363636  C 0.480851063829787 5.26704545454545  0.276595744680851 5.43963068181818  0.197872340425532 5.68252840909091  C 0.119148936170213 5.92329545454546  0.182978723404256 6.18536931818182  0.365957446808511 6.36221590909091  L 3.70212765957447 9.61789772727273  L 2.91489361702128 14.2159090909091  C 2.87234042553191 14.4673295454545  2.97234042553191 14.7166193181818  3.17872340425532 14.8657670454545  C 3.29574468085106 14.9509943181818  3.43191489361702 14.9936079545455  3.56808510638298 14.9936079545455  C 3.67234042553191 14.9936079545455  3.77872340425532 14.9680397727273  3.87659574468085 14.9169034090909  L 8 12.7457386363636  L 12.1234042553191 14.9190340909091  C 12.3468085106383 15.0362215909091  12.6148936170213 15.0170454545455  12.8212765957447 14.8678977272727  C 13.0276595744681 14.71875  13.1276595744681 14.4694602272727  13.0851063829787 14.2180397727273  L 12.2978723404255 9.62002840909091  L 15.6340425531915 6.36221590909091  Z M 14.5617021276596 6.08522727272727  L 11.4595744680851 9.11292613636364  C 11.3489361702128 9.22159090909091  11.2978723404255 9.37926136363637  11.3234042553192 9.53267045454546  L 12.0553191489362 13.8089488636364  L 8.22127659574468 11.7911931818182  C 8.15106382978724 11.7549715909091  8.07659574468085 11.7357954545455  8 11.7357954545455  C 7.92340425531915 11.7357954545455  7.84893617021277 11.7549715909091  7.77872340425532 11.7933238636364  L 3.94468085106383 13.8110795454545  L 4.67659574468085 9.53480113636364  C 4.70212765957447 9.38139204545455  4.65106382978724 9.2237215909091  4.5404255319149 9.11505681818182  L 1.43829787234043 6.08735795454545  L 5.72553191489362 5.46306818181818  C 5.88085106382979 5.43963068181818  6.01489361702128 5.34375  6.08297872340426 5.203125  L 8 1.3125  L 9.91702127659575 5.20099431818182  C 9.98723404255319 5.34161931818182  10.1191489361702 5.4375  10.2744680851064 5.4609375  L 14.5617021276596 6.08522727272727  Z " fill-rule="nonzero" fill="#000000" stroke="none" transform="matrix(1 0 0 1 313 34 )" />
  </g>
</svg>