<?xml version="1.0" encoding="utf-8"?>
<svg version="1.1" xmlns:xlink="http://www.w3.org/1999/xlink" width="22px" height="22px" xmlns="http://www.w3.org/2000/svg">
  <g transform="matrix(1 0 0 1 -310 -31 )">
    <path d="M 22 11  C 22 4.9349609375  17.0650390625 0  11 0  C 4.9349609375 0  0 4.9349609375  0 11  C 0 17.0650390625  4.9349609375 22  11 22  C 17.0650390625 22  22 17.0650390625  22 11  Z M 21.0439453125 11  C 21.0439453125 16.538671875  16.538671875 21.0439453125  11 21.0439453125  C 5.461328125 21.0439453125  0.9560546875 16.538671875  0.9560546875 11  C 0.9560546875 5.461328125  5.461328125 0.9560546875  11 0.9560546875  C 16.538671875 0.9560546875  21.0439453125 5.461328125  21.0439453125 11  Z " fill-rule="nonzero" fill="#000000" stroke="none" transform="matrix(1 0 0 1 310 31 )" />
  </g>
</svg>