<?xml version="1.0" encoding="utf-8"?>
<svg version="1.1" xmlns:xlink="http://www.w3.org/1999/xlink" width="74px" height="10px" preserveAspectRatio="xMinYMid meet" viewBox="435 276  74 8" xmlns="http://www.w3.org/2000/svg">
  <defs>
    <mask fill="white" id="clip67">
      <path d="M 438 267  L 484 267  L 484 292  L 438 292  Z M 437 267  L 507 267  L 507 317  L 437 317  Z " fill-rule="evenodd" />
    </mask>
  </defs>
  <path d="M 504 294  L 504 285  A 5 5 0 0 0 499 280 L 445 280  A 5 5 0 0 0 440 285 L 440 302.5  A 4.5 4.5 0 0 0 444.5 307 L 447 307  " stroke-width="2" stroke="#0099cc" fill="none" mask="url(#clip67)" />
  <path d="M 441.892893218813 302.707106781187  L 446.185786437627 307  L 441.892893218813 311.292893218813  L 443.307106781187 312.707106781187  L 448.307106781187 307.707106781187  L 449.014213562373 307  L 448.307106781187 306.292893218813  L 443.307106781187 301.292893218813  L 441.892893218813 302.707106781187  Z " fill-rule="nonzero" fill="#0099cc" stroke="none" mask="url(#clip67)" />
</svg>