<?xml version="1.0" encoding="utf-8"?>
<svg version="1.1" xmlns:xlink="http://www.w3.org/1999/xlink" width="60px" height="80px" xmlns="http://www.w3.org/2000/svg">
  <g transform="matrix(1 0 0 1 -85 -442 )">
    <path d="M 45.46875 72.65  C 45.9254807692308 72.0166666666667  46.1538461538462 71.2666666666667  46.1538461538462 70.4  C 46.1538461538462 69.5333333333333  45.9254807692308 68.7833333333333  45.46875 68.15  C 45.0120192307692 67.5166666666667  44.4711538461539 67.2  43.8461538461538 67.2  C 43.2211538461538 67.2  42.6802884615385 67.5166666666667  42.2235576923077 68.15  C 41.7668269230769 68.7833333333333  41.5384615384615 69.5333333333333  41.5384615384615 70.4  C 41.5384615384615 71.2666666666667  41.7668269230769 72.0166666666667  42.2235576923077 72.65  C 42.6802884615385 73.2833333333333  43.2211538461538 73.6  43.8461538461538 73.6  C 44.4711538461539 73.6  45.0120192307692 73.2833333333333  45.46875 72.65  Z M 54.6995192307692 72.65  C 55.15625 72.0166666666667  55.3846153846154 71.2666666666667  55.3846153846154 70.4  C 55.3846153846154 69.5333333333333  55.15625 68.7833333333333  54.6995192307692 68.15  C 54.2427884615385 67.5166666666667  53.7019230769231 67.2  53.0769230769231 67.2  C 52.4519230769231 67.2  51.9110576923077 67.5166666666667  51.4543269230769 68.15  C 50.9975961538462 68.7833333333333  50.7692307692308 69.5333333333333  50.7692307692308 70.4  C 50.7692307692308 71.2666666666667  50.9975961538462 72.0166666666667  51.4543269230769 72.65  C 51.9110576923077 73.2833333333333  52.4519230769231 73.6  53.0769230769231 73.6  C 53.7019230769231 73.6  54.2427884615385 73.2833333333333  54.6995192307692 72.65  Z M 58.9903846153846 55.8  C 59.6634615384615 56.7333333333333  60 57.8666666666667  60 59.2  L 60 75.2  C 60 76.5333333333333  59.6634615384615 77.6666666666667  58.9903846153846 78.6  C 58.3173076923077 79.5333333333333  57.5 80  56.5384615384615 80  L 3.46153846153846 80  C 2.5 80  1.68269230769231 79.5333333333333  1.00961538461538 78.6  C 0.336538461538462 77.6666666666667  0 76.5333333333333  0 75.2  L 0 59.2  C 0 57.8666666666667  0.336538461538462 56.7333333333333  1.00961538461538 55.8  C 1.68269230769231 54.8666666666667  2.5 54.4  3.46153846153846 54  L 18.8581730769231 54  C 19.3629807692308 56.2666666666667  20.2103365384615 57.8  21.4002403846154 59  C 22.5901442307692 60.2  23.9182692307692 60.8  25.3846153846154 60.8  L 34.6153846153846 60.8  C 36.0817307692308 60.8  37.4098557692308 60.2  38.5997596153846 59  C 39.7896634615385 57.8  40.6370192307692 56.2666666666667  41.1418269230769 54  L 56.5384615384615 54  C 57.5 54.4  58.3173076923077 54.8666666666667  58.9903846153846 55.8  Z M 47.7764423076923 23.35  C 48.5216346153846 24.35  48.6899038461539 25.5  48.28125 26.8  C 47.8725961538462 28.1333333333333  47.1634615384615 28.8  46.1538461538462 28.8  L 37 28.8  L 37 51.2  C 36.9230769230769 52.0666666666667  36.6947115384615 52.8166666666667  36.2379807692308 53.45  C 35.78125 54.0833333333333  35.2403846153846 54.4  34.6153846153846 54.4  L 25.3846153846154 54.4  C 24.7596153846154 54.4  24.21875 54.0833333333333  23.7620192307692 53.45  C 23.3052884615385 52.8166666666667  23.0769230769231 52.0666666666667  23 51.2  L 23 28.8  L 13.8461538461538 28.8  C 12.8365384615385 28.8  12.1274038461538 28.1333333333333  11.71875 26.8  C 11.3100961538462 25.5  11.4783653846154 24.35  12.2235576923077 23.35  L 28.3774038461538 0.949999999999998  C 28.8100961538462 0.316666666666663  29.3509615384615 0  30 0  C 30.6490384615385 0  31.1899038461538 0.316666666666663  31.6225961538462 0.949999999999998  L 47.7764423076923 23.35  Z " fill-rule="nonzero" fill="#7f7f7f" stroke="none" transform="matrix(1 0 0 1 85 442 )" />
  </g>
</svg>