<?xml version="1.0" encoding="utf-8"?>
<svg version="1.1" xmlns:xlink="http://www.w3.org/1999/xlink" width="43px" height="50px" xmlns="http://www.w3.org/2000/svg">
  <g transform="matrix(1 0 0 1 -169 -185 )">
    <path d="M 32.3619791666667 1.89732142857143  L 41.0963541666667 10.6026785714286  C 41.6189236111111 11.1235119047619  42.0668402777778 11.8303571428571  42.4401041666667 12.7232142857143  C 42.8133680555556 13.6160714285714  43 14.4345238095238  43 15.1785714285714  L 43 47.3214285714286  C 43 48.0654761904762  42.7387152777778 48.6979166666667  42.2161458333333 49.21875  C 41.6935763888889 49.7395833333333  41.0590277777778 50  40.3125 50  L 2.6875 50  C 1.94097222222222 50  1.30642361111111 49.7395833333333  0.783854166666667 49.21875  C 0.261284722222222 48.6979166666667  0 48.0654761904762  0 47.3214285714286  L 0 2.67857142857143  C 0 1.93452380952381  0.261284722222222 1.30208333333333  0.783854166666667 0.78125  C 1.30642361111111 0.260416666666669  1.94097222222222 0  2.6875 0  L 27.7708333333333 0  C 28.5173611111111 0  29.3385416666667 0.186011904761907  30.234375 0.558035714285715  C 31.1302083333333 0.930059523809523  31.8394097222222 1.37648809523809  32.3619791666667 1.89732142857143  Z M 29.814453125 4.40848214285715  C 29.5904947916667 4.18526785714286  29.2078993055556 3.98065476190476  28 3.79464285714286  L 28 15  L 39.1927083333333 15  C 39.0060763888889 13.7462797619048  38.80078125 13.3649553571429  38.5768229166667 13.1417410714286  L 29.814453125 4.40848214285715  Z M 4 46  L 39 46  L 39 18  L 27.7708333333333 18  C 27.0243055555556 17.8571428571429  26.3897569444444 17.5967261904762  25.8671875 17.0758928571429  C 25.3446180555556 16.5550595238095  25.0833333333333 15.922619047619  25 15.1785714285714  L 25 4  L 4 4  L 4 46  Z M 20.9401041666667 23.2421875  C 21.9665798611111 26.2927827380952  23.3289930555556 28.5063244047619  25.02734375 29.8828125  C 25.6432291666667 30.366443452381  26.4270833333333 30.8872767857143  27.37890625 31.4453125  C 28.4800347222222 31.3151041666667  29.5718315972222 31.25  30.654296875 31.25  C 33.3977864583333 31.25  35.0494791666667 31.7057291666667  35.609375 32.6171875  C 35.9079861111111 33.0264136904762  35.9266493055556 33.5100446428571  35.6653645833333 34.0680803571429  C 35.6653645833333 34.086681547619  35.6560329861111 34.1052827380952  35.6373697916667 34.1238839285714  L 35.5813802083333 34.1796875  L 35.5813802083333 34.2075892857143  C 35.4694010416667 34.9144345238095  34.8068576388889 35.2678571428571  33.59375 35.2678571428571  C 32.6979166666667 35.2678571428571  31.6247829861111 35.0818452380952  30.3743489583333 34.7098214285714  C 29.1239149305556 34.3377976190476  27.9108072916667 33.8448660714286  26.7350260416667 33.2310267857143  C 22.6104600694444 33.6774553571429  18.9524739583333 34.4494047619048  15.7610677083333 35.546875  C 12.9055989583333 40.4203869047619  10.6473524305556 42.8571428571429  8.986328125 42.8571428571429  C 8.70638020833333 42.8571428571429  8.44509548611111 42.7920386904762  8.20247395833333 42.6618303571429  L 7.53059895833333 42.3270089285714  C 7.51193576388889 42.3084077380952  7.45594618055556 42.2619047619048  7.36263020833333 42.1875  C 7.17599826388889 42.0014880952381  7.12000868055556 41.6666666666667  7.19466145833333 41.1830357142857  C 7.36263020833333 40.4389880952381  7.88519965277778 39.5879836309524  8.76236979166667 38.6300223214286  C 9.63953993055556 37.6720610119048  10.8713107638889 36.7745535714286  12.4576822916667 35.9375  C 12.7189670138889 35.7700892857143  12.93359375 35.8258928571429  13.1015625 36.1049107142857  C 13.1388888888889 36.1421130952381  13.1575520833333 36.1793154761905  13.1575520833333 36.2165178571429  C 14.1280381944444 34.6354166666667  15.1265190972222 32.8031994047619  16.1529947916667 30.7198660714286  C 17.4220920138889 28.1901041666667  18.392578125 25.7533482142857  19.064453125 23.4095982142857  C 18.6165364583333 21.8843005952381  18.3319227430556 20.4008556547619  18.2106119791667 18.9592633928571  C 18.0893012152778 17.5176711309524  18.1499565972222 16.3318452380952  18.392578125 15.4017857142857  C 18.5978732638889 14.6577380952381  18.9898003472222 14.2857142857143  19.568359375 14.2857142857143  L 20.15625 14.2857142857143  L 20.1842447916667 14.2857142857143  C 20.6134982638889 14.2857142857143  20.9401041666667 14.4252232142857  21.1640625 14.7042410714286  C 21.5 15.0948660714286  21.583984375 15.727306547619  21.416015625 16.6015625  C 21.3786892361111 16.7131696428571  21.3413628472222 16.7875744047619  21.3040364583333 16.8247767857143  C 21.3226996527778 16.8805803571429  21.33203125 16.9549851190476  21.33203125 17.0479910714286  L 21.33203125 17.8850446428571  C 21.2947048611111 20.1729910714286  21.1640625 21.9587053571429  20.9401041666667 23.2421875  Z M 10.2880859375 39.2857142857143  C 9.60687934027778 40.1041666666667  9.14496527777778 40.7924107142857  8.90234375 41.3504464285714  C 9.87282986111111 40.9040178571429  11.1512586805556 39.4345238095238  12.7376302083333 36.9419642857143  C 11.7858072916667 37.6860119047619  10.9692925347222 38.4672619047619  10.2880859375 39.2857142857143  Z M 20.0442708333333 15.625  L 20.0442708333333 15.6808035714286  C 19.7643229166667 16.4620535714286  19.7456597222222 17.6897321428571  19.98828125 19.3638392857143  C 20.0069444444444 19.2336309523809  20.072265625 18.8244047619048  20.1842447916667 18.1361607142857  C 20.1842447916667 18.0803571428571  20.2495659722222 17.680431547619  20.3802083333333 16.9363839285714  C 20.3988715277778 16.8619791666667  20.4361979166667 16.7875744047619  20.4921875 16.7131696428571  C 20.4735243055556 16.6945684523809  20.4641927083333 16.6759672619048  20.4641927083333 16.6573660714286  C 20.4455295138889 16.6201636904762  20.4361979166667 16.5922619047619  20.4361979166667 16.5736607142857  C 20.4175347222222 16.1644345238095  20.2962239583333 15.8296130952381  20.072265625 15.5691964285714  C 20.072265625 15.5877976190476  20.0629340277778 15.6063988095238  20.0442708333333 15.625  Z M 17.8326822916667 31.8080357142857  C 17.2727864583333 32.8497023809524  16.8528645833333 33.6216517857143  16.5729166666667 34.1238839285714  C 19.0924479166667 33.1194196428571  21.7426215277778 32.3660714285714  24.5234375 31.8638392857143  C 24.4861111111111 31.8452380952381  24.3648003472222 31.7568824404762  24.1595052083333 31.5987723214286  C 23.9542100694444 31.440662202381  23.8049045138889 31.3151041666667  23.7115885416667 31.2220982142857  C 22.2931857638889 29.975818452381  21.1080729166667 28.3389136904762  20.15625 26.3113839285714  C 19.65234375 27.9110863095238  18.8778211805556 29.7433035714286  17.8326822916667 31.8080357142857  Z M 34.7135416666667 33.7611607142857  C 34.7135416666667 33.7425595238095  34.6948784722222 33.7146577380952  34.6575520833333 33.6774553571429  C 34.2096354166667 33.2310267857143  32.9032118055556 33.0078125  30.73828125 33.0078125  C 32.1566840277778 33.5286458333333  33.3138020833333 33.7890625  34.2096354166667 33.7890625  C 34.4709201388889 33.7890625  34.6388888888889 33.7797619047619  34.7135416666667 33.7611607142857  Z " fill-rule="nonzero" fill="#000000" stroke="none" transform="matrix(1 0 0 1 169 185 )" />
  </g>
</svg>