<?xml version="1.0" encoding="utf-8"?>
<svg version="1.1" xmlns:xlink="http://www.w3.org/1999/xlink" width="24px" height="24px" xmlns="http://www.w3.org/2000/svg">
  <g transform="matrix(1 0 0 1 -341 -29 )">
    <path d="M 15.7861956521739 23.8477173913044  C 15.6549302821772 23.8783592873311  15.5205548880853 23.8936789576673  15.3857608695652 23.8933695652174  C 14.9311942085129 23.8934898747457  14.4954189472816 23.7119951134678  14.1753260869565 23.3892391304348  L 10.881847826087 20.0977173913043  L 6.40467391304348 21.6629347826087  C 6.33551283964803 21.6871055578994  6.26277342045882 21.6994501496182  6.18951032981035 21.6994501496182  C 5.82932462339896 21.6994501496182  5.53733641676687 21.4074619429861  5.53733641676687 21.0472762365747  C 5.53733641676687 20.976079767855  5.54899445525911 20.9053637126014  5.57184782608696 20.8379347826087  L 7.23489130434783 15.9355434782609  C 7.26717967196076 15.8408850983499  7.32072298704223 15.7548811485002  7.39141304347826 15.6841304347826  L 16.9959782608696 6.08184782608695  C 17.118871546914 5.95460701638194  17.2881810356449 5.88274682235166  17.4650792646049 5.88274682235166  C 17.8252649710162 5.88274682235166  18.1172531776483 6.17473502898375  18.1172531776483 6.53492073539513  C 18.1172531776483 6.71181896435514  18.0453929836181 6.88112845308598  17.918152173913 7.00402173913043  L 8.42282608695652 16.5  L 7.23913043478261 19.9907608695652  L 10.8404347826087 18.7310869565217  C 11.0768478743024 18.6484893228147  11.3396771604637 18.7085573467494  11.5167391304348 18.885652173913  L 15.0978260869565 22.4673913043478  C 15.1754086463277 22.5444515180022  15.2803201599838 22.5876998529478  15.3896697372443 22.5876998529478  C 15.5679943432534 22.5876998529478  15.7262955003194 22.4735473802817  15.7826086956522 22.304347826087  L 22.5652173913043 1.95652173913044  C 22.5784971688182 1.91538498957245  22.5852596955582 1.87242395487356  22.5852596955582 1.82919682618089  C 22.5852596955582 1.60029880975645  22.3997011902435 1.41474030444176  22.1708031738191 1.41474030444176  C 22.1275760451264 1.41474030444176  22.0846150104275 1.42150283118182  22.0434782608696 1.43478260869565  L 1.69565217391304 8.21739130434783  C 1.52657436140896 8.27390214624299  1.41257541278114 8.43220178989344  1.41257541278114 8.61047344196652  C 1.41257541278114 8.71972714265229  1.45571436709098 8.82456184343663  1.53260869565217 8.90217391304348  L 5.11434782608696 12.4835869565217  L 5.12673913043478 12.4963043478261  C 5.29434782608696 12.6733695652174  6.74836956521739 14.2659782608696  6.17902173913043 15.6665217391304  C 5.93445652173913 16.268152173913  5.39054347826087 16.7445652173913  4.60663043478261 17.0442391304348  C 4.27154459576196 17.1725002189308  3.92267959772416 17.2613579285941  3.5670652173913 17.3090217391304  C 3.54254483265861 17.3118161376924  3.5178856208062 17.313216714707  3.49320652173913 17.313216714707  C 3.13295515495595 17.313216714707  2.84091372007558 17.0211752798267  2.84091372007558 16.6609239130435  C 2.84091372007558 16.3292500200446  3.0898069688612 16.0503813091762  3.41934782608696 16.0128260869565  C 3.74804347826087 15.9733695652174  4.74358695652174 15.7340217391304  4.97086956521739 15.1751086956522  C 5.15184782608696 14.7296739130435  4.61054347826087 13.8547826086957  4.18467391304348 13.3985869565217  L 0.610760869565217 9.82467391304348  C 0.288040019719146 9.50233797027076  0.106704942311921 9.06492552966633  0.106704942311921 8.60880141615275  C 0.106704942311921 7.86882617511434  0.580390662071287 7.21193978376837  1.2825 6.97826086956522  L 21.6303260869565 0.195652173913042  C 21.8057980990973 0.137063746721248  21.9895791659216 0.107192904419248  22.1745738438059 0.107192904419248  C 23.1236631801999 0.107192904419248  23.8930521046755 0.876581828894809  23.8930521046755 1.82567116528881  C 23.8930521046755 2.01092522624  23.8630974461944 2.19496054281998  23.804347826087 2.37065217391304  L 17.0217391304348 22.7184782608696  C 16.8352487175209 23.2847615161973  16.3669276893451 23.7127888903258  15.7861956521739 23.8477173913044  Z " fill-rule="nonzero" fill="#000000" stroke="none" transform="matrix(1 0 0 1 341 29 )" />
  </g>
</svg>