<?xml version="1.0" encoding="utf-8"?>
<svg version="1.1" xmlns:xlink="http://www.w3.org/1999/xlink" width="200px" height="200px" xmlns="http://www.w3.org/2000/svg">
  <g transform="matrix(1 0 0 1 -82 -193 )">
    <path d="M 139.732142857143 175.948660714286  C 152.008928571429 169.438244047619  162.090773809524 160.602678571429  169.977678571429 149.441964285714  C 168.340773809524 137.909226190476  165.08556547619 128.329613095238  160.212053571429 120.703125  C 155.338541666667 113.076636904762  148.474702380952 108.668154761905  139.620535714286 107.477678571429  C 134.635416666667 112.983630952381  128.701636904762 117.280505952381  121.819196428571 120.368303571429  C 114.936755952381 123.456101190476  107.66369047619 125  100 125  C 92.3363095238095 125  85.0632440476191 123.456101190476  78.1808035714286 120.368303571429  C 71.2983630952381 117.280505952381  65.3645833333333 112.983630952381  60.3794642857143 107.477678571429  C 51.5252976190476 108.668154761905  44.6614583333333 113.076636904762  39.7879464285714 120.703125  C 34.9144345238095 128.329613095238  31.6592261904762 137.909226190476  30.0223214285714 149.441964285714  C 37.9092261904762 160.602678571429  47.9910714285714 169.438244047619  60.2678571428571 175.948660714286  C 72.5446428571429 182.459077380952  85.7886904761905 185.714285714286  100 185.714285714286  C 114.21130952381 185.714285714286  127.455357142857 182.459077380952  139.732142857143 175.948660714286  Z M 130.301339285714 101.729910714286  C 138.671875 93.359375  142.857142857143 83.2589285714286  142.857142857143 71.4285714285714  C 142.857142857143 59.5982142857143  138.671875 49.4977678571429  130.301339285714 41.1272321428571  C 121.930803571429 32.7566964285714  111.830357142857 28.5714285714286  100 28.5714285714286  C 88.1696428571429 28.5714285714286  78.0691964285714 32.7566964285714  69.6986607142857 41.1272321428571  C 61.328125 49.4977678571429  57.1428571428571 59.5982142857143  57.1428571428571 71.4285714285714  C 57.1428571428571 83.2589285714286  61.328125 93.359375  69.6986607142857 101.729910714286  C 78.0691964285714 110.100446428571  88.1696428571429 114.285714285714  100 114.285714285714  C 111.830357142857 114.285714285714  121.930803571429 110.100446428571  130.301339285714 101.729910714286  Z M 192.075892857143 61.1607142857143  C 197.358630952381 73.5119047619047  200 86.4583333333333  200 100  C 200 113.541666666667  197.358630952381 126.469494047619  192.075892857143 138.783482142857  C 186.793154761905 151.097470238095  179.706101190476 161.737351190476  170.814732142857 170.703125  C 161.923363095238 179.668898809524  151.302083333333 186.793154761905  138.950892857143 192.075892857143  C 126.599702380952 197.358630952381  113.616071428571 200  100 200  C 86.4583333333333 200  73.5119047619048 197.358630952381  61.1607142857143 192.075892857143  C 48.8095238095238 186.793154761905  38.1696428571429 179.6875  29.2410714285714 170.758928571429  C 20.3125 161.830357142857  13.2068452380952 151.190476190476  7.92410714285714 138.839285714286  C 2.64136904761905 126.488095238095  0 113.541666666667  0 100  C 0 86.4583333333333  2.64136904761905 73.5119047619047  7.92410714285714 61.1607142857143  C 13.2068452380952 48.8095238095238  20.3125 38.1696428571429  29.2410714285714 29.2410714285714  C 38.1696428571429 20.3125  48.8095238095238 13.2068452380952  61.1607142857143 7.92410714285714  C 73.5119047619048 2.64136904761905  86.4583333333333 0  100 0  C 113.541666666667 0  126.488095238095 2.64136904761905  138.839285714286 7.92410714285714  C 151.190476190476 13.2068452380952  161.830357142857 20.3125  170.758928571429 29.2410714285714  C 179.6875 38.1696428571429  186.793154761905 48.8095238095238  192.075892857143 61.1607142857143  Z " fill-rule="nonzero" fill="#000000" stroke="none" transform="matrix(1 0 0 1 82 193 )" />
  </g>
</svg>