<?xml version="1.0" encoding="utf-8"?>
<svg version="1.1" xmlns:xlink="http://www.w3.org/1999/xlink" width="100px" height="100px" xmlns="http://www.w3.org/2000/svg">
  <g transform="matrix(1 0 0 1 -145 -209 )">
    <path d="M 93.2942708333333 24.90234375  C 97.7647569444444 32.5629340277778  100 40.9288194444444  100 50  C 100 59.0711805555556  97.7647569444444 67.4370659722222  93.2942708333333 75.09765625  C 88.8237847222222 82.7582465277778  82.7582465277778 88.8237847222222  75.09765625 93.2942708333333  C 67.4370659722222 97.7647569444445  59.0711805555556 100  50 100  C 40.9288194444445 100  32.5629340277778 97.7647569444445  24.90234375 93.2942708333333  C 17.2417534722222 88.8237847222222  11.1762152777778 82.7582465277778  6.70572916666667 75.09765625  C 2.23524305555556 67.4370659722222  0 59.0711805555556  0 50  C 0 40.9288194444444  2.23524305555556 32.5629340277778  6.70572916666667 24.90234375  C 11.1762152777778 17.2417534722222  17.2417534722222 11.1762152777778  24.90234375 6.70572916666666  C 32.5629340277778 2.23524305555555  40.9288194444445 0  50 0  C 59.0711805555556 0  67.4370659722222 2.23524305555555  75.09765625 6.70572916666666  C 82.7582465277778 11.1762152777778  88.8237847222222 17.2417534722222  93.2942708333333 24.90234375  Z " fill-rule="nonzero" fill="#f2f2f2" stroke="none" transform="matrix(1 0 0 1 145 209 )" />
  </g>
</svg>