<?xml version="1.0" encoding="utf-8"?>
<svg version="1.1" xmlns:xlink="http://www.w3.org/1999/xlink" width="120px" height="120px" xmlns="http://www.w3.org/2000/svg">
  <g transform="matrix(1 0 0 1 -135 -199 )">
    <path d="M 195 199  C 228.6 199  255 225.4  255 259  C 255 292.6  228.6 319  195 319  C 161.4 319  135 292.6  135 259  C 135 225.4  161.4 199  195 199  Z " fill-rule="nonzero" fill="#ffffff" stroke="none" />
    <path d="M 195 199.5  C 228.32 199.5  254.5 225.68  254.5 259  C 254.5 292.32  228.32 318.5  195 318.5  C 161.68 318.5  135.5 292.32  135.5 259  C 135.5 225.68  161.68 199.5  195 199.5  Z " stroke-width="1" stroke="#797979" fill="none" />
  </g>
</svg>