<?xml version="1.0" encoding="utf-8"?>
<svg version="1.1" xmlns:xlink="http://www.w3.org/1999/xlink" width="90px" height="90px" xmlns="http://www.w3.org/2000/svg">
  <g transform="matrix(1 0 0 1 -150 -214 )">
    <path d="M 83.96484375 22.412109375  C 87.98828125 29.306640625  90 36.8359375  90 45  C 90 53.1640625  87.98828125 60.693359375  83.96484375 67.587890625  C 79.94140625 74.482421875  74.482421875 79.94140625  67.587890625 83.96484375  C 60.693359375 87.98828125  53.1640625 90  45 90  C 36.8359375 90  29.306640625 87.98828125  22.412109375 83.96484375  C 15.517578125 79.94140625  10.05859375 74.482421875  6.03515625 67.587890625  C 2.01171875 60.693359375  0 53.1640625  0 45  C 0 36.8359375  2.01171875 29.306640625  6.03515625 22.412109375  C 10.05859375 15.517578125  15.517578125 10.05859375  22.412109375 6.03515625  C 29.306640625 2.01171874999999  36.8359375 0  45 0  C 53.1640625 0  60.693359375 2.01171874999999  67.587890625 6.03515625  C 74.482421875 10.05859375  79.94140625 15.517578125  83.96484375 22.412109375  Z " fill-rule="nonzero" fill="#555555" stroke="none" transform="matrix(1 0 0 1 150 214 )" />
  </g>
</svg>