<?xml version="1.0" encoding="utf-8"?>
<svg version="1.1" xmlns:xlink="http://www.w3.org/1999/xlink" width="15px" height="38px" xmlns="http://www.w3.org/2000/svg">
  <g transform="matrix(1 0 0 1 -279 -289 )">
    <path d="M 10.1513671875 17.14453125  C 10.8837890625 15.9075520833333  11.25 14.4149305555556  11.25 12.6666666666667  C 11.25 10.9184027777778  10.8837890625 9.42578125  10.1513671875 8.18880208333333  C 9.4189453125 6.95182291666667  8.53515625 6.33333333333333  7.5 6.33333333333333  C 6.46484375 6.33333333333333  5.5810546875 6.95182291666667  4.8486328125 8.18880208333333  C 4.1162109375 9.42578125  3.75 10.9184027777778  3.75 12.6666666666667  C 3.75 14.4149305555556  4.1162109375 15.9075520833333  4.8486328125 17.14453125  C 5.5810546875 18.3815104166667  6.46484375 19  7.5 19  C 8.53515625 19  9.4189453125 18.3815104166667  10.1513671875 17.14453125  Z M 12.802734375 3.7109375  C 14.267578125 6.18489583333333  15 9.17013888888888  15 12.6666666666667  C 15 14.4644097222222  14.8388671875 15.9405381944444  14.5166015625 17.0950520833333  L 9.1845703125 36.2434895833333  C 9.0283203125 36.7877604166667  8.79638671875 37.2165798611111  8.48876953125 37.5299479166667  C 8.18115234375 37.8433159722222  7.8515625 38  7.5 38  C 7.1484375 38  6.81884765625 37.8433159722222  6.51123046875 37.5299479166667  C 6.20361328125 37.2165798611111  5.9765625 36.7877604166667  5.830078125 36.2434895833333  L 0.4833984375 17.0950520833333  C 0.1611328125 15.9405381944444  0 14.4644097222222  0 12.6666666666667  C 0 9.17013888888888  0.732421875 6.18489583333333  2.197265625 3.7109375  C 3.662109375 1.23697916666667  5.4296875 0  7.5 0  C 9.5703125 0  11.337890625 1.23697916666667  12.802734375 3.7109375  Z " fill-rule="nonzero" fill="#000000" stroke="none" transform="matrix(1 0 0 1 279 289 )" />
  </g>
</svg>