<?xml version="1.0" encoding="utf-8"?>
<svg version="1.1" xmlns:xlink="http://www.w3.org/1999/xlink" width="30px" height="35px" xmlns="http://www.w3.org/2000/svg">
  <g transform="matrix(1 0 0 1 -64 -425 )">
    <path d="M 25 10  C 25 11.9140625  24.4856770833333 13.6848958333333  23.45703125 15.3125  C 24.0690104166667 15.4947916666667  24.6516927083333 15.7421875  25.205078125 16.0546875  C 25.7584635416667 16.3671875  26.337890625 16.8424479166667  26.943359375 17.48046875  C 27.548828125 18.1184895833333  28.06640625 18.8704427083333  28.49609375 19.736328125  C 28.92578125 20.6022135416667  29.2838541666667 21.7220052083333  29.5703125 23.095703125  C 29.8567708333333 24.4694010416667  30 26.0091145833333  30 27.71484375  C 30 29.7200520833333  29.3489583333333 31.435546875  28.046875 32.861328125  C 26.7447916666667 34.287109375  25.17578125 35  23.33984375 35  L 6.66015625 35  C 4.82421875 35  3.25520833333333 34.287109375  1.953125 32.861328125  C 0.651041666666667 31.435546875  0 29.7200520833333  0 27.71484375  C 0 26.0091145833333  0.143229166666667 24.4694010416667  0.4296875 23.095703125  C 0.716145833333333 21.7220052083333  1.07421875 20.6022135416667  1.50390625 19.736328125  C 1.93359375 18.8704427083333  2.451171875 18.1184895833333  3.056640625 17.48046875  C 3.662109375 16.8424479166667  4.24153645833333 16.3671875  4.794921875 16.0546875  C 5.34830729166667 15.7421875  5.93098958333333 15.4947916666667  6.54296875 15.3125  C 5.51432291666667 13.6848958333333  5 11.9140625  5 10  C 5 8.64583333333333  5.263671875 7.353515625  5.791015625 6.123046875  C 6.318359375 4.892578125  7.03125 3.828125  7.9296875 2.9296875  C 8.828125 2.03125  9.892578125 1.318359375  11.123046875 0.791015624999999  C 12.353515625 0.263671874999998  13.6458333333333 0  15 0  C 16.3541666666667 0  17.646484375 0.263671874999998  18.876953125 0.791015624999999  C 20.107421875 1.318359375  21.171875 2.03125  22.0703125 2.9296875  C 22.96875 3.828125  23.681640625 4.892578125  24.208984375 6.123046875  C 24.736328125 7.353515625  25 8.64583333333333  25 10  Z M 20.302734375 4.697265625  C 18.837890625 3.232421875  17.0703125 2.5  15 2.5  C 12.9296875 2.5  11.162109375 3.232421875  9.697265625 4.697265625  C 8.232421875 6.162109375  7.5 7.9296875  7.5 10  C 7.5 12.0703125  8.232421875 13.837890625  9.697265625 15.302734375  C 11.162109375 16.767578125  12.9296875 17.5  15 17.5  C 17.0703125 17.5  18.837890625 16.767578125  20.302734375 15.302734375  C 21.767578125 13.837890625  22.5 12.0703125  22.5 10  C 22.5 7.9296875  21.767578125 6.162109375  20.302734375 4.697265625  Z M 6.66015625 32  L 23.33984375 32  C 24.4856770833333 32.5  25.4654947916667 32.0345052083333  26.279296875 31.103515625  C 27.0930989583333 30.1725260416667  27.5 29.04296875  27.5 27.71484375  C 27.5 24.6028645833333  26.9889322916667 22.1484375  25.966796875 20.3515625  C 24.9446614583333 18.5546875  23.4765625 17.6106770833333  21.5625 17.51953125  C 19.6744791666667 19.1731770833333  17.4869791666667 20  15 20  C 12.5130208333333 20  10.3255208333333 19.1731770833333  8.4375 17.51953125  C 6.5234375 17.6106770833333  5.05533854166667 18.5546875  4.033203125 20.3515625  C 3.01106770833333 22.1484375  2.5 24.6028645833333  2.5 27.71484375  C 2.5 29.04296875  2.90690104166667 30.1725260416667  3.720703125 31.103515625  C 4.53450520833333 32.0345052083333  5.51432291666667 32.5  6.66015625 32  Z " fill-rule="nonzero" fill="#d9001b" stroke="none" transform="matrix(1 0 0 1 64 425 )" />
  </g>
</svg>