<?xml version="1.0" encoding="utf-8"?>
<svg version="1.1" xmlns:xlink="http://www.w3.org/1999/xlink" width="12px" height="15px" xmlns="http://www.w3.org/2000/svg">
  <g transform="matrix(1 0 0 1 -16 -488 )">
    <path d="M 3.19176136363636 10.7938058035714  C 3.24573863636364 10.8468191964286  3.27272727272727 10.9095982142857  3.27272727272727 10.9821428571429  L 3.27272727272727 11.5178571428571  C 3.27272727272727 11.5904017857143  3.24573863636364 11.6531808035714  3.19176136363636 11.7061941964286  C 3.13778409090909 11.7592075892857  3.07386363636364 11.7857142857143  3 11.7857142857143  L 2.45454545454545 11.7857142857143  C 2.38068181818182 11.7857142857143  2.31676136363636 11.7592075892857  2.26278409090909 11.7061941964286  C 2.20880681818182 11.6531808035714  2.18181818181818 11.5904017857143  2.18181818181818 11.5178571428571  L 2.18181818181818 10.9821428571429  C 2.18181818181818 10.9095982142857  2.20880681818182 10.8468191964286  2.26278409090909 10.7938058035714  C 2.31676136363636 10.7407924107143  2.38068181818182 10.7142857142857  2.45454545454545 10.7142857142857  L 3 10.7142857142857  C 3.07386363636364 10.7142857142857  3.13778409090909 10.7407924107143  3.19176136363636 10.7938058035714  Z M 3.19176136363636 8.65094866071428  C 3.24573863636364 8.70396205357143  3.27272727272727 8.76674107142857  3.27272727272727 8.83928571428572  L 3.27272727272727 9.375  C 3.27272727272727 9.44754464285714  3.24573863636364 9.51032366071428  3.19176136363636 9.56333705357143  C 3.13778409090909 9.61635044642857  3.07386363636364 9.64285714285714  3 9.64285714285714  L 2.45454545454545 9.64285714285714  C 2.38068181818182 9.64285714285714  2.31676136363636 9.61635044642857  2.26278409090909 9.56333705357143  C 2.20880681818182 9.51032366071428  2.18181818181818 9.44754464285714  2.18181818181818 9.375  L 2.18181818181818 8.83928571428572  C 2.18181818181818 8.76674107142857  2.20880681818182 8.70396205357143  2.26278409090909 8.65094866071428  C 2.31676136363636 8.59793526785714  2.38068181818182 8.57142857142857  2.45454545454545 8.57142857142857  L 3 8.57142857142857  C 3.07386363636364 8.57142857142857  3.13778409090909 8.59793526785714  3.19176136363636 8.65094866071428  Z M 5.37357954545455 8.65094866071428  C 5.42755681818182 8.70396205357143  5.45454545454545 8.76674107142857  5.45454545454545 8.83928571428572  L 5.45454545454545 9.375  C 5.45454545454545 9.44754464285714  5.42755681818182 9.51032366071428  5.37357954545455 9.56333705357143  C 5.31960227272727 9.61635044642857  5.25568181818182 9.64285714285714  5.18181818181818 9.64285714285714  L 4.63636363636364 9.64285714285714  C 4.5625 9.64285714285714  4.49857954545455 9.61635044642857  4.44460227272727 9.56333705357143  C 4.390625 9.51032366071428  4.36363636363636 9.44754464285714  4.36363636363636 9.375  L 4.36363636363636 8.83928571428572  C 4.36363636363636 8.76674107142857  4.390625 8.70396205357143  4.44460227272727 8.65094866071428  C 4.49857954545455 8.59793526785714  4.5625 8.57142857142857  4.63636363636364 8.57142857142857  L 5.18181818181818 8.57142857142857  C 5.25568181818182 8.57142857142857  5.31960227272727 8.59793526785714  5.37357954545455 8.65094866071428  Z M 3.19176136363636 6.50809151785714  C 3.24573863636364 6.56110491071428  3.27272727272727 6.62388392857143  3.27272727272727 6.69642857142857  L 3.27272727272727 7.23214285714286  C 3.27272727272727 7.3046875  3.24573863636364 7.36746651785714  3.19176136363636 7.42047991071429  C 3.13778409090909 7.47349330357143  3.07386363636364 7.5  3 7.5  L 2.45454545454545 7.5  C 2.38068181818182 7.5  2.31676136363636 7.47349330357143  2.26278409090909 7.42047991071429  C 2.20880681818182 7.36746651785714  2.18181818181818 7.3046875  2.18181818181818 7.23214285714286  L 2.18181818181818 6.69642857142857  C 2.18181818181818 6.62388392857143  2.20880681818182 6.56110491071428  2.26278409090909 6.50809151785714  C 2.31676136363636 6.455078125  2.38068181818182 6.42857142857143  2.45454545454545 6.42857142857143  L 3 6.42857142857143  C 3.07386363636364 6.42857142857143  3.13778409090909 6.455078125  3.19176136363636 6.50809151785714  Z M 9.73721590909091 10.7938058035714  C 9.79119318181818 10.8468191964286  9.81818181818182 10.9095982142857  9.81818181818182 10.9821428571429  L 9.81818181818182 11.5178571428571  C 9.81818181818182 11.5904017857143  9.79119318181818 11.6531808035714  9.73721590909091 11.7061941964286  C 9.68323863636364 11.7592075892857  9.61931818181818 11.7857142857143  9.54545454545455 11.7857142857143  L 9 11.7857142857143  C 8.92613636363637 11.7857142857143  8.86221590909091 11.7592075892857  8.80823863636364 11.7061941964286  C 8.75426136363637 11.6531808035714  8.72727272727273 11.5904017857143  8.72727272727273 11.5178571428571  L 8.72727272727273 10.9821428571429  C 8.72727272727273 10.9095982142857  8.75426136363637 10.8468191964286  8.80823863636364 10.7938058035714  C 8.86221590909091 10.7407924107143  8.92613636363637 10.7142857142857  9 10.7142857142857  L 9.54545454545455 10.7142857142857  C 9.61931818181818 10.7142857142857  9.68323863636364 10.7407924107143  9.73721590909091 10.7938058035714  Z M 7.55539772727273 8.65094866071428  C 7.609375 8.70396205357143  7.63636363636364 8.76674107142857  7.63636363636364 8.83928571428572  L 7.63636363636364 9.375  C 7.63636363636364 9.44754464285714  7.609375 9.51032366071428  7.55539772727273 9.56333705357143  C 7.50142045454546 9.61635044642857  7.4375 9.64285714285714  7.36363636363636 9.64285714285714  L 6.81818181818182 9.64285714285714  C 6.74431818181818 9.64285714285714  6.68039772727273 9.61635044642857  6.62642045454546 9.56333705357143  C 6.57244318181818 9.51032366071428  6.54545454545455 9.44754464285714  6.54545454545455 9.375  L 6.54545454545455 8.83928571428572  C 6.54545454545455 8.76674107142857  6.57244318181818 8.70396205357143  6.62642045454546 8.65094866071428  C 6.68039772727273 8.59793526785714  6.74431818181818 8.57142857142857  6.81818181818182 8.57142857142857  L 7.36363636363636 8.57142857142857  C 7.4375 8.57142857142857  7.50142045454546 8.59793526785714  7.55539772727273 8.65094866071428  Z M 5.37357954545455 6.50809151785714  C 5.42755681818182 6.56110491071428  5.45454545454545 6.62388392857143  5.45454545454545 6.69642857142857  L 5.45454545454545 7.23214285714286  C 5.45454545454545 7.3046875  5.42755681818182 7.36746651785714  5.37357954545455 7.42047991071429  C 5.31960227272727 7.47349330357143  5.25568181818182 7.5  5.18181818181818 7.5  L 4.63636363636364 7.5  C 4.5625 7.5  4.49857954545455 7.47349330357143  4.44460227272727 7.42047991071429  C 4.390625 7.36746651785714  4.36363636363636 7.3046875  4.36363636363636 7.23214285714286  L 4.36363636363636 6.69642857142857  C 4.36363636363636 6.62388392857143  4.390625 6.56110491071428  4.44460227272727 6.50809151785714  C 4.49857954545455 6.455078125  4.5625 6.42857142857143  4.63636363636364 6.42857142857143  L 5.18181818181818 6.42857142857143  C 5.25568181818182 6.42857142857143  5.31960227272727 6.455078125  5.37357954545455 6.50809151785714  Z M 3.19176136363636 4.365234375  C 3.24573863636364 4.41824776785714  3.27272727272727 4.48102678571428  3.27272727272727 4.55357142857143  L 3.27272727272727 5.08928571428571  C 3.27272727272727 5.16183035714286  3.24573863636364 5.224609375  3.19176136363636 5.27762276785714  C 3.13778409090909 5.33063616071428  3.07386363636364 5.35714285714286  3 5.35714285714286  L 2.45454545454545 5.35714285714286  C 2.38068181818182 5.35714285714286  2.31676136363636 5.33063616071428  2.26278409090909 5.27762276785714  C 2.20880681818182 5.224609375  2.18181818181818 5.16183035714286  2.18181818181818 5.08928571428571  L 2.18181818181818 4.55357142857143  C 2.18181818181818 4.48102678571428  2.20880681818182 4.41824776785714  2.26278409090909 4.365234375  C 2.31676136363636 4.31222098214286  2.38068181818182 4.28571428571429  2.45454545454545 4.28571428571429  L 3 4.28571428571429  C 3.07386363636364 4.28571428571429  3.13778409090909 4.31222098214286  3.19176136363636 4.365234375  Z M 9.73721590909091 8.65094866071428  C 9.79119318181818 8.70396205357143  9.81818181818182 8.76674107142857  9.81818181818182 8.83928571428572  L 9.81818181818182 9.375  C 9.81818181818182 9.44754464285714  9.79119318181818 9.51032366071428  9.73721590909091 9.56333705357143  C 9.68323863636364 9.61635044642857  9.61931818181818 9.64285714285714  9.54545454545455 9.64285714285714  L 9 9.64285714285714  C 8.92613636363637 9.64285714285714  8.86221590909091 9.61635044642857  8.80823863636364 9.56333705357143  C 8.75426136363637 9.51032366071428  8.72727272727273 9.44754464285714  8.72727272727273 9.375  L 8.72727272727273 8.83928571428572  C 8.72727272727273 8.76674107142857  8.75426136363637 8.70396205357143  8.80823863636364 8.65094866071428  C 8.86221590909091 8.59793526785714  8.92613636363637 8.57142857142857  9 8.57142857142857  L 9.54545454545455 8.57142857142857  C 9.61931818181818 8.57142857142857  9.68323863636364 8.59793526785714  9.73721590909091 8.65094866071428  Z M 7.55539772727273 6.50809151785714  C 7.609375 6.56110491071428  7.63636363636364 6.62388392857143  7.63636363636364 6.69642857142857  L 7.63636363636364 7.23214285714286  C 7.63636363636364 7.3046875  7.609375 7.36746651785714  7.55539772727273 7.42047991071429  C 7.50142045454546 7.47349330357143  7.4375 7.5  7.36363636363636 7.5  L 6.81818181818182 7.5  C 6.74431818181818 7.5  6.68039772727273 7.47349330357143  6.62642045454546 7.42047991071429  C 6.57244318181818 7.36746651785714  6.54545454545455 7.3046875  6.54545454545455 7.23214285714286  L 6.54545454545455 6.69642857142857  C 6.54545454545455 6.62388392857143  6.57244318181818 6.56110491071428  6.62642045454546 6.50809151785714  C 6.68039772727273 6.455078125  6.74431818181818 6.42857142857143  6.81818181818182 6.42857142857143  L 7.36363636363636 6.42857142857143  C 7.4375 6.42857142857143  7.50142045454546 6.455078125  7.55539772727273 6.50809151785714  Z M 5.37357954545455 4.365234375  C 5.42755681818182 4.41824776785714  5.45454545454545 4.48102678571428  5.45454545454545 4.55357142857143  L 5.45454545454545 5.08928571428571  C 5.45454545454545 5.16183035714286  5.42755681818182 5.224609375  5.37357954545455 5.27762276785714  C 5.31960227272727 5.33063616071428  5.25568181818182 5.35714285714286  5.18181818181818 5.35714285714286  L 4.63636363636364 5.35714285714286  C 4.5625 5.35714285714286  4.49857954545455 5.33063616071428  4.44460227272727 5.27762276785714  C 4.390625 5.224609375  4.36363636363636 5.16183035714286  4.36363636363636 5.08928571428571  L 4.36363636363636 4.55357142857143  C 4.36363636363636 4.48102678571428  4.390625 4.41824776785714  4.44460227272727 4.365234375  C 4.49857954545455 4.31222098214286  4.5625 4.28571428571429  4.63636363636364 4.28571428571429  L 5.18181818181818 4.28571428571429  C 5.25568181818182 4.28571428571429  5.31960227272727 4.31222098214286  5.37357954545455 4.365234375  Z M 3.19176136363636 2.22237723214286  C 3.24573863636364 2.275390625  3.27272727272727 2.33816964285714  3.27272727272727 2.41071428571429  L 3.27272727272727 2.94642857142857  C 3.27272727272727 3.01897321428571  3.24573863636364 3.08175223214286  3.19176136363636 3.134765625  C 3.13778409090909 3.18777901785714  3.07386363636364 3.21428571428571  3 3.21428571428571  L 2.45454545454545 3.21428571428571  C 2.38068181818182 3.21428571428571  2.31676136363636 3.18777901785714  2.26278409090909 3.134765625  C 2.20880681818182 3.08175223214286  2.18181818181818 3.01897321428571  2.18181818181818 2.94642857142857  L 2.18181818181818 2.41071428571429  C 2.18181818181818 2.33816964285714  2.20880681818182 2.275390625  2.26278409090909 2.22237723214286  C 2.31676136363636 2.16936383928571  2.38068181818182 2.14285714285714  2.45454545454545 2.14285714285714  L 3 2.14285714285714  C 3.07386363636364 2.14285714285714  3.13778409090909 2.16936383928571  3.19176136363636 2.22237723214286  Z M 9.73721590909091 6.50809151785714  C 9.79119318181818 6.56110491071428  9.81818181818182 6.62388392857143  9.81818181818182 6.69642857142857  L 9.81818181818182 7.23214285714286  C 9.81818181818182 7.3046875  9.79119318181818 7.36746651785714  9.73721590909091 7.42047991071429  C 9.68323863636364 7.47349330357143  9.61931818181818 7.5  9.54545454545455 7.5  L 9 7.5  C 8.92613636363637 7.5  8.86221590909091 7.47349330357143  8.80823863636364 7.42047991071429  C 8.75426136363637 7.36746651785714  8.72727272727273 7.3046875  8.72727272727273 7.23214285714286  L 8.72727272727273 6.69642857142857  C 8.72727272727273 6.62388392857143  8.75426136363637 6.56110491071428  8.80823863636364 6.50809151785714  C 8.86221590909091 6.455078125  8.92613636363637 6.42857142857143  9 6.42857142857143  L 9.54545454545455 6.42857142857143  C 9.61931818181818 6.42857142857143  9.68323863636364 6.455078125  9.73721590909091 6.50809151785714  Z M 7.55539772727273 4.365234375  C 7.609375 4.41824776785714  7.63636363636364 4.48102678571428  7.63636363636364 4.55357142857143  L 7.63636363636364 5.08928571428571  C 7.63636363636364 5.16183035714286  7.609375 5.224609375  7.55539772727273 5.27762276785714  C 7.50142045454546 5.33063616071428  7.4375 5.35714285714286  7.36363636363636 5.35714285714286  L 6.81818181818182 5.35714285714286  C 6.74431818181818 5.35714285714286  6.68039772727273 5.33063616071428  6.62642045454546 5.27762276785714  C 6.57244318181818 5.224609375  6.54545454545455 5.16183035714286  6.54545454545455 5.08928571428571  L 6.54545454545455 4.55357142857143  C 6.54545454545455 4.48102678571428  6.57244318181818 4.41824776785714  6.62642045454546 4.365234375  C 6.68039772727273 4.31222098214286  6.74431818181818 4.28571428571429  6.81818181818182 4.28571428571429  L 7.36363636363636 4.28571428571429  C 7.4375 4.28571428571429  7.50142045454546 4.31222098214286  7.55539772727273 4.365234375  Z M 5.37357954545455 2.22237723214286  C 5.42755681818182 2.275390625  5.45454545454545 2.33816964285714  5.45454545454545 2.41071428571429  L 5.45454545454545 2.94642857142857  C 5.45454545454545 3.01897321428571  5.42755681818182 3.08175223214286  5.37357954545455 3.134765625  C 5.31960227272727 3.18777901785714  5.25568181818182 3.21428571428571  5.18181818181818 3.21428571428571  L 4.63636363636364 3.21428571428571  C 4.5625 3.21428571428571  4.49857954545455 3.18777901785714  4.44460227272727 3.134765625  C 4.390625 3.08175223214286  4.36363636363636 3.01897321428571  4.36363636363636 2.94642857142857  L 4.36363636363636 2.41071428571429  C 4.36363636363636 2.33816964285714  4.390625 2.275390625  4.44460227272727 2.22237723214286  C 4.49857954545455 2.16936383928571  4.5625 2.14285714285714  4.63636363636364 2.14285714285714  L 5.18181818181818 2.14285714285714  C 5.25568181818182 2.14285714285714  5.31960227272727 2.16936383928571  5.37357954545455 2.22237723214286  Z M 9.73721590909091 4.365234375  C 9.79119318181818 4.41824776785714  9.81818181818182 4.48102678571428  9.81818181818182 4.55357142857143  L 9.81818181818182 5.08928571428571  C 9.81818181818182 5.16183035714286  9.79119318181818 5.224609375  9.73721590909091 5.27762276785714  C 9.68323863636364 5.33063616071428  9.61931818181818 5.35714285714286  9.54545454545455 5.35714285714286  L 9 5.35714285714286  C 8.92613636363637 5.35714285714286  8.86221590909091 5.33063616071428  8.80823863636364 5.27762276785714  C 8.75426136363637 5.224609375  8.72727272727273 5.16183035714286  8.72727272727273 5.08928571428571  L 8.72727272727273 4.55357142857143  C 8.72727272727273 4.48102678571428  8.75426136363637 4.41824776785714  8.80823863636364 4.365234375  C 8.86221590909091 4.31222098214286  8.92613636363637 4.28571428571429  9 4.28571428571429  L 9.54545454545455 4.28571428571429  C 9.61931818181818 4.28571428571429  9.68323863636364 4.31222098214286  9.73721590909091 4.365234375  Z M 7.55539772727273 2.22237723214286  C 7.609375 2.275390625  7.63636363636364 2.33816964285714  7.63636363636364 2.41071428571429  L 7.63636363636364 2.94642857142857  C 7.63636363636364 3.01897321428571  7.609375 3.08175223214286  7.55539772727273 3.134765625  C 7.50142045454546 3.18777901785714  7.4375 3.21428571428571  7.36363636363636 3.21428571428571  L 6.81818181818182 3.21428571428571  C 6.74431818181818 3.21428571428571  6.68039772727273 3.18777901785714  6.62642045454546 3.134765625  C 6.57244318181818 3.08175223214286  6.54545454545455 3.01897321428571  6.54545454545455 2.94642857142857  L 6.54545454545455 2.41071428571429  C 6.54545454545455 2.33816964285714  6.57244318181818 2.275390625  6.62642045454546 2.22237723214286  C 6.68039772727273 2.16936383928571  6.74431818181818 2.14285714285714  6.81818181818182 2.14285714285714  L 7.36363636363636 2.14285714285714  C 7.4375 2.14285714285714  7.50142045454546 2.16936383928571  7.55539772727273 2.22237723214286  Z M 9.73721590909091 2.22237723214286  C 9.79119318181818 2.275390625  9.81818181818182 2.33816964285714  9.81818181818182 2.41071428571429  L 9.81818181818182 2.94642857142857  C 9.81818181818182 3.01897321428571  9.79119318181818 3.08175223214286  9.73721590909091 3.134765625  C 9.68323863636364 3.18777901785714  9.61931818181818 3.21428571428571  9.54545454545455 3.21428571428571  L 9 3.21428571428571  C 8.92613636363637 3.21428571428571  8.86221590909091 3.18777901785714  8.80823863636364 3.134765625  C 8.75426136363637 3.08175223214286  8.72727272727273 3.01897321428571  8.72727272727273 2.94642857142857  L 8.72727272727273 2.41071428571429  C 8.72727272727273 2.33816964285714  8.75426136363637 2.275390625  8.80823863636364 2.22237723214286  C 8.86221590909091 2.16936383928571  8.92613636363637 2.14285714285714  9 2.14285714285714  L 9.54545454545455 2.14285714285714  C 9.61931818181818 2.14285714285714  9.68323863636364 2.16936383928571  9.73721590909091 2.22237723214286  Z M 7.63636363636364 12.0535714285714  L 7.63636363636364 13.9285714285714  L 11 13.9285714285714  L 11 1.07142857142857  L 1 1.07142857142857  L 1 13.9285714285714  L 4.36363636363636 13.9285714285714  L 4.36363636363636 12.0535714285714  C 4.36363636363636 11.9810267857143  4.390625 11.9182477678571  4.44460227272727 11.865234375  C 4.49857954545455 11.8122209821429  4.5625 11.7857142857143  4.63636363636364 11.7857142857143  L 7.36363636363636 11.7857142857143  C 7.4375 11.7857142857143  7.50142045454546 11.8122209821429  7.55539772727273 11.865234375  C 7.609375 11.9182477678571  7.63636363636364 11.9810267857143  7.63636363636364 12.0535714285714  Z M 11.8380681818182 0.159040178571429  C 11.9460227272727 0.265066964285712  12 0.390624999999999  12 0.535714285714285  L 12 14.4642857142857  C 12 14.609375  11.9460227272727 14.7349330357143  11.8380681818182 14.8409598214286  C 11.7301136363636 14.9469866071429  11.6022727272727 15  11.4545454545455 15  L 0.545454545454545 15  C 0.397727272727273 15  0.269886363636364 14.9469866071429  0.161931818181818 14.8409598214286  C 0.0539772727272727 14.7349330357143  0 14.609375  0 14.4642857142857  L 0 0.535714285714285  C 0 0.390624999999999  0.0539772727272727 0.265066964285712  0.161931818181818 0.159040178571429  C 0.269886363636364 0.0530133928571441  0.397727272727273 0  0.545454545454545 0  L 11.4545454545455 0  C 11.6022727272727 0  11.7301136363636 0.0530133928571441  11.8380681818182 0.159040178571429  Z " fill-rule="nonzero" fill="#000000" stroke="none" transform="matrix(1 0 0 1 16 488 )" />
  </g>
</svg>