<?xml version="1.0" encoding="utf-8"?>
<svg version="1.1" xmlns:xlink="http://www.w3.org/1999/xlink" width="15px" height="15px" xmlns="http://www.w3.org/2000/svg">
  <g transform="matrix(1 0 0 1 -121 -212 )">
    <path d="M 14.1796875 4.56818181818182  C 14.7265625 4.88636363636363  15 5.27272727272727  15 5.72727272727273  L 15 9.27272727272727  C 15 9.5  14.86328125 9.69318181818182  14.58984375 9.85227272727273  C 14.31640625 10.0113636363636  13.984375 10.0909090909091  13.59375 10.0909090909091  C 13.203125 10.0909090909091  12.87109375 10.0113636363636  12.59765625 9.85227272727273  C 12.32421875 9.69318181818182  12.1875 9.5  12.1875 9.27272727272727  L 12.1875 6.27272727272727  L 11.25 6.27272727272727  L 11.25 14.0454545454545  C 11.25 14.3068181818182  11.0888671875 14.53125  10.7666015625 14.71875  C 10.4443359375 14.90625  10.05859375 15  9.609375 15  C 9.16015625 15  8.7744140625 14.90625  8.4521484375 14.71875  C 8.1298828125 14.53125  7.96875 14.3068181818182  7.96875 14.0454545454545  L 7.96875 10.0909090909091  L 7.03125 10.0909090909091  L 7.03125 14.0454545454545  C 7.03125 14.3068181818182  6.8701171875 14.53125  6.5478515625 14.71875  C 6.2255859375 14.90625  5.83984375 15  5.390625 15  C 4.94140625 15  4.5556640625 14.90625  4.2333984375 14.71875  C 3.9111328125 14.53125  3.75 14.3068181818182  3.75 14.0454545454545  L 3.75 6.27272727272727  L 2.8125 6.27272727272727  L 2.8125 9.27272727272727  C 2.8125 9.5  2.67578125 9.69318181818182  2.40234375 9.85227272727273  C 2.12890625 10.0113636363636  1.796875 10.0909090909091  1.40625 10.0909090909091  C 1.015625 10.0909090909091  0.68359375 10.0113636363636  0.41015625 9.85227272727273  C 0.13671875 9.69318181818182  0 9.5  0 9.27272727272727  L 0 5.72727272727273  C 0 5.27272727272727  0.2734375 4.88636363636363  0.8203125 4.56818181818182  C 1.3671875 4.25  2.03125 4.09090909090909  2.8125 4.09090909090909  L 12.1875 4.09090909090909  C 12.96875 4.09090909090909  13.6328125 4.25  14.1796875 4.56818181818182  Z M 9.82177734375 0.558238636363637  C 10.46142578125 0.930397727272725  10.78125 1.38068181818182  10.78125 1.90909090909091  C 10.78125 2.4375  10.46142578125 2.88778409090909  9.82177734375 3.25994318181818  C 9.18212890625 3.63210227272727  8.408203125 3.81818181818182  7.5 3.81818181818182  C 6.591796875 3.81818181818182  5.81787109375 3.63210227272727  5.17822265625 3.25994318181818  C 4.53857421875 2.88778409090909  4.21875 2.4375  4.21875 1.90909090909091  C 4.21875 1.38068181818182  4.53857421875 0.930397727272725  5.17822265625 0.558238636363637  C 5.81787109375 0.186079545454544  6.591796875 0  7.5 0  C 8.408203125 0  9.18212890625 0.186079545454544  9.82177734375 0.558238636363637  Z " fill-rule="nonzero" fill="#7f7f7f" stroke="none" transform="matrix(1 0 0 1 121 212 )" />
  </g>
</svg>