<?xml version="1.0" encoding="utf-8"?>
<svg version="1.1" xmlns:xlink="http://www.w3.org/1999/xlink" width="50px" height="18px" xmlns="http://www.w3.org/2000/svg">
  <defs>
    <mask fill="white" id="clip117">
      <path d="M 7.5 18  C 3.30000000000001 18  0 14.04  0 9  C 0 3.96  3.30000000000001 0  7.5 0  L 28 0  L 33 0  L 41 0  L 42.5 0  C 46.7 0  50 3.96  50 9  C 50 14.04  46.7 18  42.5 18  L 7.5 18  Z " fill-rule="evenodd" />
    </mask>
  </defs>
  <g transform="matrix(1 0 0 1 -177 -171 )">
    <path d="M 7.5 18  C 3.30000000000001 18  0 14.04  0 9  C 0 3.96  3.30000000000001 0  7.5 0  L 28 0  L 33 0  L 41 0  L 42.5 0  C 46.7 0  50 3.96  50 9  C 50 14.04  46.7 18  42.5 18  L 7.5 18  Z " fill-rule="nonzero" fill="#ffffff" stroke="none" transform="matrix(1 0 0 1 177 171 )" />
    <path d="M 7.5 18  C 3.30000000000001 18  0 14.04  0 9  C 0 3.96  3.30000000000001 0  7.5 0  L 28 0  L 33 0  L 41 0  L 42.5 0  C 46.7 0  50 3.96  50 9  C 50 14.04  46.7 18  42.5 18  L 7.5 18  Z " stroke-width="2" stroke="#797979" fill="none" transform="matrix(1 0 0 1 177 171 )" mask="url(#clip117)" />
  </g>
</svg>