<?xml version="1.0" encoding="utf-8"?>
<svg version="1.1" xmlns:xlink="http://www.w3.org/1999/xlink" width="110px" height="81px" xmlns="http://www.w3.org/2000/svg">
  <g transform="matrix(1 0 0 1 -16 -273 )">
    <path d="M 16 273  L 126 273  L 126 354  L 16 354  L 16 273  " fill-rule="nonzero" fill="#cccccc" stroke="none" />
    <path d="M 22 279  L 120 279  L 120 348  L 22 348  L 22 279  " fill-rule="nonzero" fill="#ffffff" stroke="none" />
    <path d="M 79.275 297.3  C 75.873 297.3  73.2 294.627  73.2 291.225  C 73.2 287.823  75.873 285.15  79.275 285.15  C 82.677 285.15  85.35 287.823  85.35 291.225  C 85.35 294.627  82.677 297.3  79.275 297.3  " fill-rule="nonzero" fill="#cccccc" stroke="none" />
    <path d="M 24 346  L 24 310.25  L 47.5 294  L 80.4 317.281818181818  L 99.2 303.75  L 118 317.281818181818  L 118 346  L 24 346  " fill-rule="nonzero" fill="#169bd5" stroke="none" />
  </g>
</svg>