<?xml version="1.0" encoding="utf-8"?>
<svg version="1.1" xmlns:xlink="http://www.w3.org/1999/xlink" width="16px" height="15px" xmlns="http://www.w3.org/2000/svg">
  <g transform="matrix(1 0 0 1 -133 -335 )">
    <path d="M 15.125 4.56818181818182  C 15.7083333333333 4.88636363636363  16 5.27272727272727  16 5.72727272727273  L 16 9.27272727272727  C 16 9.5  15.8541666666667 9.69318181818182  15.5625 9.85227272727273  C 15.2708333333333 10.0113636363636  14.9166666666667 10.0909090909091  14.5 10.0909090909091  C 14.0833333333333 10.0909090909091  13.7291666666667 10.0113636363636  13.4375 9.85227272727273  C 13.1458333333333 9.69318181818182  13 9.5  13 9.27272727272727  L 13 6.27272727272727  L 12 6.27272727272727  L 12 14.0454545454545  C 12 14.3068181818182  11.828125 14.53125  11.484375 14.71875  C 11.140625 14.90625  10.7291666666667 15  10.25 15  C 9.77083333333333 15  9.359375 14.90625  9.015625 14.71875  C 8.671875 14.53125  8.5 14.3068181818182  8.5 14.0454545454545  L 8.5 10.0909090909091  L 7.5 10.0909090909091  L 7.5 14.0454545454545  C 7.5 14.3068181818182  7.328125 14.53125  6.984375 14.71875  C 6.640625 14.90625  6.22916666666667 15  5.75 15  C 5.27083333333333 15  4.859375 14.90625  4.515625 14.71875  C 4.171875 14.53125  4 14.3068181818182  4 14.0454545454545  L 4 6.27272727272727  L 3 6.27272727272727  L 3 9.27272727272727  C 3 9.5  2.85416666666667 9.69318181818182  2.5625 9.85227272727273  C 2.27083333333333 10.0113636363636  1.91666666666667 10.0909090909091  1.5 10.0909090909091  C 1.08333333333333 10.0909090909091  0.729166666666667 10.0113636363636  0.4375 9.85227272727273  C 0.145833333333333 9.69318181818182  0 9.5  0 9.27272727272727  L 0 5.72727272727273  C 0 5.27272727272727  0.291666666666667 4.88636363636363  0.875 4.56818181818182  C 1.45833333333333 4.25  2.16666666666667 4.09090909090909  3 4  L 13 4  C 13.8333333333333 4.09090909090909  14.5416666666667 4.25  15.125 4.56818181818182  Z M 10.4765625 0.558238636363637  C 11.1588541666667 0.930397727272725  11.5 1.38068181818182  11.5 1.90909090909091  C 11.5 2.4375  11.1588541666667 2.88778409090909  10.4765625 3.25994318181818  C 9.79427083333333 3.63210227272727  8.96875 3.81818181818182  8 3.81818181818182  C 7.03125 3.81818181818182  6.20572916666667 3.63210227272727  5.5234375 3.25994318181818  C 4.84114583333333 2.88778409090909  4.5 2.4375  4.5 1.90909090909091  C 4.5 1.38068181818182  4.84114583333333 0.930397727272725  5.5234375 0.558238636363637  C 6.20572916666667 0.186079545454544  7.03125 0  8 0  C 8.96875 0  9.79427083333333 0.186079545454544  10.4765625 0.558238636363637  Z " fill-rule="nonzero" fill="#7f7f7f" stroke="none" transform="matrix(1 0 0 1 133 335 )" />
  </g>
</svg>