<?xml version="1.0" encoding="utf-8"?>
<svg version="1.1" xmlns:xlink="http://www.w3.org/1999/xlink" width="50px" height="15px" xmlns="http://www.w3.org/2000/svg">
  <defs>
    <mask fill="white" id="clip118">
      <path d="M 7.5 15  C 3.30000000000001 15  0 11.7  0 7.5  C 0 3.3  3.30000000000001 0  7.5 0  L 28 0  L 33 0  L 41 0  L 42.5 0  C 46.7 0  50 3.3  50 7.5  C 50 11.7  46.7 15  42.5 15  L 7.5 15  Z " fill-rule="evenodd" />
    </mask>
  </defs>
  <g transform="matrix(1 0 0 1 -177 -425 )">
    <path d="M 7.5 15  C 3.30000000000001 15  0 11.7  0 7.5  C 0 3.3  3.30000000000001 0  7.5 0  L 28 0  L 33 0  L 41 0  L 42.5 0  C 46.7 0  50 3.3  50 7.5  C 50 11.7  46.7 15  42.5 15  L 7.5 15  Z " fill-rule="nonzero" fill="#ffffff" stroke="none" transform="matrix(1 0 0 1 177 425 )" />
    <path d="M 7.5 15  C 3.30000000000001 15  0 11.7  0 7.5  C 0 3.3  3.30000000000001 0  7.5 0  L 28 0  L 33 0  L 41 0  L 42.5 0  C 46.7 0  50 3.3  50 7.5  C 50 11.7  46.7 15  42.5 15  L 7.5 15  Z " stroke-width="2" stroke="#797979" fill="none" transform="matrix(1 0 0 1 177 425 )" mask="url(#clip118)" />
  </g>
</svg>