<?xml version="1.0" encoding="utf-8"?>
<svg version="1.1" xmlns:xlink="http://www.w3.org/1999/xlink" width="25px" height="29px" xmlns="http://www.w3.org/2000/svg">
  <g transform="matrix(1 0 0 1 -11 -112 )">
    <path d="M 20.8333333333333 8.28571428571428  C 20.8333333333333 9.87165178571428  20.4047309027778 11.3389136904762  19.5475260416667 12.6875  C 20.0575086805556 12.8385416666667  20.5430772569444 13.0435267857143  21.0042317708333 13.3024553571429  C 21.4653862847222 13.5613839285714  21.9482421875 13.9551711309524  22.4527994791667 14.4838169642857  C 22.9573567708333 15.012462797619  23.388671875 15.635509672619  23.7467447916667 16.3529575892857  C 24.1048177083333 17.0704055059524  24.4032118055556 17.9982328869048  24.6419270833333 19.1364397321429  C 24.8806423611111 20.274646577381  25 21.5504092261905  25 22.9637276785714  C 25 24.6251860119048  24.4574652777778 26.0465959821429  23.3723958333333 27.2279575892857  C 22.2873263888889 28.4093191964286  20.9798177083333 29  19.4498697916667 29  L 5.55013020833333 29  C 4.02018229166667 29  2.71267361111111 28.4093191964286  1.62760416666667 27.2279575892857  C 0.542534722222222 26.0465959821429  0 24.6251860119048  0 22.9637276785714  C 0 21.5504092261905  0.119357638888889 20.274646577381  0.358072916666667 19.1364397321429  C 0.596788194444445 17.9982328869048  0.895182291666667 17.0704055059524  1.25325520833333 16.3529575892857  C 1.611328125 15.635509672619  2.04264322916667 15.012462797619  2.54720052083333 14.4838169642857  C 3.0517578125 13.9551711309524  3.53461371527778 13.5613839285714  3.99576822916667 13.3024553571429  C 4.45692274305556 13.0435267857143  4.94249131944444 12.8385416666667  5.45247395833333 12.6875  C 4.59526909722222 11.3389136904762  4.16666666666667 9.87165178571428  4.16666666666667 8.28571428571428  C 4.16666666666667 7.16369047619047  4.38639322916667 6.09291294642857  4.82584635416667 5.07338169642857  C 5.26529947916667 4.05385044642857  5.859375 3.171875  6.60807291666667 2.42745535714286  C 7.35677083333333 1.68303571428571  8.24381510416667 1.09235491071429  9.26920572916667 0.655412946428571  C 10.2945963541667 0.218470982142856  11.3715277777778 0  12.5 0  C 13.6284722222222 0  14.7054036458333 0.218470982142856  15.7307942708333 0.655412946428571  C 16.7561848958333 1.09235491071429  17.6432291666667 1.68303571428571  18.3919270833333 2.42745535714286  C 19.140625 3.171875  19.7347005208333 4.05385044642857  20.1741536458333 5.07338169642857  C 20.6136067708333 6.09291294642857  20.8333333333333 7.16369047619047  20.8333333333333 8.28571428571428  Z M 16.9189453125 3.89202008928571  C 15.6982421875 2.67829241071429  14.2252604166667 2.07142857142857  12.5 2.07142857142857  C 10.7747395833333 2.07142857142857  9.3017578125 2.67829241071429  8.0810546875 3.89202008928571  C 6.8603515625 5.10574776785714  6.25 6.5703125  6.25 8.28571428571428  C 6.25 10.0011160714286  6.8603515625 11.4656808035714  8.0810546875 12.6794084821429  C 9.3017578125 13.8931361607143  10.7747395833333 14.5  12.5 14.5  C 14.2252604166667 14.5  15.6982421875 13.8931361607143  16.9189453125 12.6794084821429  C 18.1396484375 11.4656808035714  18.75 10.0011160714286  18.75 8.28571428571428  C 18.75 6.5703125  18.1396484375 5.10574776785714  16.9189453125 3.89202008928571  Z M 5.55013020833333 27  L 19.4498697916667 27  C 20.4047309027778 26.9285714285714  21.2212456597222 26.5428757440476  21.8994140625 25.771484375  C 22.5775824652778 25.0000930059524  22.9166666666667 24.0641741071429  22.9166666666667 22.9637276785714  C 22.9166666666667 20.3852306547619  22.4907769097222 18.3515625  21.6389973958333 16.8627232142857  C 20.7872178819444 15.3738839285714  19.5638020833333 14.5917038690476  17.96875 14.5161830357143  C 16.3953993055556 15.8863467261905  14.5724826388889 16.5714285714286  12.5 16.5714285714286  C 10.4275173611111 16.5714285714286  8.60460069444445 15.8863467261905  7.03125 14.5161830357143  C 5.43619791666667 14.5917038690476  4.21278211805556 15.3738839285714  3.36100260416667 16.8627232142857  C 2.50922309027778 18.3515625  2.08333333333333 20.3852306547619  2.08333333333333 22.9637276785714  C 2.08333333333333 24.0641741071429  2.42241753472222 25.0000930059524  3.1005859375 25.771484375  C 3.77875434027778 26.5428757440476  4.59526909722222 26.9285714285714  5.55013020833333 27  Z " fill-rule="nonzero" fill="#000000" stroke="none" transform="matrix(1 0 0 1 11 112 )" />
  </g>
</svg>