<?xml version="1.0" encoding="utf-8"?>
<svg version="1.1" xmlns:xlink="http://www.w3.org/1999/xlink" width="30px" height="8px" xmlns="http://www.w3.org/2000/svg">
  <g transform="matrix(1 0 0 1 -337 -30 )">
    <path d="M 7.58522727272727 0.583333333333333  C 7.98295454545454 0.972222222222219  8.18181818181818 1.44444444444444  8.18181818181818 2  L 8.18181818181818 6  C 8.18181818181818 6.55555555555555  7.98295454545454 7.02777777777778  7.58522727272727 7.41666666666667  C 7.1875 7.80555555555555  6.70454545454546 8  6.13636363636364 8  L 2.04545454545455 8  C 1.47727272727273 8  0.994318181818182 7.80555555555555  0.596590909090909 7.41666666666667  C 0.198863636363636 7.02777777777778  0 6.55555555555555  0 6  L 0 2  C 0 1.44444444444444  0.198863636363636 0.972222222222219  0.596590909090909 0.583333333333333  C 0.994318181818182 0.194444444444443  1.47727272727273 0  2.04545454545455 0  L 6.13636363636364 0  C 6.70454545454546 0  7.1875 0.194444444444443  7.58522727272727 0.583333333333333  Z M 18.4943181818182 0.583333333333333  C 18.8920454545455 0.972222222222219  19.0909090909091 1.44444444444444  19.0909090909091 2  L 19.0909090909091 6  C 19.0909090909091 6.55555555555555  18.8920454545455 7.02777777777778  18.4943181818182 7.41666666666667  C 18.0965909090909 7.80555555555555  17.6136363636364 8  17.0454545454545 8  L 12.9545454545455 8  C 12.3863636363636 8  11.9034090909091 7.80555555555555  11.5056818181818 7.41666666666667  C 11.1079545454545 7.02777777777778  10.9090909090909 6.55555555555555  10.9090909090909 6  L 10.9090909090909 2  C 10.9090909090909 1.44444444444444  11.1079545454545 0.972222222222219  11.5056818181818 0.583333333333333  C 11.9034090909091 0.194444444444443  12.3863636363636 0  12.9545454545455 0  L 17.0454545454545 0  C 17.6136363636364 0  18.0965909090909 0.194444444444443  18.4943181818182 0.583333333333333  Z M 29.4034090909091 0.583333333333333  C 29.8011363636364 0.972222222222219  30 1.44444444444444  30 2  L 30 6  C 30 6.55555555555555  29.8011363636364 7.02777777777778  29.4034090909091 7.41666666666667  C 29.0056818181818 7.80555555555555  28.5227272727273 8  27.9545454545455 8  L 23.8636363636364 8  C 23.2954545454545 8  22.8125 7.80555555555555  22.4147727272727 7.41666666666667  C 22.0170454545455 7.02777777777778  21.8181818181818 6.55555555555555  21.8181818181818 6  L 21.8181818181818 2  C 21.8181818181818 1.44444444444444  22.0170454545455 0.972222222222219  22.4147727272727 0.583333333333333  C 22.8125 0.194444444444443  23.2954545454545 0  23.8636363636364 0  L 27.9545454545455 0  C 28.5227272727273 0  29.0056818181818 0.194444444444443  29.4034090909091 0.583333333333333  Z " fill-rule="nonzero" fill="#000000" stroke="none" transform="matrix(1 0 0 1 337 30 )" />
  </g>
</svg>