<?xml version="1.0" encoding="utf-8"?>
<svg version="1.1" xmlns:xlink="http://www.w3.org/1999/xlink" width="80px" height="16px" xmlns="http://www.w3.org/2000/svg">
  <defs>
    <mask fill="white" id="clip146">
      <path d="M 0 16  L 0 0  L 40 0  L 57.1428571428571 0  L 66.2857142857143 0  L 80 0  L 80 16  L 46.8571428571429 16  L 0 16  Z " fill-rule="evenodd" />
    </mask>
  </defs>
  <g transform="matrix(1 0 0 1 -277 -204 )">
    <path d="M 0 16  L 0 0  L 40 0  L 57.1428571428571 0  L 66.2857142857143 0  L 80 0  L 80 16  L 46.8571428571429 16  L 0 16  Z " fill-rule="nonzero" fill="#ffffff" stroke="none" fill-opacity="0" transform="matrix(1 0 0 1 277 204 )" />
    <path d="M 0 16  L 0 0  L 40 0  L 57.1428571428571 0  L 66.2857142857143 0  L 80 0  L 80 16  L 46.8571428571429 16  L 0 16  Z " stroke-width="2" stroke="#d7d7d7" fill="none" transform="matrix(1 0 0 1 277 204 )" mask="url(#clip146)" />
  </g>
</svg>