<?xml version="1.0" encoding="utf-8"?>
<svg version="1.1" xmlns:xlink="http://www.w3.org/1999/xlink" width="80px" height="18px" xmlns="http://www.w3.org/2000/svg">
  <defs>
    <mask fill="white" id="clip144">
      <path d="M 0 18  L 0 0  L 40 0  L 66.2857142857143 0  L 80 0  L 80 18  L 0 18  Z " fill-rule="evenodd" />
    </mask>
  </defs>
  <g transform="matrix(1 0 0 1 -14 -191 )">
    <path d="M 0 18  L 0 0  L 40 0  L 66.2857142857143 0  L 80 0  L 80 18  L 0 18  Z " fill-rule="nonzero" fill="#ffffff" stroke="none" fill-opacity="0" transform="matrix(1 0 0 1 14 191 )" />
    <path d="M 0 18  L 0 0  L 40 0  L 66.2857142857143 0  L 80 0  L 80 18  L 0 18  Z " stroke-width="2" stroke="#d7d7d7" fill="none" transform="matrix(1 0 0 1 14 191 )" mask="url(#clip144)" />
  </g>
</svg>