<?xml version="1.0" encoding="utf-8"?>
<svg version="1.1" xmlns:xlink="http://www.w3.org/1999/xlink" width="15px" height="15px" xmlns="http://www.w3.org/2000/svg">
  <defs>
    <mask fill="white" id="clip148">
      <path d="M 0 7.5  C 0 3.30000000000001  3.3 0  7.5 0  C 10.4250932146533 0  12.9136471275509 1.60064410643736  14.1549200564739 3.9911906370931  C 14.6959343872166 5.03312784657271  15 6.22509321465327  15 7.5  C 15 11.7  11.7 15  7.5 15  C 3.3 15  0 11.7  0 7.5  Z " fill-rule="evenodd" />
    </mask>
  </defs>
  <g transform="matrix(1 0 0 1 -153 -119 )">
    <path d="M 0 7.5  C 0 3.30000000000001  3.3 0  7.5 0  C 10.4250932146533 0  12.9136471275509 1.60064410643736  14.1549200564739 3.9911906370931  C 14.6959343872166 5.03312784657271  15 6.22509321465327  15 7.5  C 15 11.7  11.7 15  7.5 15  C 3.3 15  0 11.7  0 7.5  Z " fill-rule="nonzero" fill="#ffffff" stroke="none" transform="matrix(1 0 0 1 153 119 )" />
    <path d="M 0 7.5  C 0 3.30000000000001  3.3 0  7.5 0  C 10.4250932146533 0  12.9136471275509 1.60064410643736  14.1549200564739 3.9911906370931  C 14.6959343872166 5.03312784657271  15 6.22509321465327  15 7.5  C 15 11.7  11.7 15  7.5 15  C 3.3 15  0 11.7  0 7.5  Z " stroke-width="2" stroke="#797979" fill="none" transform="matrix(1 0 0 1 153 119 )" mask="url(#clip148)" />
  </g>
</svg>