<?xml version="1.0" encoding="utf-8"?>
<svg version="1.1" xmlns:xlink="http://www.w3.org/1999/xlink" width="48px" height="18px" xmlns="http://www.w3.org/2000/svg">
  <defs>
    <mask fill="white" id="clip150">
      <path d="M 0 18  L 0 0  L 24 0  L 39.7714285714286 0  L 48 0  L 48 18  L 0 18  Z " fill-rule="evenodd" />
    </mask>
  </defs>
  <g transform="matrix(1 0 0 1 -16 -136 )">
    <path d="M 0 18  L 0 0  L 24 0  L 39.7714285714286 0  L 48 0  L 48 18  L 0 18  Z " fill-rule="nonzero" fill="#ffffff" stroke="none" fill-opacity="0" transform="matrix(1 0 0 1 16 136 )" />
    <path d="M 0 18  L 0 0  L 24 0  L 39.7714285714286 0  L 48 0  L 48 18  L 0 18  Z " stroke-width="2" stroke="#d7d7d7" fill="none" transform="matrix(1 0 0 1 16 136 )" mask="url(#clip150)" />
  </g>
</svg>