<?xml version="1.0" encoding="utf-8"?>
<svg version="1.1" xmlns:xlink="http://www.w3.org/1999/xlink" width="13px" height="20px" xmlns="http://www.w3.org/2000/svg">
  <g transform="matrix(1 0 0 1 -333 -232 )">
    <path d="M 8.7978515625 9.0234375  C 9.4326171875 8.37239583333333  9.75 7.58680555555556  9.75 6.66666666666667  C 9.75 5.74652777777778  9.4326171875 4.9609375  8.7978515625 4.30989583333333  C 8.1630859375 3.65885416666667  7.39713541666667 3.33333333333333  6.5 3.33333333333333  C 5.60286458333333 3.33333333333333  4.8369140625 3.65885416666667  4.2021484375 4.30989583333333  C 3.5673828125 4.9609375  3.25 5.74652777777778  3.25 6.66666666666667  C 3.25 7.58680555555556  3.5673828125 8.37239583333333  4.2021484375 9.0234375  C 4.8369140625 9.67447916666667  5.60286458333333 10  6.5 10  C 7.39713541666667 10  8.1630859375 9.67447916666667  8.7978515625 9.0234375  Z M 11.095703125 1.953125  C 12.365234375 3.25520833333333  13 4.82638888888889  13 6.66666666666667  C 13 7.61284722222222  12.8603515625 8.38975694444444  12.5810546875 8.99739583333333  L 7.9599609375 19.0755208333333  C 7.82454427083333 19.3619791666667  7.62353515625 19.5876736111111  7.35693359375 19.7526041666667  C 7.09033203125 19.9175347222222  6.8046875 20  6.5 20  C 6.1953125 20  5.90966796875 19.9175347222222  5.64306640625 19.7526041666667  C 5.37646484375 19.5876736111111  5.1796875 19.3619791666667  5.052734375 19.0755208333333  L 0.4189453125 8.99739583333333  C 0.1396484375 8.38975694444444  0 7.61284722222222  0 6.66666666666667  C 0 4.82638888888889  0.634765625 3.25520833333333  1.904296875 1.953125  C 3.173828125 0.651041666666667  4.70572916666667 0  6.5 0  C 8.29427083333333 0  9.826171875 0.651041666666667  11.095703125 1.953125  Z " fill-rule="nonzero" fill="#7f7f7f" stroke="none" transform="matrix(1 0 0 1 333 232 )" />
  </g>
</svg>